<?xml version="1.0" encoding="utf-8"?>
<!-- Generator: Adobe Illustrator 19.0.0, SVG Export Plug-In . SVG Version: 6.00 Build 0)  -->
<svg version="1.1" id="Layer_1" xmlns="http://www.w3.org/2000/svg" xmlns:xlink="http://www.w3.org/1999/xlink" x="0px" y="0px"
	 viewBox="1158 -635 3276 1830" style="enable-background:new 1158 -635 3276 1830;" xml:space="preserve">
<style type="text/css">
	.st0{opacity:0.2;fill:url(#SVGID_1_);enable-background:new    ;}
	.st1{opacity:0.2;fill:url(#SVGID_2_);enable-background:new    ;}
	.st2{opacity:0.2;fill:url(#SVGID_3_);enable-background:new    ;}
</style>
<linearGradient id="SVGID_1_" gradientUnits="userSpaceOnUse" x1="2225.3" y1="127.6409" x2="2225.3" y2="1195" gradientTransform="matrix(1 0 0 -1 0 560)">
	<stop  offset="0" style="stop-color:#FFFFFF;stop-opacity:0"/>
	<stop  offset="1" style="stop-color:#FFFFFF;stop-opacity:0.6"/>
</linearGradient>
<path class="st0" d="M1158,246.1c266.2,138.6,604.4,210.1,992,179.1c500.5-40.1,750.6-152.4,1142.6-446.9
	c-131.7-193.4-223.8-365.9-322.2-613.3H1158V246.1z"/>
<linearGradient id="SVGID_2_" gradientUnits="userSpaceOnUse" x1="3863.2998" y1="-279" x2="3863.2998" y2="1072.1089" gradientTransform="matrix(1 0 0 -1 0 560)">
	<stop  offset="0" style="stop-color:#FFFFFF;stop-opacity:0"/>
	<stop  offset="1" style="stop-color:#FFFFFF;stop-opacity:0.6"/>
</linearGradient>
<path class="st1" d="M3562.2-232.4c-98.7,79.2-187.1,148.7-269.6,210.6c53.7,78.9,113.9,161.2,183.9,253.5
	C3637.2,443.7,4051,809.9,4434,839V-504.3C4161.8-539.6,3841.5-456.3,3562.2-232.4z"/>
<linearGradient id="SVGID_3_" gradientUnits="userSpaceOnUse" x1="2796" y1="-635" x2="2796" y2="581.7" gradientTransform="matrix(1 0 0 -1 0 560)">
	<stop  offset="0" style="stop-color:#FFFFFF;stop-opacity:0"/>
	<stop  offset="1" style="stop-color:#FFFFFF;stop-opacity:0.6"/>
</linearGradient>
<path class="st2" d="M3476.5,231.8c-70-92.3-130.2-174.6-183.9-253.5C2900.6,272.8,2650.5,385,2150,425.2
	c-387.7,31.1-725.8-40.4-992-179.1V1195h3276V839.1C4051,810,3637.2,443.8,3476.5,231.8z"/>
</svg>
