<?xml version="1.0" encoding="UTF-8"?>
<svg id="Layer_1" data-name="Layer 1" xmlns="http://www.w3.org/2000/svg" xmlns:xlink="http://www.w3.org/1999/xlink" viewBox="0 0 976.09 492.03">
  <defs>
    <style>
      .cls-1 {
        fill: url(#linear-gradient-15);
      }

      .cls-2 {
        fill: url(#linear-gradient-13);
      }

      .cls-3 {
        fill: url(#linear-gradient-2);
      }

      .cls-4 {
        fill: url(#linear-gradient-10);
      }

      .cls-5 {
        fill: url(#linear-gradient-12);
      }

      .cls-6 {
        fill: #231f20;
      }

      .cls-7 {
        fill: #00adb1;
      }

      .cls-8 {
        fill: url(#linear-gradient-4);
      }

      .cls-9 {
        fill: url(#linear-gradient-3);
      }

      .cls-10 {
        fill: url(#linear-gradient-5);
      }

      .cls-11 {
        fill: url(#linear-gradient-8);
      }

      .cls-12 {
        fill: url(#linear-gradient-14);
      }

      .cls-13 {
        fill: url(#linear-gradient-20);
      }

      .cls-14 {
        fill: url(#linear-gradient-17);
      }

      .cls-15 {
        fill: url(#linear-gradient-7);
      }

      .cls-16 {
        fill: url(#linear-gradient-9);
      }

      .cls-17 {
        fill: url(#linear-gradient-11);
      }

      .cls-18 {
        fill: url(#linear-gradient-19);
      }

      .cls-19 {
        fill: url(#linear-gradient-6);
      }

      .cls-20 {
        fill: url(#linear-gradient-21);
      }

      .cls-21 {
        fill: url(#linear-gradient-16);
      }

      .cls-22 {
        fill: url(#linear-gradient);
      }

      .cls-23 {
        fill: url(#linear-gradient-18);
      }
    </style>
    <linearGradient id="linear-gradient" x1="200.12" y1="68.78" x2="234.98" y2="-1.85" gradientUnits="userSpaceOnUse">
      <stop offset="0" stop-color="#77479c"/>
      <stop offset="1" stop-color="#00adb1"/>
    </linearGradient>
    <linearGradient id="linear-gradient-2" x1="20.64" y1="8.96" x2="115.68" y2="8.96" xlink:href="#linear-gradient"/>
    <linearGradient id="linear-gradient-3" x1="0" y1="28.15" x2="95.05" y2="28.15" xlink:href="#linear-gradient"/>
    <linearGradient id="linear-gradient-4" x1="20.64" y1="47.34" x2="115.68" y2="47.34" xlink:href="#linear-gradient"/>
    <linearGradient id="linear-gradient-5" x1="104.84" y1="181.26" x2="122.74" y2="181.26" xlink:href="#linear-gradient"/>
    <linearGradient id="linear-gradient-6" x1="66.45" y1="181.26" x2="84.36" y2="181.26" xlink:href="#linear-gradient"/>
    <linearGradient id="linear-gradient-7" x1="85.65" y1="160.63" x2="103.56" y2="160.63" xlink:href="#linear-gradient"/>
    <linearGradient id="linear-gradient-8" x1="128.8" y1="138.36" x2="325.71" y2="340.6" gradientUnits="userSpaceOnUse">
      <stop offset="0" stop-color="#77479c"/>
      <stop offset=".18" stop-color="#724a9c"/>
      <stop offset=".36" stop-color="#66559e"/>
      <stop offset=".55" stop-color="#5266a2"/>
      <stop offset=".74" stop-color="#357fa7"/>
      <stop offset=".93" stop-color="#109eae"/>
      <stop offset="1" stop-color="#00adb1"/>
    </linearGradient>
    <linearGradient id="linear-gradient-9" x1="445.54" y1="25.68" x2="648.48" y2="234.11" xlink:href="#linear-gradient-8"/>
    <linearGradient id="linear-gradient-10" x1="377.7" y1="91.22" x2="580.86" y2="299.9" gradientUnits="userSpaceOnUse">
      <stop offset="0" stop-color="#77479c"/>
      <stop offset=".35" stop-color="#4b6ba3"/>
      <stop offset="1" stop-color="#00adb1"/>
    </linearGradient>
    <linearGradient id="linear-gradient-11" x1="335.36" y1="132.63" x2="538.6" y2="341.38" xlink:href="#linear-gradient"/>
    <linearGradient id="linear-gradient-12" x1="325.41" y1="142.31" x2="528.65" y2="351.07" xlink:href="#linear-gradient"/>
    <linearGradient id="linear-gradient-13" x1="315.46" y1="152" x2="518.71" y2="360.75" xlink:href="#linear-gradient"/>
    <linearGradient id="linear-gradient-14" x1="316.45" y1="151.04" x2="519.69" y2="359.79" xlink:href="#linear-gradient"/>
    <linearGradient id="linear-gradient-15" x1="679.8" y1=".26" x2="681.31" y2=".26" xlink:href="#linear-gradient"/>
    <linearGradient id="linear-gradient-16" x1="786.5" y1="195.14" x2="885.53" y2="-5.51" xlink:href="#linear-gradient"/>
    <linearGradient id="linear-gradient-17" x1="783.86" y1="305.13" x2="879.67" y2="110.98" xlink:href="#linear-gradient"/>
    <linearGradient id="linear-gradient-18" x1="728.19" y1="173.84" x2="754.58" y2="120.37" xlink:href="#linear-gradient"/>
    <linearGradient id="linear-gradient-19" x1="711.96" y1="156.39" x2="738.35" y2="102.91" xlink:href="#linear-gradient"/>
    <linearGradient id="linear-gradient-20" x1="695.72" y1="173.85" x2="722.1" y2="120.37" xlink:href="#linear-gradient"/>
    <linearGradient id="linear-gradient-21" x1="967.78" y1="165.28" x2="984.85" y2="130.69" xlink:href="#linear-gradient"/>
  </defs>
  <g>
    <g>
      <path class="cls-22" d="M325.64,81.56c-43.87-55.68-130.7-22.81-130.7-22.81-4.8-.62-9.7-.94-14.67-.94l-64.32-.6c3.02-2.83,4.67-7.1,3.84-11.7-.94-5.22-5.11-9.35-10.34-10.24-4.7-.8-9.03.99-11.82,4.17h-4.28c3.56-2.25,5.92-6.21,5.92-10.72s-2.36-8.47-5.91-10.72h4.02c3.06,3.48,7.95,5.31,13.15,3.96,4.36-1.14,7.82-4.56,9-8.91,1.38-5.11-.31-9.94-3.64-13.04h64.16C200.01,0,219.17,3.43,236.97,9.73c21.21,7.5,40.5,19.08,56.92,33.8,4.73,4.23,9.21,8.72,13.44,13.45,6.8,7.61,12.94,15.84,18.31,24.59Z"/>
      <path class="cls-3" d="M115.68,8.95c0,3.57-2.08,6.65-5.11,8.09-.28.13-.57.25-.86.35-.93.33-1.94.51-2.98.51s-2.04-.18-2.98-.51c-1.97-.69-3.63-2.07-4.69-3.84h-61.82c-1.06,1.77-2.72,3.14-4.69,3.84-.93.33-1.94.51-2.98.51s-2.05-.18-2.98-.51h.01c-.29-.1-.58-.22-.86-.35-3.02-1.44-5.11-4.52-5.11-8.09s2.09-6.65,5.11-8.09c.28-.13.57-.25.86-.35.93-.33,1.94-.51,2.97-.51s2.05.18,2.98.51h-.03c1.97.7,3.63,2.07,4.69,3.84h61.89c1.06-1.77,2.72-3.14,4.69-3.84h-.03c.93-.33,1.93-.51,2.98-.51s2.04.18,2.98.51c.29.1.58.22.86.35,3.03,1.44,5.11,4.52,5.11,8.09Z"/>
      <path class="cls-9" d="M95.05,28.14c0,3.57-2.09,6.65-5.11,8.09-.28.14-.57.26-.87.36-.93.33-1.92.51-2.97.51s-2.04-.17-2.97-.51c-1.98-.69-3.64-2.07-4.69-3.84H16.61c-1.06,1.77-2.72,3.15-4.69,3.84h-.08c-.94.33-1.94.51-2.99.51s-2.04-.18-2.98-.51h.12c-.3-.1-.59-.22-.87-.36-3.02-1.43-5.11-4.51-5.11-8.09s2.09-6.65,5.11-8.09c.28-.14.57-.25.86-.35h-.11c.94-.33,1.94-.51,2.98-.51s2.05.18,2.99.51h.1c1.97.7,3.63,2.07,4.68,3.84h61.82c1.06-1.77,2.72-3.14,4.69-3.84.93-.33,1.94-.51,2.98-.51s2.04.18,2.98.51c.29.1.58.22.86.35,3.02,1.44,5.11,4.52,5.11,8.09Z"/>
      <path class="cls-8" d="M115.68,47.34c0,3.57-2.08,6.65-5.11,8.09-.28.13-.57.25-.86.35-.93.33-1.94.51-2.98.51s-2.04-.18-2.98-.51c-1.97-.69-3.63-2.07-4.69-3.84h-61.82c-1.06,1.77-2.72,3.14-4.69,3.84-.93.33-1.94.51-2.98.51s-2.05-.18-2.98-.51h.01c-.29-.1-.58-.22-.86-.35-3.02-1.43-5.11-4.52-5.11-8.09s2.09-6.66,5.11-8.09c.28-.13.57-.25.86-.35h-.01c.93-.33,1.94-.51,2.98-.51s2.05.18,2.98.51c1.97.7,3.63,2.07,4.69,3.84h61.82c1.06-1.77,2.72-3.15,4.69-3.84.93-.33,1.93-.51,2.98-.51s2.04.18,2.98.51c.29.1.58.22.86.35,3.03,1.43,5.11,4.52,5.11,8.09Z"/>
      <path class="cls-10" d="M122.24,216.87c.33.93.51,1.93.51,2.97s-.18,2.04-.51,2.97c-.1.3-.22.59-.36.87-1.44,3.02-4.52,5.11-8.09,5.11s-6.64-2.08-8.08-5.11c-.13-.28-.25-.57-.36-.87-.33-.93-.51-1.93-.51-2.97s.18-2.04.51-2.97c.69-1.98,2.07-3.64,3.84-4.69v-61.83c-1.77-1.06-3.14-2.72-3.84-4.7-.33-.93-.51-1.93-.51-2.97s.18-2.04.51-2.96c.1-.3.22-.59.36-.87,1.44-3.02,4.52-5.11,8.08-5.11s6.65,2.08,8.09,5.11c.14.28.26.58.36.87.33.93.51,1.93.51,2.96s-.18,2.04-.51,2.97c-.69,1.98-2.07,3.64-3.84,4.7v61.83c1.77,1.06,3.14,2.72,3.84,4.69Z"/>
      <path class="cls-19" d="M83.85,216.87c.33.93.51,1.93.51,2.97s-.18,2.04-.51,2.97c-.1.3-.22.59-.36.87-1.44,3.02-4.52,5.11-8.09,5.11s-6.64-2.08-8.08-5.11c-.13-.28-.25-.56-.36-.86-.33-.93-.51-1.93-.51-2.98s.18-2.05.51-2.98c.7-1.97,2.07-3.63,3.84-4.69v-61.82c-1.77-1.06-3.14-2.72-3.84-4.69-.33-.93-.51-1.93-.51-2.98s.18-2.05.51-2.97c.1-.29.22-.58.36-.86,1.44-3.02,4.52-5.11,8.08-5.11s6.65,2.08,8.09,5.11c.13.28.25.58.36.87.33.93.51,1.93.51,2.96s-.18,2.04-.51,2.97c-.69,1.98-2.07,3.64-3.84,4.7v61.83c1.77,1.06,3.14,2.72,3.84,4.69Z"/>
      <path class="cls-15" d="M103.05,196.22c.33.93.51,1.94.51,2.98s-.18,2.05-.51,2.97c-.1.3-.22.58-.35.86-1.44,3.02-4.52,5.11-8.09,5.11s-6.65-2.08-8.09-5.11c-.13-.28-.25-.56-.35-.86-.33-.93-.51-1.93-.51-2.97s.18-2.05.51-2.98c.7-1.97,2.07-3.63,3.84-4.69v-61.82c-1.77-1.06-3.14-2.71-3.84-4.69-.33-.93-.51-1.94-.51-2.98s.18-2.04.51-2.97c.1-.29.22-.58.35-.86,1.44-3.02,4.52-5.11,8.09-5.11s6.65,2.09,8.09,5.11c.13.28.25.57.35.86.33.93.51,1.93.51,2.97s-.18,2.05-.51,2.98c-.7,1.97-2.07,3.63-3.84,4.69v61.82c1.77,1.06,3.14,2.71,3.84,4.69Z"/>
      <path class="cls-11" d="M350.82,170.93c0,5.41-.25,10.75-.74,16.03,0,.02,0,.04,0,.06-1.32,14.21-4.38,27.91-8.96,40.89-7.5,21.23-19.07,40.54-33.77,56.98-4.23,4.73-8.71,9.22-13.44,13.46-16.43,14.71-35.71,26.29-56.92,33.8-17.8,6.3-36.96,9.73-56.92,9.73h-56.92s-43.38,0-43.38,0c-7.31,0-13.23-5.93-13.23-13.24v-100.22c2.56,2.76,6.32,4.38,10.43,3.99,6.07-.56,10.9-5.5,11.42-11.57.36-4.25-1.37-8.12-4.26-10.67v-4.22c2.25,3.55,6.21,5.91,10.71,5.91s8.46-2.36,10.71-5.91v4.22c-2.89,2.55-4.62,6.42-4.26,10.67.51,6.08,5.35,11.03,11.42,11.58,4.12.38,7.87-1.24,10.43-4v40.57c0,8.49,6.76,15.44,15.24,15.67,12.4.33,29.78.73,41.91.73,20.83,0,40.35-5.61,57.14-15.4,17.02-9.93,31.23-24.15,41.15-41.19,9.78-16.8,15.38-36.35,15.38-57.2,0-12.47-2-24.47-5.71-35.7-2.49-7.55-5.75-14.74-9.68-21.5-9.92-17.04-24.13-31.27-41.15-41.2-12.78-7.45-27.15-12.48-42.47-14.46,0,0,86.83-32.87,130.7,22.81,11.37,14.43,19.86,34.82,23.19,63.27,1.3,8.51,1.98,17.23,1.98,26.1Z"/>
    </g>
    <g>
      <path class="cls-16" d="M547.65,136.2c14.73,37.81,28.38,82.58,19.69,101.66-1.55-13.8-14.83-22.54-50.12-30.27l-33.29-7.16c-6.66-1.43-13.03-3.06-19.09-4.91-47.85-14.59-76.38-42.62-76.24-88.85-.49-63.5,55.67-106.15,135.15-106.15s131.56,43.3,131.88,108.75h-86.83c-1.8-21.65-15.67-34.51-45.05-34.51-1,0-1.99.01-2.95.05-19.81.55-31.14,6.78-35.46,15.97-1.36,2.87-2.03,6.02-2.07,9.37-.82,15.96,13.38,25.23,45.05,31.91l19.34,4.14Z"/>
      <path class="cls-4" d="M660.2,240.16c-.33,65.77-51.09,102.24-135.81,102.24-67.64,0-117-22.55-135.86-71.76-.53-1.38-.11-2.93,1.03-3.87,0,0,.01-.01.03-.03.61-.5,1.39-.79,2.18-.79h53.69c1.56,1.52,3.44,2.69,5.49,3.4,1.63.59,3.33.87,5.07.87s3.44-.29,5.07-.87c.47-.17.94-.36,1.42-.59,5.26-2.48,8.66-7.85,8.66-13.66s-3.4-11.19-8.68-13.68c-.46-.22-.94-.42-1.41-.58-1.62-.59-3.33-.87-5.06-.87s-3.44.29-5.04.86c-.34.12-.68.25-1.01.4.56-1.58.86-3.27.86-5s-.3-3.41-.86-4.99c.32.15.65.27.97.39,1.63.58,3.33.87,5.07.87s3.44-.29,5.07-.87c.47-.18.94-.37,1.42-.6.84-.4,1.64-.87,2.38-1.4.95-.7,2.29-.16,2.52,1,4.92,24.55,24.64,37.52,55.67,37.52,29.06,0,44.08-11.56,44.4-28-.01-.78-.07-1.55-.15-2.3,8.69-19.08-4.96-63.86-19.69-101.66l8.08,1.73c73.77,15.79,104.14,51.44,104.47,102.24Z"/>
      <path class="cls-17" d="M464.82,217.5c0,1.4-.33,2.73-.91,3.91-.87,1.78-2.33,3.21-4.12,4.07-.27.13-.56.25-.84.35-.91.33-1.9.51-2.93.51s-2.02-.18-2.94-.51c-1.94-.68-3.58-2.04-4.62-3.78h-60.93c-.91,1.53-2.28,2.75-3.91,3.49-.23.1-.47.2-.71.29-.86.3-1.77.48-2.72.5-.08,0-.15,0-.22,0-1.03,0-2.02-.18-2.94-.51-.23-.09-.47-.18-.7-.29-.05-.02-.1-.04-.15-.06-2.97-1.42-5.03-4.45-5.03-7.97s2.06-6.56,5.03-7.97c.28-.13.56-.25.85-.35.91-.32,1.91-.5,2.93-.5s2.02.18,2.94.5h-.04c1.94.69,3.58,2.04,4.62,3.78h61c1.04-1.74,2.68-3.1,4.62-3.78h-.03c.92-.32,1.9-.5,2.94-.5s2.02.18,2.93.5c.29.1.57.22.84.35,2.99,1.41,5.04,4.45,5.04,7.97Z"/>
      <path class="cls-5" d="M376.19,209.53c.28-.13.56-.25.85-.35.91-.32,1.91-.5,2.93-.5s2.02.18,2.94.5h-.04c1.94.69,3.58,2.04,4.62,3.78h61c1.04-1.74,2.68-3.1,4.62-3.78h-.03c.92-.32,1.9-.5,2.94-.5s2.02.18,2.93.5c.29.1.57.22.84.35,2.99,1.41,5.04,4.45,5.04,7.97,0,1.4-.33,2.73-.91,3.91-.87,1.78-2.33,3.21-4.12,4.07-.27.13-.56.25-.84.35-.91.33-1.9.51-2.93.51s-2.02-.18-2.94-.51c-1.94-.68-3.58-2.04-4.62-3.78h-60.93c-.91,1.53-2.28,2.75-3.91,3.49-.23.1-.47.2-.71.29-.86.3-1.77.48-2.72.5-.08,0-.15,0-.22,0-1.03,0-2.02-.18-2.94-.51-.23-.09-.47-.18-.7-.29-.05-.02-.1-.04-.15-.06-2.97-1.42-5.03-4.45-5.03-7.97s2.06-6.56,5.03-7.97ZM367.19,240.96c-1.05,1.74-2.68,3.1-4.63,3.78h-.08c-.92.33-1.91.51-2.94.51s-2.02-.18-2.94-.51h.11c-.29-.1-.58-.22-.86-.35-2.98-1.41-5.04-4.45-5.04-7.97s2.06-6.55,5.04-7.97c.27-.14.56-.25.85-.35h-.11c.92-.33,1.91-.51,2.94-.51s2.02.18,2.94.51h.1c1.93.69,3.57,2.04,4.61,3.78h60.93c.91-1.53,2.28-2.75,3.91-3.49.23-.1.48-.2.72-.29.91-.33,1.9-.51,2.94-.51s2.02.18,2.94.51c.23.08.47.17.7.29.04.02.1.04.14.06,2.97,1.41,5.03,4.45,5.03,7.97s-2.06,6.56-5.03,7.97c-.05.03-.1.05-.16.07-.23.11-.46.2-.7.28-.92.33-1.9.5-2.92.5s-2.02-.17-2.93-.5c-.24-.08-.48-.18-.72-.28-1.63-.74-3-1.97-3.91-3.5h-60.94ZM459.79,263.3c-.27.13-.56.25-.84.35-.92.32-1.9.5-2.93.5s-2.02-.18-2.94-.5c-1.94-.69-3.58-2.04-4.62-3.79h-60.93c-.51.86-1.18,1.62-1.95,2.27-.79.65-1.69,1.17-2.67,1.52-.92.32-1.91.5-2.94.5s-2.02-.18-2.94-.5c-.28-.11-.56-.22-.84-.35-2.97-1.41-5.03-4.45-5.03-7.97s2.06-6.56,5.03-7.97c.05-.03.1-.04.15-.06.23-.11.47-.2.7-.28.92-.33,1.9-.51,2.93-.51.74,0,1.46.09,2.15.27.03.18.06.35.09.52h1.41c1.63.74,2.99,1.97,3.91,3.5h60.93c1.05-1.74,2.68-3.1,4.62-3.78.92-.33,1.9-.51,2.94-.51s2.01.18,2.93.51c.29.1.57.22.84.35,2.99,1.41,5.04,4.45,5.04,7.97s-2.05,6.56-5.04,7.97Z"/>
      <path class="cls-2" d="M444.49,236.41c0,3.52-2.06,6.56-5.03,7.97-.05.03-.1.05-.16.07-.23.11-.46.2-.7.28-.92.33-1.9.5-2.92.5s-2.02-.17-2.93-.5c-.24-.08-.48-.18-.72-.28-1.63-.74-3-1.97-3.91-3.5h-60.94c-1.05,1.74-2.68,3.1-4.63,3.78h-.08c-.92.33-1.91.51-2.94.51s-2.02-.18-2.94-.51h.11c-.29-.1-.58-.22-.86-.35-2.98-1.41-5.04-4.45-5.04-7.97s2.06-6.55,5.04-7.97c.27-.14.56-.25.85-.35h-.11c.92-.33,1.91-.51,2.94-.51s2.02.18,2.94.51h.1c1.93.69,3.57,2.04,4.61,3.78h60.93c.91-1.53,2.28-2.75,3.91-3.49.23-.1.48-.2.72-.29.91-.33,1.9-.51,2.94-.51s2.02.18,2.94.51c.23.08.47.17.7.29.04.02.1.04.14.06,2.97,1.41,5.03,4.45,5.03,7.97Z"/>
      <path class="cls-12" d="M464.82,255.33c0,3.51-2.05,6.56-5.04,7.97-.27.13-.56.25-.84.35-.92.32-1.9.5-2.93.5s-2.02-.18-2.94-.5c-1.94-.69-3.58-2.04-4.62-3.79h-60.93c-.51.86-1.18,1.62-1.95,2.27-.79.65-1.69,1.17-2.67,1.52-.92.32-1.91.5-2.94.5s-2.02-.18-2.94-.5c-.28-.11-.56-.22-.84-.35-2.97-1.41-5.03-4.45-5.03-7.97s2.06-6.56,5.03-7.97c.05-.03.1-.04.15-.06.23-.11.47-.2.7-.28.92-.33,1.9-.51,2.93-.51.74,0,1.46.09,2.15.27.03.18.06.35.09.52h1.41c1.63.74,2.99,1.97,3.91,3.5h60.93c1.05-1.74,2.68-3.1,4.62-3.78.92-.33,1.9-.51,2.94-.51s2.01.18,2.93.51c.29.1.57.22.84.35,2.99,1.41,5.04,4.45,5.04,7.97Z"/>
    </g>
    <path class="cls-1" d="M681.31.52h-1.41c-.03-.17-.06-.34-.09-.52.27.06.53.14.79.23.24.09.48.18.71.28Z"/>
    <g>
      <g>
        <path class="cls-21" d="M975.39,171.13c.03,4.15-.09,8.28-.37,12.39-14.67,101.73-176.22,100.73-180.52,100.68,23.39-.89,49.21-4.15,67.17-15.31,52.91-28.95,72.55-103.45,40.94-154.76-1.82-3.29-3.74-6.39-5.76-9.32-24.08-35.06-61.02-45.13-100.75-47.48-32.08-1.9-65.97,1.24-96.35.3-4.82-.15-8.64-4.12-8.64-8.94V9.85c0-5.01,4.11-9.04,9.12-8.94,43.5.86,128.96-6.31,161.45,9.36,53.24,19.15,94.07,63.89,108.28,117.54,0,.03.02.06.03.09,3.68,13.91,5.56,28.42,5.41,43.23Z"/>
        <path class="cls-14" d="M975.02,183.52c-4.56,66.62-50.06,126.57-113.34,148.48-29.6,12.4-76.38,9.57-109.6,9.68-1.4,0-2.77.01-4.12.03h-56.85v-142.45c2.56,4.03,7.07,6.54,11.91,6.54,5.43,0,10.43-3.16,12.76-8.08.2-.43.39-.87.54-1.3.54-1.52.81-3.1.81-4.72,0-1.22-.16-2.44-.47-3.59.85.16,1.72.24,2.6.24s1.74-.08,2.58-.24c-.46,1.76-.58,3.59-.35,5.44.14,1.08.42,2.14.8,3.16.13.34.28.69.44,1.05,2.33,4.89,7.33,8.05,12.75,8.05s10.03-2.92,12.47-7.5v86.32c1.27-.07,2.65-.11,4.12-.14,10.45-.21,25.78.36,42.34-.27h.08c4.3.05,165.84,1.05,180.52-100.68Z"/>
      </g>
      <path class="cls-23" d="M742.64,189.17c.27.79.43,1.63.43,2.52s-.16,1.73-.43,2.52c-.08.24-.19.48-.3.72-1.22,2.56-3.82,4.33-6.84,4.33s-5.63-1.76-6.85-4.33c-.1-.24-.21-.48-.29-.72-.28-.79-.44-1.64-.44-2.52s.16-1.73.44-2.52c.58-1.67,1.74-3.07,3.24-3.97v-52.3c-.73-.43-1.37-.99-1.91-1.63-.58-.68-1.03-1.47-1.33-2.33-.28-.78-.44-1.63-.44-2.52s.16-1.73.44-2.51c.08-.26.19-.5.29-.73.28-.58.63-1.12,1.04-1.61,1.39-1.66,3.48-2.71,5.81-2.71,3.02,0,5.63,1.76,6.84,4.32.11.23.22.48.3.73.27.78.43,1.63.43,2.51s-.16,1.74-.43,2.52v-.03c-.59,1.67-1.75,3.07-3.25,3.97v52.36c1.5.9,2.66,2.3,3.25,3.97v-.03Z"/>
      <path class="cls-18" d="M726.4,171.71c.28.78.43,1.63.43,2.52s-.15,1.73-.43,2.52c-.08.24-.18.49-.3.73-.27.58-.62,1.12-1.03,1.6-1.39,1.66-3.47,2.72-5.8,2.72s-4.43-1.06-5.81-2.72c-.41-.48-.76-1.03-1.03-1.6-.12-.24-.22-.48-.31-.73-.28-.79-.42-1.63-.42-2.51s.14-1.73.42-2.52c.09-.27.2-.53.33-.78.27-.56.61-1.09,1.01-1.56.54-.65,1.19-1.2,1.91-1.63v-52.31c-1.5-.9-2.66-2.29-3.25-3.97v-.07c-.28-.79-.43-1.64-.43-2.53s.15-1.73.43-2.52v.1c.09-.26.19-.5.31-.74,1.22-2.56,3.82-4.33,6.84-4.33s5.62,1.77,6.84,4.33c.12.23.22.48.3.73v-.09c.28.8.43,1.64.43,2.52s-.15,1.74-.43,2.53v.09c-.59,1.66-1.74,3.06-3.25,3.96v52.31c.73.43,1.38.99,1.91,1.63.4.47.74.99,1.01,1.56.12.25.24.51.33.78Z"/>
      <path class="cls-13" d="M710.16,189.17c.28.79.43,1.63.43,2.52s-.15,1.73-.43,2.52c-.09.24-.19.48-.3.72-1.22,2.56-3.82,4.33-6.84,4.33s-5.63-1.76-6.84-4.33c-.11-.24-.22-.48-.3-.72-.28-.79-.43-1.64-.43-2.52s.15-1.73.43-2.52c.59-1.67,1.75-3.07,3.25-3.97v-52.3c-1.5-.9-2.66-2.29-3.25-3.97-.28-.78-.43-1.63-.43-2.52s.15-1.73.43-2.51c.08-.26.19-.5.3-.73,1.22-2.56,3.82-4.32,6.84-4.32,2.33,0,4.42,1.05,5.8,2.71.41.49.76,1.03,1.04,1.61.11.23.21.48.3.73.28.78.43,1.63.43,2.51s-.15,1.74-.43,2.52c-.31.86-.76,1.65-1.34,2.33-.54.65-1.18,1.2-1.91,1.63v52.3c1.5.9,2.66,2.3,3.25,3.97Z"/>
      <path class="cls-20" d="M975.39,171.13c.15-14.82-1.73-29.33-5.41-43.23,6.04,21.31,7.33,39.72,5.04,55.62.28-4.1.41-8.24.37-12.39Z"/>
    </g>
  </g>
  <g>
    <g>
      <path class="cls-6" d="M88.73,404.96v11.46h14.35v-11.46h-14.35ZM107.38,404.96v11.46h14.27v-11.46h-14.27Z"/>
      <path class="cls-6" d="M178.69,468.66h0s.09.01.09.01c-.03,0-.06,0-.09-.01ZM178.69,455.89h.09-.09ZM156.38,477.77v11.46h14.26v-11.46h-14.26ZM137.74,477.77v11.46h14.35v-11.46h-14.35Z"/>
      <path class="cls-6" d="M178.69,468.66h0s.09.01.09.01c-.03,0-.06,0-.09-.01ZM178.69,455.89h.09-.09Z"/>
      <path class="cls-6" d="M274.34,404.96v11.46h14.27v-11.46h-14.27ZM255.7,404.96v11.46h14.35v-11.46h-14.35Z"/>
      <path class="cls-6" d="M270.93,424.65c-4.9,0-9.08.86-12.55,2.58-3.47,1.73-6.11,4.23-7.92,7.53-1.81,3.29-2.72,7.28-2.72,11.94,0,3.52.45,6.59,1.34,9.19h-17.09v-8.93c0-5.6-.91-10.03-2.72-13.3-1.8-3.27-4.51-5.63-8.09-7.09-3.59-1.46-8.13-2.19-13.61-2.19-3.79,0-7.24.26-10.32.79-3.09.52-5.37,1.05-6.83,1.58-.35,1.28-.73,3.02-1.14,5.2-.41,2.19-.74,4.64-1.01,7.35-.26,2.71-.39,5.53-.39,8.45s.11,5.45.35,7.96c0,.06.01.11.01.17h-9.47s-.06,0-.09,0h0s-11.81,0-11.81,0v-31.24h-15.06v31.24h-26.07v-31.24h-20.92c-4.9,0-9.09.86-12.56,2.58-3.47,1.73-6.11,4.24-7.91,7.57-1.81,3.33-2.72,7.41-2.72,12.25s.91,8.87,2.72,12.08c1.8,3.21,4.44,5.6,7.91,7.18,3.47,1.58,7.66,2.37,12.56,2.37h187.01v-44.02h-20.92ZM110.7,455.89h-5.86c-1.87,0-3.4-.17-4.6-.53-1.19-.34-2.08-1.15-2.67-2.4-.58-1.25-.88-3.22-.88-5.91,0-2.85.34-4.97,1.01-6.34.67-1.38,1.63-2.27,2.84-2.67,1.23-.41,2.66-.61,4.29-.61h5.86v18.46ZM216.93,455.89h-13.6c-.09-.75-.16-1.54-.23-2.36-.18-2.1-.26-4.03-.26-5.77,0-2.05.1-4.17.31-6.39.13-1.4.29-2.74.46-4.05,1.3-.11,2.62-.16,3.96-.16,2.51,0,4.43.28,5.77.83,1.34.56,2.27,1.52,2.8,2.89s.78,3.34.78,5.91v9.1ZM276.8,455.89h-5.87c-2.04,0-3.64-.2-4.81-.61-1.17-.41-2.01-1.25-2.54-2.54-.53-1.28-.78-3.29-.78-6.04,0-2.39.26-4.26.78-5.6s1.37-2.29,2.54-2.84c1.17-.56,2.77-.83,4.81-.83h5.87v18.46Z"/>
      <path class="cls-6" d="M357.39,407.41v61.26h-33.51v1.22c0,4.26-.89,8.07-2.67,11.42-1.78,3.36-4.26,5.98-7.44,7.88-3.18,1.9-6.9,2.84-11.16,2.84-.64,0-1.43-.03-2.36-.09-.94-.06-1.93-.15-2.98-.26l.26-12.51c1.05,0,2.02.01,2.93.04s1.56.04,1.97.04c1.98,0,3.54-.81,4.68-2.41s1.7-3.92,1.7-6.96v-45.24h15.06v31.24h18.46v-48.48h15.05Z"/>
      <path class="cls-6" d="M370.69,468.67v-61.26h14.96v61.26h-14.96Z"/>
      <path class="cls-6" d="M443.33,490.37c-5.31,0-10.06-.98-14.26-2.93-4.2-1.95-7.48-4.64-9.84-8.05-2.36-3.41-3.54-7.25-3.54-11.51,0-1.22.09-2.77.26-4.64.17-1.87.41-3.94.7-6.21.29-2.28.62-4.65,1.01-7.13.38-2.48.74-4.89,1.09-7.22l14.88,1.92c-.64,3.85-1.17,7.34-1.57,10.46-.41,3.12-.73,5.75-.96,7.88-.23,2.13-.35,3.72-.35,4.77,0,2.04.47,3.79,1.4,5.25.93,1.46,2.35,2.6,4.24,3.41,1.89.82,4.21,1.22,6.96,1.22,2.98,0,5.28-.42,6.91-1.27,1.63-.85,2.77-1.97,3.41-3.37.64-1.4.96-2.92.96-4.55v-60.99h15.05v60.99c0,4.38-1.12,8.21-3.37,11.51-2.25,3.29-5.35,5.86-9.32,7.7-3.97,1.84-8.52,2.76-13.65,2.76Z"/>
      <path class="cls-6" d="M630.94,407.41v48.48h-18.55v-8.31c0-4.73-1.15-8.8-3.46-12.2-2.3-3.41-5.43-6.05-9.36-7.92-3.94-1.87-8.42-2.8-13.43-2.8-2.4,0-4.8.19-7.22.57-2.42.38-4.88.86-7.39,1.44l1.31,11.81c2.45-.34,4.67-.59,6.65-.74,1.98-.14,3.56-.21,4.73-.21,4.66,0,8.02.85,10.06,2.58,2.05,1.72,3.07,4.21,3.07,7.48v8.31h-40.78v-48.48h-15.06v48.48h-18.55v-31.24h-20.92c-4.9,0-9.09.86-12.55,2.58-3.47,1.73-6.12,4.24-7.92,7.57-1.81,3.33-2.72,7.41-2.72,12.25s.91,8.87,2.72,12.08c1.8,3.21,4.45,5.6,7.92,7.18,3.46,1.58,7.66,2.37,12.55,2.37h5.87v2.71c0,2.68-.82,4.66-2.45,5.95-1.63,1.28-4.32,1.92-8.06,1.92-1.34,0-3.02-.07-5.03-.22-2.01-.14-4.45-.39-7.31-.74l-2.19,11.98c2.62.53,5.13.95,7.53,1.27,2.39.32,4.72.48,6.99.48,5.13,0,9.62-.83,13.44-2.5,3.82-1.66,6.79-4.06,8.93-7.17,2.12-3.12,3.19-6.79,3.19-10.99v-2.71h123.04v-61.26h-15.06ZM507.91,455.89h-5.87c-1.87,0-3.4-.17-4.59-.53-1.2-.34-2.09-1.15-2.67-2.4-.58-1.25-.88-3.22-.88-5.91,0-2.85.34-4.97,1.01-6.34.67-1.38,1.62-2.27,2.84-2.67,1.23-.41,2.65-.61,4.28-.61h5.87v18.46Z"/>
      <path class="cls-6" d="M659.3,468.67v-61.26h14.96v61.26h-14.96Z"/>
      <path class="cls-6" d="M740.94,452.3v16.37h-36.66v-12.78h21.62v-3.59c0-3.96-.38-7.01-1.13-9.15-.76-2.12-2.02-3.61-3.76-4.46-1.75-.84-4.21-1.27-7.36-1.27h-7.09v-12.78h7.09c5.9,0,10.89.98,14.96,2.93,4.08,1.96,7.16,4.98,9.24,9.06,2.07,4.09,3.1,9.3,3.1,15.66Z"/>
      <path class="cls-6" d="M846.49,477.77v11.46h15.13v-11.46h-15.13Z"/>
      <path class="cls-6" d="M846.49,424.65v31.24h-23.44c1.01-1.03,1.95-2.1,2.83-3.19,2.3-2.89,4.06-5.77,5.29-8.66,1.23-2.89,1.84-5.52,1.84-7.92v-4.81c-2.51-1.46-5.26-2.68-8.27-3.68-3.01-.99-6.01-1.73-9.01-2.23-3.01-.49-5.77-.74-8.27-.74s-5.18.25-8.18.74c-3.01.5-6.01,1.24-9.01,2.23-3.01,1-5.77,2.22-8.27,3.68v4.81c0,2.4.61,5.03,1.83,7.92,1.23,2.89,2.99,5.77,5.3,8.66.88,1.1,1.82,2.16,2.82,3.19h-24.48v-48.48h-14.96v61.26h41.57c4.55,0,8.8-.73,12.78-2.2.22-.08.43-.16.66-.26.22.09.43.18.66.26,3.96,1.46,8.23,2.2,12.78,2.2h40.69v-44.02h-15.13ZM817,441.19c-.64,1.81-1.53,3.58-2.67,5.3-1.13,1.72-2.45,3.29-3.94,4.73-.92.88-1.88,1.65-2.89,2.31-1.01-.66-1.97-1.43-2.89-2.31-1.49-1.43-2.8-3.01-3.94-4.73-1.13-1.72-2.02-3.49-2.67-5.3-.26-.72-.46-1.43-.61-2.11.49-.16.99-.29,1.49-.43,3.09-.81,5.95-1.23,8.58-1.23s5.57.41,8.66,1.23c.5.14,1,.27,1.49.43-.15.68-.36,1.39-.61,2.11Z"/>
      <path class="cls-6" d="M875.01,407.41v61.26h14.96v-61.26h-14.96Z"/>
      <path class="cls-6" d="M894.44,393.15v7.44h-23.89v-7.44h2.32c-.15-.68-.22-1.38-.22-2.1,0-2.22.58-4.2,1.75-5.95,1.17-1.75,2.72-3.14,4.64-4.16,1.92-1.01,4.05-1.53,6.39-1.53,1.23,0,2.5.17,3.81.53,1.31.34,2.4.81,3.28,1.4l-3.41,6.29c-.58-.28-1.15-.48-1.71-.56-.56-.09-1.09-.14-1.62-.14-1.4,0-2.48.36-3.24,1.1-.76.73-1.14,1.68-1.14,2.84,0,.7.14,1.35.39,1.97.04.1.09.21.15.31h12.5Z"/>
    </g>
    <g>
      <path class="cls-7" d="M88.73,404.96v11.46h14.35v-11.46h-14.35ZM107.38,404.96v11.46h14.27v-11.46h-14.27Z"/>
      <path class="cls-7" d="M178.69,468.66h0s.09.01.09.01c-.03,0-.06,0-.09-.01ZM178.69,455.89h.09-.09ZM156.38,477.77v11.46h14.26v-11.46h-14.26ZM137.74,477.77v11.46h14.35v-11.46h-14.35Z"/>
      <path class="cls-7" d="M178.69,468.66h0s.09.01.09.01c-.03,0-.06,0-.09-.01ZM178.69,455.89h.09-.09Z"/>
      <path class="cls-7" d="M274.34,404.96v11.46h14.27v-11.46h-14.27ZM255.7,404.96v11.46h14.35v-11.46h-14.35Z"/>
      <path class="cls-7" d="M270.93,424.65c-4.9,0-9.08.86-12.55,2.58-3.47,1.73-6.11,4.23-7.92,7.53-1.81,3.29-2.72,7.28-2.72,11.94,0,3.52.45,6.59,1.34,9.19h-17.09v-8.93c0-5.6-.91-10.03-2.72-13.3-1.8-3.27-4.51-5.63-8.09-7.09-3.59-1.46-8.13-2.19-13.61-2.19-3.79,0-7.24.26-10.32.79-3.09.52-5.37,1.05-6.83,1.58-.35,1.28-.73,3.02-1.14,5.2-.41,2.19-.74,4.64-1.01,7.35-.26,2.71-.39,5.53-.39,8.45s.11,5.45.35,7.96c0,.06.01.11.01.17h-9.47s-.06,0-.09,0h0s-11.81,0-11.81,0v-31.24h-15.06v31.24h-26.07v-31.24h-20.92c-4.9,0-9.09.86-12.56,2.58-3.47,1.73-6.11,4.24-7.91,7.57-1.81,3.33-2.72,7.41-2.72,12.25s.91,8.87,2.72,12.08c1.8,3.21,4.44,5.6,7.91,7.18,3.47,1.58,7.66,2.37,12.56,2.37h187.01v-44.02h-20.92ZM110.7,455.89h-5.86c-1.87,0-3.4-.17-4.6-.53-1.19-.34-2.08-1.15-2.67-2.4-.58-1.25-.88-3.22-.88-5.91,0-2.85.34-4.97,1.01-6.34.67-1.38,1.63-2.27,2.84-2.67,1.23-.41,2.66-.61,4.29-.61h5.86v18.46ZM216.93,455.89h-13.6c-.09-.75-.16-1.54-.23-2.36-.18-2.1-.26-4.03-.26-5.77,0-2.05.1-4.17.31-6.39.13-1.4.29-2.74.46-4.05,1.3-.11,2.62-.16,3.96-.16,2.51,0,4.43.28,5.77.83,1.34.56,2.27,1.52,2.8,2.89s.78,3.34.78,5.91v9.1ZM276.8,455.89h-5.87c-2.04,0-3.64-.2-4.81-.61-1.17-.41-2.01-1.25-2.54-2.54-.53-1.28-.78-3.29-.78-6.04,0-2.39.26-4.26.78-5.6s1.37-2.29,2.54-2.84c1.17-.56,2.77-.83,4.81-.83h5.87v18.46Z"/>
      <path class="cls-7" d="M357.39,407.41v61.26h-33.51v1.22c0,4.26-.89,8.07-2.67,11.42-1.78,3.36-4.26,5.98-7.44,7.88-3.18,1.9-6.9,2.84-11.16,2.84-.64,0-1.43-.03-2.36-.09-.94-.06-1.93-.15-2.98-.26l.26-12.51c1.05,0,2.02.01,2.93.04s1.56.04,1.97.04c1.98,0,3.54-.81,4.68-2.41s1.7-3.92,1.7-6.96v-45.24h15.06v31.24h18.46v-48.48h15.05Z"/>
      <path class="cls-7" d="M370.69,468.67v-61.26h14.96v61.26h-14.96Z"/>
      <path class="cls-7" d="M443.33,490.37c-5.31,0-10.06-.98-14.26-2.93-4.2-1.95-7.48-4.64-9.84-8.05-2.36-3.41-3.54-7.25-3.54-11.51,0-1.22.09-2.77.26-4.64.17-1.87.41-3.94.7-6.21.29-2.28.62-4.65,1.01-7.13.38-2.48.74-4.89,1.09-7.22l14.88,1.92c-.64,3.85-1.17,7.34-1.57,10.46-.41,3.12-.73,5.75-.96,7.88-.23,2.13-.35,3.72-.35,4.77,0,2.04.47,3.79,1.4,5.25.93,1.46,2.35,2.6,4.24,3.41,1.89.82,4.21,1.22,6.96,1.22,2.98,0,5.28-.42,6.91-1.27,1.63-.85,2.77-1.97,3.41-3.37.64-1.4.96-2.92.96-4.55v-60.99h15.05v60.99c0,4.38-1.12,8.21-3.37,11.51-2.25,3.29-5.35,5.86-9.32,7.7-3.97,1.84-8.52,2.76-13.65,2.76Z"/>
      <path class="cls-7" d="M630.94,407.41v48.48h-18.55v-8.31c0-4.73-1.15-8.8-3.46-12.2-2.3-3.41-5.43-6.05-9.36-7.92-3.94-1.87-8.42-2.8-13.43-2.8-2.4,0-4.8.19-7.22.57-2.42.38-4.88.86-7.39,1.44l1.31,11.81c2.45-.34,4.67-.59,6.65-.74,1.98-.14,3.56-.21,4.73-.21,4.66,0,8.02.85,10.06,2.58,2.05,1.72,3.07,4.21,3.07,7.48v8.31h-40.78v-48.48h-15.06v48.48h-18.55v-31.24h-20.92c-4.9,0-9.09.86-12.55,2.58-3.47,1.73-6.12,4.24-7.92,7.57-1.81,3.33-2.72,7.41-2.72,12.25s.91,8.87,2.72,12.08c1.8,3.21,4.45,5.6,7.92,7.18,3.46,1.58,7.66,2.37,12.55,2.37h5.87v2.71c0,2.68-.82,4.66-2.45,5.95-1.63,1.28-4.32,1.92-8.06,1.92-1.34,0-3.02-.07-5.03-.22-2.01-.14-4.45-.39-7.31-.74l-2.19,11.98c2.62.53,5.13.95,7.53,1.27,2.39.32,4.72.48,6.99.48,5.13,0,9.62-.83,13.44-2.5,3.82-1.66,6.79-4.06,8.93-7.17,2.12-3.12,3.19-6.79,3.19-10.99v-2.71h123.04v-61.26h-15.06ZM507.91,455.89h-5.87c-1.87,0-3.4-.17-4.59-.53-1.2-.34-2.09-1.15-2.67-2.4-.58-1.25-.88-3.22-.88-5.91,0-2.85.34-4.97,1.01-6.34.67-1.38,1.62-2.27,2.84-2.67,1.23-.41,2.65-.61,4.28-.61h5.87v18.46Z"/>
      <path class="cls-7" d="M659.3,468.67v-61.26h14.96v61.26h-14.96Z"/>
      <path class="cls-7" d="M740.94,452.3v16.37h-36.66v-12.78h21.62v-3.59c0-3.96-.38-7.01-1.13-9.15-.76-2.12-2.02-3.61-3.76-4.46-1.75-.84-4.21-1.27-7.36-1.27h-7.09v-12.78h7.09c5.9,0,10.89.98,14.96,2.93,4.08,1.96,7.16,4.98,9.24,9.06,2.07,4.09,3.1,9.3,3.1,15.66Z"/>
      <path class="cls-7" d="M846.49,477.77v11.46h15.13v-11.46h-15.13Z"/>
      <path class="cls-7" d="M846.49,424.65v31.24h-23.44c1.01-1.03,1.95-2.1,2.83-3.19,2.3-2.89,4.06-5.77,5.29-8.66,1.23-2.89,1.84-5.52,1.84-7.92v-4.81c-2.51-1.46-5.26-2.68-8.27-3.68-3.01-.99-6.01-1.73-9.01-2.23-3.01-.49-5.77-.74-8.27-.74s-5.18.25-8.18.74c-3.01.5-6.01,1.24-9.01,2.23-3.01,1-5.77,2.22-8.27,3.68v4.81c0,2.4.61,5.03,1.83,7.92,1.23,2.89,2.99,5.77,5.3,8.66.88,1.1,1.82,2.16,2.82,3.19h-24.48v-48.48h-14.96v61.26h41.57c4.55,0,8.8-.73,12.78-2.2.22-.08.43-.16.66-.26.22.09.43.18.66.26,3.96,1.46,8.23,2.2,12.78,2.2h40.69v-44.02h-15.13ZM817,441.19c-.64,1.81-1.53,3.58-2.67,5.3-1.13,1.72-2.45,3.29-3.94,4.73-.92.88-1.88,1.65-2.89,2.31-1.01-.66-1.97-1.43-2.89-2.31-1.49-1.43-2.8-3.01-3.94-4.73-1.13-1.72-2.02-3.49-2.67-5.3-.26-.72-.46-1.43-.61-2.11.49-.16.99-.29,1.49-.43,3.09-.81,5.95-1.23,8.58-1.23s5.57.41,8.66,1.23c.5.14,1,.27,1.49.43-.15.68-.36,1.39-.61,2.11Z"/>
      <path class="cls-7" d="M875.01,407.41v61.26h14.96v-61.26h-14.96Z"/>
      <path class="cls-7" d="M894.44,393.15v7.44h-23.89v-7.44h2.32c-.15-.68-.22-1.38-.22-2.1,0-2.22.58-4.2,1.75-5.95,1.17-1.75,2.72-3.14,4.64-4.16,1.92-1.01,4.05-1.53,6.39-1.53,1.23,0,2.5.17,3.81.53,1.31.34,2.4.81,3.28,1.4l-3.41,6.29c-.58-.28-1.15-.48-1.71-.56-.56-.09-1.09-.14-1.62-.14-1.4,0-2.48.36-3.24,1.1-.76.73-1.14,1.68-1.14,2.84,0,.7.14,1.35.39,1.97.04.1.09.21.15.31h12.5Z"/>
    </g>
  </g>
</svg>