<?xml version="1.0" encoding="UTF-8"?>
<svg id="Layer_1" data-name="Layer 1" xmlns="http://www.w3.org/2000/svg" xmlns:xlink="http://www.w3.org/1999/xlink" viewBox="0 0 1212.55 305.06">
  <defs>
    <style>
      .cls-1 {
        fill: url(#linear-gradient-15);
      }

      .cls-2 {
        fill: url(#linear-gradient-13);
      }

      .cls-3 {
        fill: url(#linear-gradient-2);
      }

      .cls-4 {
        fill: url(#linear-gradient-10);
      }

      .cls-5 {
        fill: url(#linear-gradient-12);
      }

      .cls-6 {
        fill: #231f20;
      }

      .cls-7 {
        fill: #0f121c;
      }

      .cls-8 {
        fill: #00adb1;
      }

      .cls-9 {
        fill: url(#linear-gradient-4);
      }

      .cls-10 {
        fill: url(#linear-gradient-3);
      }

      .cls-11 {
        fill: url(#linear-gradient-5);
      }

      .cls-12 {
        fill: url(#linear-gradient-8);
      }

      .cls-13 {
        fill: url(#linear-gradient-14);
      }

      .cls-14 {
        fill: url(#linear-gradient-7);
      }

      .cls-15 {
        fill: url(#linear-gradient-9);
      }

      .cls-16 {
        fill: url(#linear-gradient-11);
      }

      .cls-17 {
        fill: url(#linear-gradient-6);
      }

      .cls-18 {
        fill: url(#linear-gradient);
      }
    </style>
    <linearGradient id="linear-gradient" x1="82.7" y1="36.39" x2="290.19" y2="36.39" gradientUnits="userSpaceOnUse">
      <stop offset="0" stop-color="#00adb1"/>
      <stop offset=".13" stop-color="#228faa"/>
      <stop offset=".28" stop-color="#4175a5"/>
      <stop offset=".43" stop-color="#5860a1"/>
      <stop offset=".6" stop-color="#69529e"/>
      <stop offset=".78" stop-color="#73499c"/>
      <stop offset="1" stop-color="#77479c"/>
    </linearGradient>
    <linearGradient id="linear-gradient-2" x1="18.37" y1="8.37" x2="102.95" y2="8.37" gradientUnits="userSpaceOnUse">
      <stop offset="0" stop-color="#103d3e"/>
      <stop offset="1" stop-color="#1a6b6f"/>
    </linearGradient>
    <linearGradient id="linear-gradient-3" x1="0" y1="25.45" x2="84.59" y2="25.45" gradientUnits="userSpaceOnUse">
      <stop offset="0" stop-color="#00adb1"/>
      <stop offset="1" stop-color="#77479c"/>
    </linearGradient>
    <linearGradient id="linear-gradient-4" x1="18.37" y1="42.53" x2="102.95" y2="42.53" xlink:href="#linear-gradient-3"/>
    <linearGradient id="linear-gradient-5" x2="102.95" xlink:href="#linear-gradient-3"/>
    <linearGradient id="linear-gradient-6" x2="102.95" xlink:href="#linear-gradient-3"/>
    <linearGradient id="linear-gradient-7" x2="102.95" xlink:href="#linear-gradient-3"/>
    <linearGradient id="linear-gradient-8" x1="93.31" y1="161.72" x2="109.24" y2="161.72" xlink:href="#linear-gradient-3"/>
    <linearGradient id="linear-gradient-9" x1="59.14" y1="161.72" x2="75.08" y2="161.72" xlink:href="#linear-gradient-3"/>
    <linearGradient id="linear-gradient-10" x1="76.22" y1="143.35" x2="92.16" y2="143.35" xlink:href="#linear-gradient-3"/>
    <linearGradient id="linear-gradient-11" x1="59.14" y1="152.53" x2="109.24" y2="152.53" xlink:href="#linear-gradient-3"/>
    <linearGradient id="linear-gradient-12" x1="59.14" y1="152.53" x2="109.24" y2="152.53" xlink:href="#linear-gradient-3"/>
    <linearGradient id="linear-gradient-13" x1="59.14" y1="152.53" x2="109.24" y2="152.53" xlink:href="#linear-gradient-3"/>
    <linearGradient id="linear-gradient-14" x1="157.67" y1="252.83" x2="270.05" y2="25.12" gradientUnits="userSpaceOnUse">
      <stop offset="0" stop-color="#77479c"/>
      <stop offset="1" stop-color="#00adb1"/>
    </linearGradient>
    <linearGradient id="linear-gradient-15" x1="185.71" y1="232.95" x2="185.71" y2="21.51" gradientUnits="userSpaceOnUse">
      <stop offset="0" stop-color="#77479c"/>
      <stop offset=".33" stop-color="#4471a4"/>
      <stop offset=".62" stop-color="#1f92ab"/>
      <stop offset=".85" stop-color="#08a5af"/>
      <stop offset="1" stop-color="#00adb1"/>
    </linearGradient>
  </defs>
  <g>
    <g>
      <g>
        <path class="cls-6" d="M365.32,128.1V56.32h27.34c22.15,0,36.03,13.46,36.03,35.89s-13.88,35.89-35.75,35.89h-27.62ZM392.24,111.56c10.65,0,16.82-4.35,16.82-19.35s-6.17-19.35-17.38-19.35h-6.87v38.69h7.43Z"/>
        <path class="cls-6" d="M440.39,74.27h19.35v53.83h-19.35v-53.83ZM440.53,59.83c0-4.87,4.28-8.83,9.53-8.83s9.53,3.96,9.53,8.83-4.28,8.83-9.53,8.83-9.53-3.96-9.53-8.83Z"/>
        <path class="cls-6" d="M471.59,131.61h18.64c.56,2.87,3.82,4.21,8.27,4.21,5.01,0,8.69-2.07,8.69-7.85v-9.11h-.56c-2.1,5.47-7.85,8.55-15.14,8.55-11.5,0-21.17-7.57-21.17-26.22s10.37-27.62,21.03-27.62c7.99,0,13.04,4.63,15.14,10.09h.42v-9.39h19.35v53.69c0,13.11-11.29,20.89-28.32,20.89s-25.62-7.43-26.36-17.24ZM507.2,101.18c0-7.99-3.22-12.76-8.55-12.76s-8.41,4.77-8.41,12.76,3.09,12.48,8.41,12.48,8.55-4.63,8.55-12.48Z"/>
        <path class="cls-6" d="M538.53,74.27h19.35v53.83h-19.35v-53.83ZM538.67,59.83c0-4.87,4.28-8.83,9.53-8.83s9.53,3.96,9.53,8.83-4.28,8.83-9.53,8.83-9.53-3.96-9.53-8.83Z"/>
        <path class="cls-6" d="M602.26,88.29h-9.25v22.5c0,2.24,1.12,3.37,3.64,3.37,1.16,0,3.05-.39,3.79-.56l2.8,13.6c-1.75.53-5.01,1.44-9.39,1.68-13.35.74-20.33-4.98-20.19-16.26v-24.32h-6.87v-14.02h6.87v-12.9h19.35v12.9h9.25v14.02Z"/>
        <path class="cls-6" d="M610.04,113.24c0-11.81,8.66-16.3,19.77-17.1,9.04-.66,12.48-1.65,12.48-4.77v-.14c0-2.8-2.38-4.35-5.75-4.35-3.68,0-6.13,1.58-6.59,4.91h-17.8c.67-9.81,8.59-18.22,24.67-18.22s24.81,7.71,24.81,17.66v36.87h-18.08v-7.57h-.42c-3.26,6.03-8.55,8.41-15.56,8.41-10.3,0-17.52-4.98-17.52-15.7ZM642.43,109.03v-4.49c-2.03.84-4.63,1.47-7.71,1.96-4.49.7-6.45,2.84-6.45,5.61,0,3.02,2.31,4.63,5.61,4.63,4.38,0,8.55-2.8,8.55-7.71Z"/>
        <path class="cls-6" d="M692.69,128.1h-19.35V56.32h19.35v71.78Z"/>
        <path class="cls-6" d="M755.79,71.32c-6.03,0-8.66,2.31-8.69,5.47-.18,3.43,2.87,5.43,9.67,6.87l5.89,1.26c15.84,3.4,22.36,11.08,22.43,22.01-.07,14.16-10.97,22.01-29.16,22.01s-30.91-8.06-30.98-26.08h18.51c.32,6.59,4.73,10.09,12.2,10.09,6.24,0,9.46-2.49,9.53-6.03-.07-3.26-2.8-5.26-10.79-7.01l-7.15-1.54c-12.72-2.73-20.5-8.97-20.47-20.19-.11-13.67,11.95-22.85,29.02-22.85s28.25,9.32,28.32,23.41h-18.65c-.39-4.66-3.36-7.43-9.67-7.43Z"/>
        <path class="cls-6" d="M793.29,101.32c0-16.54,10.37-27.76,27.9-27.76s27.9,11.22,27.9,27.76-10.37,27.76-27.9,27.76-27.9-11.22-27.9-27.76ZM829.32,101.18c0-8.45-3.08-13.6-7.99-13.6-5.19,0-8.27,5.15-8.27,13.6s3.08,13.6,8.27,13.6c4.91,0,7.99-5.15,7.99-13.6Z"/>
        <path class="cls-6" d="M878.74,128.1h-19.35V56.32h19.35v71.78Z"/>
        <path class="cls-6" d="M925.92,74.27h19.35v53.83h-18.37v-10.23h-.56c-2.35,6.87-8.52,10.93-16.54,10.93-11.32,0-18.75-8.41-18.79-20.19v-34.35h19.35v30.28c.04,5.33,2.84,8.55,7.71,8.55s7.89-3.22,7.85-8.55v-30.28Z"/>
        <path class="cls-6" d="M989.64,88.29h-9.25v22.5c0,2.24,1.12,3.37,3.65,3.37,1.16,0,3.05-.39,3.78-.56l2.8,13.6c-1.75.53-5.01,1.44-9.39,1.68-13.35.74-20.33-4.98-20.19-16.26v-24.32h-6.87v-14.02h6.87v-12.9h19.35v12.9h9.25v14.02Z"/>
        <path class="cls-6" d="M999.95,74.27h19.35v53.83h-19.35v-53.83ZM1000.09,59.83c0-4.87,4.28-8.83,9.53-8.83s9.53,3.96,9.53,8.83-4.28,8.83-9.53,8.83-9.53-3.96-9.53-8.83Z"/>
        <path class="cls-6" d="M1029.6,101.32c0-16.54,10.37-27.76,27.9-27.76s27.9,11.22,27.9,27.76-10.37,27.76-27.9,27.76-27.9-11.22-27.9-27.76ZM1065.63,101.18c0-8.45-3.08-13.6-7.99-13.6-5.19,0-8.27,5.15-8.27,13.6s3.08,13.6,8.27,13.6c4.91,0,7.99-5.15,7.99-13.6Z"/>
        <path class="cls-6" d="M1115.05,128.1h-19.35v-53.83h18.37v10.23h.56c2.35-6.8,8.62-10.93,16.54-10.93,11.43,0,18.82,8.48,18.79,20.19v34.35h-19.35v-30.28c.03-5.33-2.84-8.55-7.71-8.55s-7.82,3.22-7.85,8.55v30.28Z"/>
        <path class="cls-6" d="M1193.35,91.79c-.28-3.29-3.47-5.33-7.29-5.33-3.33,0-6.1,1.26-6.03,3.5-.07,1.58,1.09,3.05,5.19,3.79l10.93,1.96c11.01,2,16.33,6.62,16.4,14.58-.07,11.53-11.04,18.79-25.94,18.79-16.47,0-26.01-7.33-27.06-18.37h19.21c.53,3.43,3.61,5.33,7.99,5.33,3.54,0,6.1-1.26,6.17-3.51-.07-2.03-1.96-3.15-6.17-3.93l-9.53-1.68c-10.97-1.93-16.47-7.36-16.4-15.84-.07-11.22,9.43-17.52,24.81-17.52s25.02,6.83,25.52,18.22h-17.8Z"/>
        <path class="cls-6" d="M365.32,253.09v-71.78h27.34c22.15,0,36.03,13.46,36.03,35.89s-13.88,35.89-35.75,35.89h-27.62ZM392.24,236.54c10.65,0,16.82-4.35,16.82-19.35s-6.17-19.35-17.38-19.35h-6.87v38.69h7.43Z"/>
        <path class="cls-6" d="M440.39,199.25h19.35v53.83h-19.35v-53.83ZM440.53,184.81c0-4.87,4.28-8.83,9.53-8.83s9.53,3.96,9.53,8.83-4.28,8.83-9.53,8.83-9.53-3.96-9.53-8.83Z"/>
        <path class="cls-6" d="M472.01,199.25h18.37v10.23h.56c2.24-6.73,7.96-10.93,15.42-10.93s13.6,4.35,14.72,10.93h.56c1.82-6.59,8.27-10.93,16.26-10.93,10.3,0,17.38,7.18,17.38,18.22v36.31h-19.35v-31.4c0-4.7-2.59-7.57-6.59-7.57s-6.45,2.87-6.45,7.57v31.4h-18.5v-31.4c0-4.7-2.59-7.57-6.59-7.57s-6.45,2.87-6.45,7.57v31.4h-19.35v-53.83Z"/>
        <path class="cls-6" d="M565.3,226.31c0-16.68,10.65-27.76,27.34-27.76s26.78,10.48,26.78,27.62v4.49h-35.05v.84c0,5.19,3.37,8.97,9.11,8.97,3.96,0,7.15-1.72,8.27-4.77h17.66c-1.82,11.22-11.43,18.37-26.36,18.37-17.24,0-27.76-10.34-27.76-27.76ZM601.61,220c-.1-4.63-3.75-7.85-8.55-7.85s-8.59,3.19-8.69,7.85h17.24Z"/>
        <path class="cls-6" d="M649.07,253.09h-19.35v-53.83h18.36v10.23h.56c2.35-6.8,8.62-10.93,16.54-10.93,11.43,0,18.82,8.48,18.79,20.19v34.35h-19.35v-30.28c.04-5.33-2.84-8.55-7.71-8.55s-7.82,3.22-7.85,8.55v30.28Z"/>
        <path class="cls-6" d="M727.37,216.78c-.28-3.29-3.47-5.33-7.29-5.33-3.33,0-6.1,1.26-6.03,3.5-.07,1.58,1.09,3.05,5.19,3.79l10.93,1.96c11,2,16.33,6.62,16.4,14.58-.07,11.53-11.04,18.79-25.94,18.79-16.47,0-26-7.33-27.06-18.37h19.21c.53,3.43,3.61,5.33,7.99,5.33,3.54,0,6.1-1.26,6.17-3.51-.07-2.03-1.96-3.15-6.17-3.93l-9.53-1.68c-10.97-1.93-16.47-7.36-16.4-15.84-.07-11.22,9.43-17.52,24.81-17.52s25.02,6.83,25.51,18.22h-17.8Z"/>
        <path class="cls-6" d="M756.46,199.25h19.35v53.83h-19.35v-53.83ZM756.6,184.81c0-4.87,4.28-8.83,9.53-8.83s9.53,3.96,9.53,8.83-4.28,8.83-9.53,8.83-9.53-3.96-9.53-8.83Z"/>
        <path class="cls-6" d="M786.11,226.31c0-16.54,10.37-27.76,27.9-27.76s27.9,11.22,27.9,27.76-10.37,27.76-27.9,27.76-27.9-11.22-27.9-27.76ZM822.14,226.17c0-8.45-3.08-13.6-7.99-13.6-5.19,0-8.27,5.15-8.27,13.6s3.08,13.6,8.27,13.6c4.91,0,7.99-5.15,7.99-13.6Z"/>
        <path class="cls-6" d="M871.56,253.09h-19.35v-53.83h18.37v10.23h.56c2.35-6.8,8.62-10.93,16.54-10.93,11.43,0,18.82,8.48,18.79,20.19v34.35h-19.35v-30.28c.04-5.33-2.84-8.55-7.71-8.55s-7.81,3.22-7.85,8.55v30.28Z"/>
        <path class="cls-6" d="M949.86,216.78c-.28-3.29-3.47-5.33-7.29-5.33-3.33,0-6.1,1.26-6.03,3.5-.07,1.58,1.09,3.05,5.19,3.79l10.94,1.96c11,2,16.33,6.62,16.4,14.58-.07,11.53-11.04,18.79-25.94,18.79-16.47,0-26.01-7.33-27.06-18.37h19.21c.52,3.43,3.61,5.33,7.99,5.33,3.54,0,6.1-1.26,6.17-3.51-.07-2.03-1.96-3.15-6.17-3.93l-9.53-1.68c-10.97-1.93-16.47-7.36-16.4-15.84-.07-11.22,9.43-17.52,24.81-17.52s25.03,6.83,25.52,18.22h-17.8Z"/>
      </g>
      <g>
        <path class="cls-7" d="M365.32,128.1V56.32h27.34c22.15,0,36.03,13.46,36.03,35.89s-13.88,35.89-35.75,35.89h-27.62ZM392.24,111.56c10.65,0,16.82-4.35,16.82-19.35s-6.17-19.35-17.38-19.35h-6.87v38.69h7.43Z"/>
        <path class="cls-7" d="M440.39,74.27h19.35v53.83h-19.35v-53.83ZM440.53,59.83c0-4.87,4.28-8.83,9.53-8.83s9.53,3.96,9.53,8.83-4.28,8.83-9.53,8.83-9.53-3.96-9.53-8.83Z"/>
        <path class="cls-7" d="M471.59,131.61h18.64c.56,2.87,3.82,4.21,8.27,4.21,5.01,0,8.69-2.07,8.69-7.85v-9.11h-.56c-2.1,5.47-7.85,8.55-15.14,8.55-11.5,0-21.17-7.57-21.17-26.22s10.37-27.62,21.03-27.62c7.99,0,13.04,4.63,15.14,10.09h.42v-9.39h19.35v53.69c0,13.11-11.29,20.89-28.32,20.89s-25.62-7.43-26.36-17.24ZM507.2,101.18c0-7.99-3.22-12.76-8.55-12.76s-8.41,4.77-8.41,12.76,3.09,12.48,8.41,12.48,8.55-4.63,8.55-12.48Z"/>
        <path class="cls-7" d="M538.53,74.27h19.35v53.83h-19.35v-53.83ZM538.67,59.83c0-4.87,4.28-8.83,9.53-8.83s9.53,3.96,9.53,8.83-4.28,8.83-9.53,8.83-9.53-3.96-9.53-8.83Z"/>
        <path class="cls-7" d="M602.26,88.29h-9.25v22.5c0,2.24,1.12,3.37,3.64,3.37,1.16,0,3.05-.39,3.79-.56l2.8,13.6c-1.75.53-5.01,1.44-9.39,1.68-13.35.74-20.33-4.98-20.19-16.26v-24.32h-6.87v-14.02h6.87v-12.9h19.35v12.9h9.25v14.02Z"/>
        <path class="cls-7" d="M610.04,113.24c0-11.81,8.66-16.3,19.77-17.1,9.04-.66,12.48-1.65,12.48-4.77v-.14c0-2.8-2.38-4.35-5.75-4.35-3.68,0-6.13,1.58-6.59,4.91h-17.8c.67-9.81,8.59-18.22,24.67-18.22s24.81,7.71,24.81,17.66v36.87h-18.08v-7.57h-.42c-3.26,6.03-8.55,8.41-15.56,8.41-10.3,0-17.52-4.98-17.52-15.7ZM642.43,109.03v-4.49c-2.03.84-4.63,1.47-7.71,1.96-4.49.7-6.45,2.84-6.45,5.61,0,3.02,2.31,4.63,5.61,4.63,4.38,0,8.55-2.8,8.55-7.71Z"/>
        <path class="cls-7" d="M692.69,128.1h-19.35V56.32h19.35v71.78Z"/>
        <path class="cls-7" d="M755.79,71.32c-6.03,0-8.66,2.31-8.69,5.47-.18,3.43,2.87,5.43,9.67,6.87l5.89,1.26c15.84,3.4,22.36,11.08,22.43,22.01-.07,14.16-10.97,22.01-29.16,22.01s-30.91-8.06-30.98-26.08h18.51c.32,6.59,4.73,10.09,12.2,10.09,6.24,0,9.46-2.49,9.53-6.03-.07-3.26-2.8-5.26-10.79-7.01l-7.15-1.54c-12.72-2.73-20.5-8.97-20.47-20.19-.11-13.67,11.95-22.85,29.02-22.85s28.25,9.32,28.32,23.41h-18.65c-.39-4.66-3.36-7.43-9.67-7.43Z"/>
        <path class="cls-7" d="M793.29,101.32c0-16.54,10.37-27.76,27.9-27.76s27.9,11.22,27.9,27.76-10.37,27.76-27.9,27.76-27.9-11.22-27.9-27.76ZM829.32,101.18c0-8.45-3.08-13.6-7.99-13.6-5.19,0-8.27,5.15-8.27,13.6s3.08,13.6,8.27,13.6c4.91,0,7.99-5.15,7.99-13.6Z"/>
        <path class="cls-7" d="M878.74,128.1h-19.35V56.32h19.35v71.78Z"/>
        <path class="cls-7" d="M925.92,74.27h19.35v53.83h-18.37v-10.23h-.56c-2.35,6.87-8.52,10.93-16.54,10.93-11.32,0-18.75-8.41-18.79-20.19v-34.35h19.35v30.28c.04,5.33,2.84,8.55,7.71,8.55s7.89-3.22,7.85-8.55v-30.28Z"/>
        <path class="cls-7" d="M989.64,88.29h-9.25v22.5c0,2.24,1.12,3.37,3.65,3.37,1.16,0,3.05-.39,3.78-.56l2.8,13.6c-1.75.53-5.01,1.44-9.39,1.68-13.35.74-20.33-4.98-20.19-16.26v-24.32h-6.87v-14.02h6.87v-12.9h19.35v12.9h9.25v14.02Z"/>
        <path class="cls-7" d="M999.95,74.27h19.35v53.83h-19.35v-53.83ZM1000.09,59.83c0-4.87,4.28-8.83,9.53-8.83s9.53,3.96,9.53,8.83-4.28,8.83-9.53,8.83-9.53-3.96-9.53-8.83Z"/>
        <path class="cls-7" d="M1029.6,101.32c0-16.54,10.37-27.76,27.9-27.76s27.9,11.22,27.9,27.76-10.37,27.76-27.9,27.76-27.9-11.22-27.9-27.76ZM1065.63,101.18c0-8.45-3.08-13.6-7.99-13.6-5.19,0-8.27,5.15-8.27,13.6s3.08,13.6,8.27,13.6c4.91,0,7.99-5.15,7.99-13.6Z"/>
        <path class="cls-7" d="M1115.05,128.1h-19.35v-53.83h18.37v10.23h.56c2.35-6.8,8.62-10.93,16.54-10.93,11.43,0,18.82,8.48,18.79,20.19v34.35h-19.35v-30.28c.03-5.33-2.84-8.55-7.71-8.55s-7.82,3.22-7.85,8.55v30.28Z"/>
        <path class="cls-7" d="M1193.35,91.79c-.28-3.29-3.47-5.33-7.29-5.33-3.33,0-6.1,1.26-6.03,3.5-.07,1.58,1.09,3.05,5.19,3.79l10.93,1.96c11.01,2,16.33,6.62,16.4,14.58-.07,11.53-11.04,18.79-25.94,18.79-16.47,0-26.01-7.33-27.06-18.37h19.21c.53,3.43,3.61,5.33,7.99,5.33,3.54,0,6.1-1.26,6.17-3.51-.07-2.03-1.96-3.15-6.17-3.93l-9.53-1.68c-10.97-1.93-16.47-7.36-16.4-15.84-.07-11.22,9.43-17.52,24.81-17.52s25.02,6.83,25.52,18.22h-17.8Z"/>
        <path class="cls-7" d="M365.32,253.09v-71.78h27.34c22.15,0,36.03,13.46,36.03,35.89s-13.88,35.89-35.75,35.89h-27.62ZM392.24,236.54c10.65,0,16.82-4.35,16.82-19.35s-6.17-19.35-17.38-19.35h-6.87v38.69h7.43Z"/>
        <path class="cls-7" d="M440.39,199.25h19.35v53.83h-19.35v-53.83ZM440.53,184.81c0-4.87,4.28-8.83,9.53-8.83s9.53,3.96,9.53,8.83-4.28,8.83-9.53,8.83-9.53-3.96-9.53-8.83Z"/>
        <path class="cls-7" d="M472.01,199.25h18.37v10.23h.56c2.24-6.73,7.96-10.93,15.42-10.93s13.6,4.35,14.72,10.93h.56c1.82-6.59,8.27-10.93,16.26-10.93,10.3,0,17.38,7.18,17.38,18.22v36.31h-19.35v-31.4c0-4.7-2.59-7.57-6.59-7.57s-6.45,2.87-6.45,7.57v31.4h-18.5v-31.4c0-4.7-2.59-7.57-6.59-7.57s-6.45,2.87-6.45,7.57v31.4h-19.35v-53.83Z"/>
        <path class="cls-7" d="M565.3,226.31c0-16.68,10.65-27.76,27.34-27.76s26.78,10.48,26.78,27.62v4.49h-35.05v.84c0,5.19,3.37,8.97,9.11,8.97,3.96,0,7.15-1.72,8.27-4.77h17.66c-1.82,11.22-11.43,18.37-26.36,18.37-17.24,0-27.76-10.34-27.76-27.76ZM601.61,220c-.1-4.63-3.75-7.85-8.55-7.85s-8.59,3.19-8.69,7.85h17.24Z"/>
        <path class="cls-7" d="M649.07,253.09h-19.35v-53.83h18.36v10.23h.56c2.35-6.8,8.62-10.93,16.54-10.93,11.43,0,18.82,8.48,18.79,20.19v34.35h-19.35v-30.28c.04-5.33-2.84-8.55-7.71-8.55s-7.82,3.22-7.85,8.55v30.28Z"/>
        <path class="cls-7" d="M727.37,216.78c-.28-3.29-3.47-5.33-7.29-5.33-3.33,0-6.1,1.26-6.03,3.5-.07,1.58,1.09,3.05,5.19,3.79l10.93,1.96c11,2,16.33,6.62,16.4,14.58-.07,11.53-11.04,18.79-25.94,18.79-16.47,0-26-7.33-27.06-18.37h19.21c.53,3.43,3.61,5.33,7.99,5.33,3.54,0,6.1-1.26,6.17-3.51-.07-2.03-1.96-3.15-6.17-3.93l-9.53-1.68c-10.97-1.93-16.47-7.36-16.4-15.84-.07-11.22,9.43-17.52,24.81-17.52s25.02,6.83,25.51,18.22h-17.8Z"/>
        <path class="cls-7" d="M756.46,199.25h19.35v53.83h-19.35v-53.83ZM756.6,184.81c0-4.87,4.28-8.83,9.53-8.83s9.53,3.96,9.53,8.83-4.28,8.83-9.53,8.83-9.53-3.96-9.53-8.83Z"/>
        <path class="cls-7" d="M786.11,226.31c0-16.54,10.37-27.76,27.9-27.76s27.9,11.22,27.9,27.76-10.37,27.76-27.9,27.76-27.9-11.22-27.9-27.76ZM822.14,226.17c0-8.45-3.08-13.6-7.99-13.6-5.19,0-8.27,5.15-8.27,13.6s3.08,13.6,8.27,13.6c4.91,0,7.99-5.15,7.99-13.6Z"/>
        <path class="cls-7" d="M871.56,253.09h-19.35v-53.83h18.37v10.23h.56c2.35-6.8,8.62-10.93,16.54-10.93,11.43,0,18.82,8.48,18.79,20.19v34.35h-19.35v-30.28c.04-5.33-2.84-8.55-7.71-8.55s-7.81,3.22-7.85,8.55v30.28Z"/>
        <path class="cls-7" d="M949.86,216.78c-.28-3.29-3.47-5.33-7.29-5.33-3.33,0-6.1,1.26-6.03,3.5-.07,1.58,1.09,3.05,5.19,3.79l10.94,1.96c11,2,16.33,6.62,16.4,14.58-.07,11.53-11.04,18.79-25.94,18.79-16.47,0-26.01-7.33-27.06-18.37h19.21c.52,3.43,3.61,5.33,7.99,5.33,3.54,0,6.1-1.26,6.17-3.51-.07-2.03-1.96-3.15-6.17-3.93l-9.53-1.68c-10.97-1.93-16.47-7.36-16.4-15.84-.07-11.22,9.43-17.52,24.81-17.52s25.03,6.83,25.52,18.22h-17.8Z"/>
      </g>
    </g>
    <g>
      <g>
        <path class="cls-8" d="M365.32,128.1V56.32h27.34c22.15,0,36.03,13.46,36.03,35.89s-13.88,35.89-35.75,35.89h-27.62ZM392.24,111.56c10.65,0,16.82-4.35,16.82-19.35s-6.17-19.35-17.38-19.35h-6.87v38.69h7.43Z"/>
        <path class="cls-8" d="M440.39,74.27h19.35v53.83h-19.35v-53.83ZM440.53,59.83c0-4.87,4.28-8.83,9.53-8.83s9.53,3.96,9.53,8.83-4.28,8.83-9.53,8.83-9.53-3.96-9.53-8.83Z"/>
        <path class="cls-8" d="M471.59,131.61h18.64c.56,2.87,3.82,4.21,8.27,4.21,5.01,0,8.69-2.07,8.69-7.85v-9.11h-.56c-2.1,5.47-7.85,8.55-15.14,8.55-11.5,0-21.17-7.57-21.17-26.22s10.37-27.62,21.03-27.62c7.99,0,13.04,4.63,15.14,10.09h.42v-9.39h19.35v53.69c0,13.11-11.29,20.89-28.32,20.89s-25.62-7.43-26.36-17.24ZM507.2,101.18c0-7.99-3.22-12.76-8.55-12.76s-8.41,4.77-8.41,12.76,3.09,12.48,8.41,12.48,8.55-4.63,8.55-12.48Z"/>
        <path class="cls-8" d="M538.53,74.27h19.35v53.83h-19.35v-53.83ZM538.67,59.83c0-4.87,4.28-8.83,9.53-8.83s9.53,3.96,9.53,8.83-4.28,8.83-9.53,8.83-9.53-3.96-9.53-8.83Z"/>
        <path class="cls-8" d="M602.26,88.29h-9.25v22.5c0,2.24,1.12,3.37,3.64,3.37,1.16,0,3.05-.39,3.79-.56l2.8,13.6c-1.75.53-5.01,1.44-9.39,1.68-13.35.74-20.33-4.98-20.19-16.26v-24.32h-6.87v-14.02h6.87v-12.9h19.35v12.9h9.25v14.02Z"/>
        <path class="cls-8" d="M610.04,113.24c0-11.81,8.66-16.3,19.77-17.1,9.04-.66,12.48-1.65,12.48-4.77v-.14c0-2.8-2.38-4.35-5.75-4.35-3.68,0-6.13,1.58-6.59,4.91h-17.8c.67-9.81,8.59-18.22,24.67-18.22s24.81,7.71,24.81,17.66v36.87h-18.08v-7.57h-.42c-3.26,6.03-8.55,8.41-15.56,8.41-10.3,0-17.52-4.98-17.52-15.7ZM642.43,109.03v-4.49c-2.03.84-4.63,1.47-7.71,1.96-4.49.7-6.45,2.84-6.45,5.61,0,3.02,2.31,4.63,5.61,4.63,4.38,0,8.55-2.8,8.55-7.71Z"/>
        <path class="cls-8" d="M692.69,128.1h-19.35V56.32h19.35v71.78Z"/>
        <path class="cls-8" d="M755.79,71.32c-6.03,0-8.66,2.31-8.69,5.47-.18,3.43,2.87,5.43,9.67,6.87l5.89,1.26c15.84,3.4,22.36,11.08,22.43,22.01-.07,14.16-10.97,22.01-29.16,22.01s-30.91-8.06-30.98-26.08h18.51c.32,6.59,4.73,10.09,12.2,10.09,6.24,0,9.46-2.49,9.53-6.03-.07-3.26-2.8-5.26-10.79-7.01l-7.15-1.54c-12.72-2.73-20.5-8.97-20.47-20.19-.11-13.67,11.95-22.85,29.02-22.85s28.25,9.32,28.32,23.41h-18.65c-.39-4.66-3.36-7.43-9.67-7.43Z"/>
        <path class="cls-8" d="M793.29,101.32c0-16.54,10.37-27.76,27.9-27.76s27.9,11.22,27.9,27.76-10.37,27.76-27.9,27.76-27.9-11.22-27.9-27.76ZM829.32,101.18c0-8.45-3.08-13.6-7.99-13.6-5.19,0-8.27,5.15-8.27,13.6s3.08,13.6,8.27,13.6c4.91,0,7.99-5.15,7.99-13.6Z"/>
        <path class="cls-8" d="M878.74,128.1h-19.35V56.32h19.35v71.78Z"/>
        <path class="cls-8" d="M925.92,74.27h19.35v53.83h-18.37v-10.23h-.56c-2.35,6.87-8.52,10.93-16.54,10.93-11.32,0-18.75-8.41-18.79-20.19v-34.35h19.35v30.28c.04,5.33,2.84,8.55,7.71,8.55s7.89-3.22,7.85-8.55v-30.28Z"/>
        <path class="cls-8" d="M989.64,88.29h-9.25v22.5c0,2.24,1.12,3.37,3.65,3.37,1.16,0,3.05-.39,3.78-.56l2.8,13.6c-1.75.53-5.01,1.44-9.39,1.68-13.35.74-20.33-4.98-20.19-16.26v-24.32h-6.87v-14.02h6.87v-12.9h19.35v12.9h9.25v14.02Z"/>
        <path class="cls-8" d="M999.95,74.27h19.35v53.83h-19.35v-53.83ZM1000.09,59.83c0-4.87,4.28-8.83,9.53-8.83s9.53,3.96,9.53,8.83-4.28,8.83-9.53,8.83-9.53-3.96-9.53-8.83Z"/>
        <path class="cls-8" d="M1029.6,101.32c0-16.54,10.37-27.76,27.9-27.76s27.9,11.22,27.9,27.76-10.37,27.76-27.9,27.76-27.9-11.22-27.9-27.76ZM1065.63,101.18c0-8.45-3.08-13.6-7.99-13.6-5.19,0-8.27,5.15-8.27,13.6s3.08,13.6,8.27,13.6c4.91,0,7.99-5.15,7.99-13.6Z"/>
        <path class="cls-8" d="M1115.05,128.1h-19.35v-53.83h18.37v10.23h.56c2.35-6.8,8.62-10.93,16.54-10.93,11.43,0,18.82,8.48,18.79,20.19v34.35h-19.35v-30.28c.03-5.33-2.84-8.55-7.71-8.55s-7.82,3.22-7.85,8.55v30.28Z"/>
        <path class="cls-8" d="M1193.35,91.79c-.28-3.29-3.47-5.33-7.29-5.33-3.33,0-6.1,1.26-6.03,3.5-.07,1.58,1.09,3.05,5.19,3.79l10.93,1.96c11.01,2,16.33,6.62,16.4,14.58-.07,11.53-11.04,18.79-25.94,18.79-16.47,0-26.01-7.33-27.06-18.37h19.21c.53,3.43,3.61,5.33,7.99,5.33,3.54,0,6.1-1.26,6.17-3.51-.07-2.03-1.96-3.15-6.17-3.93l-9.53-1.68c-10.97-1.93-16.47-7.36-16.4-15.84-.07-11.22,9.43-17.52,24.81-17.52s25.02,6.83,25.52,18.22h-17.8Z"/>
        <path class="cls-8" d="M365.32,253.09v-71.78h27.34c22.15,0,36.03,13.46,36.03,35.89s-13.88,35.89-35.75,35.89h-27.62ZM392.24,236.54c10.65,0,16.82-4.35,16.82-19.35s-6.17-19.35-17.38-19.35h-6.87v38.69h7.43Z"/>
        <path class="cls-8" d="M440.39,199.25h19.35v53.83h-19.35v-53.83ZM440.53,184.81c0-4.87,4.28-8.83,9.53-8.83s9.53,3.96,9.53,8.83-4.28,8.83-9.53,8.83-9.53-3.96-9.53-8.83Z"/>
        <path class="cls-8" d="M472.01,199.25h18.37v10.23h.56c2.24-6.73,7.96-10.93,15.42-10.93s13.6,4.35,14.72,10.93h.56c1.82-6.59,8.27-10.93,16.26-10.93,10.3,0,17.38,7.18,17.38,18.22v36.31h-19.35v-31.4c0-4.7-2.59-7.57-6.59-7.57s-6.45,2.87-6.45,7.57v31.4h-18.5v-31.4c0-4.7-2.59-7.57-6.59-7.57s-6.45,2.87-6.45,7.57v31.4h-19.35v-53.83Z"/>
        <path class="cls-8" d="M565.3,226.31c0-16.68,10.65-27.76,27.34-27.76s26.78,10.48,26.78,27.62v4.49h-35.05v.84c0,5.19,3.37,8.97,9.11,8.97,3.96,0,7.15-1.72,8.27-4.77h17.66c-1.82,11.22-11.43,18.37-26.36,18.37-17.24,0-27.76-10.34-27.76-27.76ZM601.61,220c-.1-4.63-3.75-7.85-8.55-7.85s-8.59,3.19-8.69,7.85h17.24Z"/>
        <path class="cls-8" d="M649.07,253.09h-19.35v-53.83h18.36v10.23h.56c2.35-6.8,8.62-10.93,16.54-10.93,11.43,0,18.82,8.48,18.79,20.19v34.35h-19.35v-30.28c.04-5.33-2.84-8.55-7.71-8.55s-7.82,3.22-7.85,8.55v30.28Z"/>
        <path class="cls-8" d="M727.37,216.78c-.28-3.29-3.47-5.33-7.29-5.33-3.33,0-6.1,1.26-6.03,3.5-.07,1.58,1.09,3.05,5.19,3.79l10.93,1.96c11,2,16.33,6.62,16.4,14.58-.07,11.53-11.04,18.79-25.94,18.79-16.47,0-26-7.33-27.06-18.37h19.21c.53,3.43,3.61,5.33,7.99,5.33,3.54,0,6.1-1.26,6.17-3.51-.07-2.03-1.96-3.15-6.17-3.93l-9.53-1.68c-10.97-1.93-16.47-7.36-16.4-15.84-.07-11.22,9.43-17.52,24.81-17.52s25.02,6.83,25.51,18.22h-17.8Z"/>
        <path class="cls-8" d="M756.46,199.25h19.35v53.83h-19.35v-53.83ZM756.6,184.81c0-4.87,4.28-8.83,9.53-8.83s9.53,3.96,9.53,8.83-4.28,8.83-9.53,8.83-9.53-3.96-9.53-8.83Z"/>
        <path class="cls-8" d="M786.11,226.31c0-16.54,10.37-27.76,27.9-27.76s27.9,11.22,27.9,27.76-10.37,27.76-27.9,27.76-27.9-11.22-27.9-27.76ZM822.14,226.17c0-8.45-3.08-13.6-7.99-13.6-5.19,0-8.27,5.15-8.27,13.6s3.08,13.6,8.27,13.6c4.91,0,7.99-5.15,7.99-13.6Z"/>
        <path class="cls-8" d="M871.56,253.09h-19.35v-53.83h18.37v10.23h.56c2.35-6.8,8.62-10.93,16.54-10.93,11.43,0,18.82,8.48,18.79,20.19v34.35h-19.35v-30.28c.04-5.33-2.84-8.55-7.71-8.55s-7.81,3.22-7.85,8.55v30.28Z"/>
        <path class="cls-8" d="M949.86,216.78c-.28-3.29-3.47-5.33-7.29-5.33-3.33,0-6.1,1.26-6.03,3.5-.07,1.58,1.09,3.05,5.19,3.79l10.94,1.96c11,2,16.33,6.62,16.4,14.58-.07,11.53-11.04,18.79-25.94,18.79-16.47,0-26.01-7.33-27.06-18.37h19.21c.52,3.43,3.61,5.33,7.99,5.33,3.54,0,6.1-1.26,6.17-3.51-.07-2.03-1.96-3.15-6.17-3.93l-9.53-1.68c-10.97-1.93-16.47-7.36-16.4-15.84-.07-11.22,9.43-17.52,24.81-17.52s25.03,6.83,25.52,18.22h-17.8Z"/>
      </g>
      <g>
        <path class="cls-8" d="M365.32,128.1V56.32h27.34c22.15,0,36.03,13.46,36.03,35.89s-13.88,35.89-35.75,35.89h-27.62ZM392.24,111.56c10.65,0,16.82-4.35,16.82-19.35s-6.17-19.35-17.38-19.35h-6.87v38.69h7.43Z"/>
        <path class="cls-8" d="M440.39,74.27h19.35v53.83h-19.35v-53.83ZM440.53,59.83c0-4.87,4.28-8.83,9.53-8.83s9.53,3.96,9.53,8.83-4.28,8.83-9.53,8.83-9.53-3.96-9.53-8.83Z"/>
        <path class="cls-8" d="M471.59,131.61h18.64c.56,2.87,3.82,4.21,8.27,4.21,5.01,0,8.69-2.07,8.69-7.85v-9.11h-.56c-2.1,5.47-7.85,8.55-15.14,8.55-11.5,0-21.17-7.57-21.17-26.22s10.37-27.62,21.03-27.62c7.99,0,13.04,4.63,15.14,10.09h.42v-9.39h19.35v53.69c0,13.11-11.29,20.89-28.32,20.89s-25.62-7.43-26.36-17.24ZM507.2,101.18c0-7.99-3.22-12.76-8.55-12.76s-8.41,4.77-8.41,12.76,3.09,12.48,8.41,12.48,8.55-4.63,8.55-12.48Z"/>
        <path class="cls-8" d="M538.53,74.27h19.35v53.83h-19.35v-53.83ZM538.67,59.83c0-4.87,4.28-8.83,9.53-8.83s9.53,3.96,9.53,8.83-4.28,8.83-9.53,8.83-9.53-3.96-9.53-8.83Z"/>
        <path class="cls-8" d="M602.26,88.29h-9.25v22.5c0,2.24,1.12,3.37,3.64,3.37,1.16,0,3.05-.39,3.79-.56l2.8,13.6c-1.75.53-5.01,1.44-9.39,1.68-13.35.74-20.33-4.98-20.19-16.26v-24.32h-6.87v-14.02h6.87v-12.9h19.35v12.9h9.25v14.02Z"/>
        <path class="cls-8" d="M610.04,113.24c0-11.81,8.66-16.3,19.77-17.1,9.04-.66,12.48-1.65,12.48-4.77v-.14c0-2.8-2.38-4.35-5.75-4.35-3.68,0-6.13,1.58-6.59,4.91h-17.8c.67-9.81,8.59-18.22,24.67-18.22s24.81,7.71,24.81,17.66v36.87h-18.08v-7.57h-.42c-3.26,6.03-8.55,8.41-15.56,8.41-10.3,0-17.52-4.98-17.52-15.7ZM642.43,109.03v-4.49c-2.03.84-4.63,1.47-7.71,1.96-4.49.7-6.45,2.84-6.45,5.61,0,3.02,2.31,4.63,5.61,4.63,4.38,0,8.55-2.8,8.55-7.71Z"/>
        <path class="cls-8" d="M692.69,128.1h-19.35V56.32h19.35v71.78Z"/>
        <path class="cls-8" d="M755.79,71.32c-6.03,0-8.66,2.31-8.69,5.47-.18,3.43,2.87,5.43,9.67,6.87l5.89,1.26c15.84,3.4,22.36,11.08,22.43,22.01-.07,14.16-10.97,22.01-29.16,22.01s-30.91-8.06-30.98-26.08h18.51c.32,6.59,4.73,10.09,12.2,10.09,6.24,0,9.46-2.49,9.53-6.03-.07-3.26-2.8-5.26-10.79-7.01l-7.15-1.54c-12.72-2.73-20.5-8.97-20.47-20.19-.11-13.67,11.95-22.85,29.02-22.85s28.25,9.32,28.32,23.41h-18.65c-.39-4.66-3.36-7.43-9.67-7.43Z"/>
        <path class="cls-8" d="M793.29,101.32c0-16.54,10.37-27.76,27.9-27.76s27.9,11.22,27.9,27.76-10.37,27.76-27.9,27.76-27.9-11.22-27.9-27.76ZM829.32,101.18c0-8.45-3.08-13.6-7.99-13.6-5.19,0-8.27,5.15-8.27,13.6s3.08,13.6,8.27,13.6c4.91,0,7.99-5.15,7.99-13.6Z"/>
        <path class="cls-8" d="M878.74,128.1h-19.35V56.32h19.35v71.78Z"/>
        <path class="cls-8" d="M925.92,74.27h19.35v53.83h-18.37v-10.23h-.56c-2.35,6.87-8.52,10.93-16.54,10.93-11.32,0-18.75-8.41-18.79-20.19v-34.35h19.35v30.28c.04,5.33,2.84,8.55,7.71,8.55s7.89-3.22,7.85-8.55v-30.28Z"/>
        <path class="cls-8" d="M989.64,88.29h-9.25v22.5c0,2.24,1.12,3.37,3.65,3.37,1.16,0,3.05-.39,3.78-.56l2.8,13.6c-1.75.53-5.01,1.44-9.39,1.68-13.35.74-20.33-4.98-20.19-16.26v-24.32h-6.87v-14.02h6.87v-12.9h19.35v12.9h9.25v14.02Z"/>
        <path class="cls-8" d="M999.95,74.27h19.35v53.83h-19.35v-53.83ZM1000.09,59.83c0-4.87,4.28-8.83,9.53-8.83s9.53,3.96,9.53,8.83-4.28,8.83-9.53,8.83-9.53-3.96-9.53-8.83Z"/>
        <path class="cls-8" d="M1029.6,101.32c0-16.54,10.37-27.76,27.9-27.76s27.9,11.22,27.9,27.76-10.37,27.76-27.9,27.76-27.9-11.22-27.9-27.76ZM1065.63,101.18c0-8.45-3.08-13.6-7.99-13.6-5.19,0-8.27,5.15-8.27,13.6s3.08,13.6,8.27,13.6c4.91,0,7.99-5.15,7.99-13.6Z"/>
        <path class="cls-8" d="M1115.05,128.1h-19.35v-53.83h18.37v10.23h.56c2.35-6.8,8.62-10.93,16.54-10.93,11.43,0,18.82,8.48,18.79,20.19v34.35h-19.35v-30.28c.03-5.33-2.84-8.55-7.71-8.55s-7.82,3.22-7.85,8.55v30.28Z"/>
        <path class="cls-8" d="M1193.35,91.79c-.28-3.29-3.47-5.33-7.29-5.33-3.33,0-6.1,1.26-6.03,3.5-.07,1.58,1.09,3.05,5.19,3.79l10.93,1.96c11.01,2,16.33,6.62,16.4,14.58-.07,11.53-11.04,18.79-25.94,18.79-16.47,0-26.01-7.33-27.06-18.37h19.21c.53,3.43,3.61,5.33,7.99,5.33,3.54,0,6.1-1.26,6.17-3.51-.07-2.03-1.96-3.15-6.17-3.93l-9.53-1.68c-10.97-1.93-16.47-7.36-16.4-15.84-.07-11.22,9.43-17.52,24.81-17.52s25.02,6.83,25.52,18.22h-17.8Z"/>
        <path class="cls-8" d="M365.32,253.09v-71.78h27.34c22.15,0,36.03,13.46,36.03,35.89s-13.88,35.89-35.75,35.89h-27.62ZM392.24,236.54c10.65,0,16.82-4.35,16.82-19.35s-6.17-19.35-17.38-19.35h-6.87v38.69h7.43Z"/>
        <path class="cls-8" d="M440.39,199.25h19.35v53.83h-19.35v-53.83ZM440.53,184.81c0-4.87,4.28-8.83,9.53-8.83s9.53,3.96,9.53,8.83-4.28,8.83-9.53,8.83-9.53-3.96-9.53-8.83Z"/>
        <path class="cls-8" d="M472.01,199.25h18.37v10.23h.56c2.24-6.73,7.96-10.93,15.42-10.93s13.6,4.35,14.72,10.93h.56c1.82-6.59,8.27-10.93,16.26-10.93,10.3,0,17.38,7.18,17.38,18.22v36.31h-19.35v-31.4c0-4.7-2.59-7.57-6.59-7.57s-6.45,2.87-6.45,7.57v31.4h-18.5v-31.4c0-4.7-2.59-7.57-6.59-7.57s-6.45,2.87-6.45,7.57v31.4h-19.35v-53.83Z"/>
        <path class="cls-8" d="M565.3,226.31c0-16.68,10.65-27.76,27.34-27.76s26.78,10.48,26.78,27.62v4.49h-35.05v.84c0,5.19,3.37,8.97,9.11,8.97,3.96,0,7.15-1.72,8.27-4.77h17.66c-1.82,11.22-11.43,18.37-26.36,18.37-17.24,0-27.76-10.34-27.76-27.76ZM601.61,220c-.1-4.63-3.75-7.85-8.55-7.85s-8.59,3.19-8.69,7.85h17.24Z"/>
        <path class="cls-8" d="M649.07,253.09h-19.35v-53.83h18.36v10.23h.56c2.35-6.8,8.62-10.93,16.54-10.93,11.43,0,18.82,8.48,18.79,20.19v34.35h-19.35v-30.28c.04-5.33-2.84-8.55-7.71-8.55s-7.82,3.22-7.85,8.55v30.28Z"/>
        <path class="cls-8" d="M727.37,216.78c-.28-3.29-3.47-5.33-7.29-5.33-3.33,0-6.1,1.26-6.03,3.5-.07,1.58,1.09,3.05,5.19,3.79l10.93,1.96c11,2,16.33,6.62,16.4,14.58-.07,11.53-11.04,18.79-25.94,18.79-16.47,0-26-7.33-27.06-18.37h19.21c.53,3.43,3.61,5.33,7.99,5.33,3.54,0,6.1-1.26,6.17-3.51-.07-2.03-1.96-3.15-6.17-3.93l-9.53-1.68c-10.97-1.93-16.47-7.36-16.4-15.84-.07-11.22,9.43-17.52,24.81-17.52s25.02,6.83,25.51,18.22h-17.8Z"/>
        <path class="cls-8" d="M756.46,199.25h19.35v53.83h-19.35v-53.83ZM756.6,184.81c0-4.87,4.28-8.83,9.53-8.83s9.53,3.96,9.53,8.83-4.28,8.83-9.53,8.83-9.53-3.96-9.53-8.83Z"/>
        <path class="cls-8" d="M786.11,226.31c0-16.54,10.37-27.76,27.9-27.76s27.9,11.22,27.9,27.76-10.37,27.76-27.9,27.76-27.9-11.22-27.9-27.76ZM822.14,226.17c0-8.45-3.08-13.6-7.99-13.6-5.19,0-8.27,5.15-8.27,13.6s3.08,13.6,8.27,13.6c4.91,0,7.99-5.15,7.99-13.6Z"/>
        <path class="cls-8" d="M871.56,253.09h-19.35v-53.83h18.37v10.23h.56c2.35-6.8,8.62-10.93,16.54-10.93,11.43,0,18.82,8.48,18.79,20.19v34.35h-19.35v-30.28c.04-5.33-2.84-8.55-7.71-8.55s-7.81,3.22-7.85,8.55v30.28Z"/>
        <path class="cls-8" d="M949.86,216.78c-.28-3.29-3.47-5.33-7.29-5.33-3.33,0-6.1,1.26-6.03,3.5-.07,1.58,1.09,3.05,5.19,3.79l10.94,1.96c11,2,16.33,6.62,16.4,14.58-.07,11.53-11.04,18.79-25.94,18.79-16.47,0-26.01-7.33-27.06-18.37h19.21c.52,3.43,3.61,5.33,7.99,5.33,3.54,0,6.1-1.26,6.17-3.51-.07-2.03-1.96-3.15-6.17-3.93l-9.53-1.68c-10.97-1.93-16.47-7.36-16.4-15.84-.07-11.22,9.43-17.52,24.81-17.52s25.03,6.83,25.52,18.22h-17.8Z"/>
      </g>
      <g>
        <path class="cls-8" d="M365.32,128.1V56.32h27.34c22.15,0,36.03,13.46,36.03,35.89s-13.88,35.89-35.75,35.89h-27.62ZM392.24,111.56c10.65,0,16.82-4.35,16.82-19.35s-6.17-19.35-17.38-19.35h-6.87v38.69h7.43Z"/>
        <path class="cls-8" d="M440.39,74.27h19.35v53.83h-19.35v-53.83ZM440.53,59.83c0-4.87,4.28-8.83,9.53-8.83s9.53,3.96,9.53,8.83-4.28,8.83-9.53,8.83-9.53-3.96-9.53-8.83Z"/>
        <path class="cls-8" d="M471.59,131.61h18.64c.56,2.87,3.82,4.21,8.27,4.21,5.01,0,8.69-2.07,8.69-7.85v-9.11h-.56c-2.1,5.47-7.85,8.55-15.14,8.55-11.5,0-21.17-7.57-21.17-26.22s10.37-27.62,21.03-27.62c7.99,0,13.04,4.63,15.14,10.09h.42v-9.39h19.35v53.69c0,13.11-11.29,20.89-28.32,20.89s-25.62-7.43-26.36-17.24ZM507.2,101.18c0-7.99-3.22-12.76-8.55-12.76s-8.41,4.77-8.41,12.76,3.09,12.48,8.41,12.48,8.55-4.63,8.55-12.48Z"/>
        <path class="cls-8" d="M538.53,74.27h19.35v53.83h-19.35v-53.83ZM538.67,59.83c0-4.87,4.28-8.83,9.53-8.83s9.53,3.96,9.53,8.83-4.28,8.83-9.53,8.83-9.53-3.96-9.53-8.83Z"/>
        <path class="cls-8" d="M602.26,88.29h-9.25v22.5c0,2.24,1.12,3.37,3.64,3.37,1.16,0,3.05-.39,3.79-.56l2.8,13.6c-1.75.53-5.01,1.44-9.39,1.68-13.35.74-20.33-4.98-20.19-16.26v-24.32h-6.87v-14.02h6.87v-12.9h19.35v12.9h9.25v14.02Z"/>
        <path class="cls-8" d="M610.04,113.24c0-11.81,8.66-16.3,19.77-17.1,9.04-.66,12.48-1.65,12.48-4.77v-.14c0-2.8-2.38-4.35-5.75-4.35-3.68,0-6.13,1.58-6.59,4.91h-17.8c.67-9.81,8.59-18.22,24.67-18.22s24.81,7.71,24.81,17.66v36.87h-18.08v-7.57h-.42c-3.26,6.03-8.55,8.41-15.56,8.41-10.3,0-17.52-4.98-17.52-15.7ZM642.43,109.03v-4.49c-2.03.84-4.63,1.47-7.71,1.96-4.49.7-6.45,2.84-6.45,5.61,0,3.02,2.31,4.63,5.61,4.63,4.38,0,8.55-2.8,8.55-7.71Z"/>
        <path class="cls-8" d="M692.69,128.1h-19.35V56.32h19.35v71.78Z"/>
        <path class="cls-8" d="M755.79,71.32c-6.03,0-8.66,2.31-8.69,5.47-.18,3.43,2.87,5.43,9.67,6.87l5.89,1.26c15.84,3.4,22.36,11.08,22.43,22.01-.07,14.16-10.97,22.01-29.16,22.01s-30.91-8.06-30.98-26.08h18.51c.32,6.59,4.73,10.09,12.2,10.09,6.24,0,9.46-2.49,9.53-6.03-.07-3.26-2.8-5.26-10.79-7.01l-7.15-1.54c-12.72-2.73-20.5-8.97-20.47-20.19-.11-13.67,11.95-22.85,29.02-22.85s28.25,9.32,28.32,23.41h-18.65c-.39-4.66-3.36-7.43-9.67-7.43Z"/>
        <path class="cls-8" d="M793.29,101.32c0-16.54,10.37-27.76,27.9-27.76s27.9,11.22,27.9,27.76-10.37,27.76-27.9,27.76-27.9-11.22-27.9-27.76ZM829.32,101.18c0-8.45-3.08-13.6-7.99-13.6-5.19,0-8.27,5.15-8.27,13.6s3.08,13.6,8.27,13.6c4.91,0,7.99-5.15,7.99-13.6Z"/>
        <path class="cls-8" d="M878.74,128.1h-19.35V56.32h19.35v71.78Z"/>
        <path class="cls-8" d="M925.92,74.27h19.35v53.83h-18.37v-10.23h-.56c-2.35,6.87-8.52,10.93-16.54,10.93-11.32,0-18.75-8.41-18.79-20.19v-34.35h19.35v30.28c.04,5.33,2.84,8.55,7.71,8.55s7.89-3.22,7.85-8.55v-30.28Z"/>
        <path class="cls-8" d="M989.64,88.29h-9.25v22.5c0,2.24,1.12,3.37,3.65,3.37,1.16,0,3.05-.39,3.78-.56l2.8,13.6c-1.75.53-5.01,1.44-9.39,1.68-13.35.74-20.33-4.98-20.19-16.26v-24.32h-6.87v-14.02h6.87v-12.9h19.35v12.9h9.25v14.02Z"/>
        <path class="cls-8" d="M999.95,74.27h19.35v53.83h-19.35v-53.83ZM1000.09,59.83c0-4.87,4.28-8.83,9.53-8.83s9.53,3.96,9.53,8.83-4.28,8.83-9.53,8.83-9.53-3.96-9.53-8.83Z"/>
        <path class="cls-8" d="M1029.6,101.32c0-16.54,10.37-27.76,27.9-27.76s27.9,11.22,27.9,27.76-10.37,27.76-27.9,27.76-27.9-11.22-27.9-27.76ZM1065.63,101.18c0-8.45-3.08-13.6-7.99-13.6-5.19,0-8.27,5.15-8.27,13.6s3.08,13.6,8.27,13.6c4.91,0,7.99-5.15,7.99-13.6Z"/>
        <path class="cls-8" d="M1115.05,128.1h-19.35v-53.83h18.37v10.23h.56c2.35-6.8,8.62-10.93,16.54-10.93,11.43,0,18.82,8.48,18.79,20.19v34.35h-19.35v-30.28c.03-5.33-2.84-8.55-7.71-8.55s-7.82,3.22-7.85,8.55v30.28Z"/>
        <path class="cls-8" d="M1193.35,91.79c-.28-3.29-3.47-5.33-7.29-5.33-3.33,0-6.1,1.26-6.03,3.5-.07,1.58,1.09,3.05,5.19,3.79l10.93,1.96c11.01,2,16.33,6.62,16.4,14.58-.07,11.53-11.04,18.79-25.94,18.79-16.47,0-26.01-7.33-27.06-18.37h19.21c.53,3.43,3.61,5.33,7.99,5.33,3.54,0,6.1-1.26,6.17-3.51-.07-2.03-1.96-3.15-6.17-3.93l-9.53-1.68c-10.97-1.93-16.47-7.36-16.4-15.84-.07-11.22,9.43-17.52,24.81-17.52s25.02,6.83,25.52,18.22h-17.8Z"/>
        <path class="cls-8" d="M365.32,253.09v-71.78h27.34c22.15,0,36.03,13.46,36.03,35.89s-13.88,35.89-35.75,35.89h-27.62ZM392.24,236.54c10.65,0,16.82-4.35,16.82-19.35s-6.17-19.35-17.38-19.35h-6.87v38.69h7.43Z"/>
        <path class="cls-8" d="M440.39,199.25h19.35v53.83h-19.35v-53.83ZM440.53,184.81c0-4.87,4.28-8.83,9.53-8.83s9.53,3.96,9.53,8.83-4.28,8.83-9.53,8.83-9.53-3.96-9.53-8.83Z"/>
        <path class="cls-8" d="M472.01,199.25h18.37v10.23h.56c2.24-6.73,7.96-10.93,15.42-10.93s13.6,4.35,14.72,10.93h.56c1.82-6.59,8.27-10.93,16.26-10.93,10.3,0,17.38,7.18,17.38,18.22v36.31h-19.35v-31.4c0-4.7-2.59-7.57-6.59-7.57s-6.45,2.87-6.45,7.57v31.4h-18.5v-31.4c0-4.7-2.59-7.57-6.59-7.57s-6.45,2.87-6.45,7.57v31.4h-19.35v-53.83Z"/>
        <path class="cls-8" d="M565.3,226.31c0-16.68,10.65-27.76,27.34-27.76s26.78,10.48,26.78,27.62v4.49h-35.05v.84c0,5.19,3.37,8.97,9.11,8.97,3.96,0,7.15-1.72,8.27-4.77h17.66c-1.82,11.22-11.43,18.37-26.36,18.37-17.24,0-27.76-10.34-27.76-27.76ZM601.61,220c-.1-4.63-3.75-7.85-8.55-7.85s-8.59,3.19-8.69,7.85h17.24Z"/>
        <path class="cls-8" d="M649.07,253.09h-19.35v-53.83h18.36v10.23h.56c2.35-6.8,8.62-10.93,16.54-10.93,11.43,0,18.82,8.48,18.79,20.19v34.35h-19.35v-30.28c.04-5.33-2.84-8.55-7.71-8.55s-7.82,3.22-7.85,8.55v30.28Z"/>
        <path class="cls-8" d="M727.37,216.78c-.28-3.29-3.47-5.33-7.29-5.33-3.33,0-6.1,1.26-6.03,3.5-.07,1.58,1.09,3.05,5.19,3.79l10.93,1.96c11,2,16.33,6.62,16.4,14.58-.07,11.53-11.04,18.79-25.94,18.79-16.47,0-26-7.33-27.06-18.37h19.21c.53,3.43,3.61,5.33,7.99,5.33,3.54,0,6.1-1.26,6.17-3.51-.07-2.03-1.96-3.15-6.17-3.93l-9.53-1.68c-10.97-1.93-16.47-7.36-16.4-15.84-.07-11.22,9.43-17.52,24.81-17.52s25.02,6.83,25.51,18.22h-17.8Z"/>
        <path class="cls-8" d="M756.46,199.25h19.35v53.83h-19.35v-53.83ZM756.6,184.81c0-4.87,4.28-8.83,9.53-8.83s9.53,3.96,9.53,8.83-4.28,8.83-9.53,8.83-9.53-3.96-9.53-8.83Z"/>
        <path class="cls-8" d="M786.11,226.31c0-16.54,10.37-27.76,27.9-27.76s27.9,11.22,27.9,27.76-10.37,27.76-27.9,27.76-27.9-11.22-27.9-27.76ZM822.14,226.17c0-8.45-3.08-13.6-7.99-13.6-5.19,0-8.27,5.15-8.27,13.6s3.08,13.6,8.27,13.6c4.91,0,7.99-5.15,7.99-13.6Z"/>
        <path class="cls-8" d="M871.56,253.09h-19.35v-53.83h18.37v10.23h.56c2.35-6.8,8.62-10.93,16.54-10.93,11.43,0,18.82,8.48,18.79,20.19v34.35h-19.35v-30.28c.04-5.33-2.84-8.55-7.71-8.55s-7.81,3.22-7.85,8.55v30.28Z"/>
        <path class="cls-8" d="M949.86,216.78c-.28-3.29-3.47-5.33-7.29-5.33-3.33,0-6.1,1.26-6.03,3.5-.07,1.58,1.09,3.05,5.19,3.79l10.94,1.96c11,2,16.33,6.62,16.4,14.58-.07,11.53-11.04,18.79-25.94,18.79-16.47,0-26.01-7.33-27.06-18.37h19.21c.52,3.43,3.61,5.33,7.99,5.33,3.54,0,6.1-1.26,6.17-3.51-.07-2.03-1.96-3.15-6.17-3.93l-9.53-1.68c-10.97-1.93-16.47-7.36-16.4-15.84-.07-11.22,9.43-17.52,24.81-17.52s25.03,6.83,25.52,18.22h-17.8Z"/>
      </g>
    </g>
  </g>
  <g>
    <path class="cls-18" d="M290.19,72.78c-39.19-49.69-116.75-20.35-116.75-20.35-4.29-.56-8.66-.84-13.1-.84l-57.45-.54c2.7-2.52,4.17-6.33,3.43-10.44-.84-4.66-4.57-8.34-9.23-9.13-4.19-.71-8.07.88-10.56,3.72h-3.83c3.18-2.01,5.28-5.54,5.28-9.57s-2.1-7.56-5.28-9.57h3.59c2.73,3.11,7.1,4.74,11.75,3.53,3.89-1.01,6.99-4.07,8.04-7.95,1.23-4.56-.28-8.87-3.25-11.64h57.31c17.83,0,34.94,3.06,50.84,8.68,18.95,6.7,36.17,17.03,50.85,30.16,4.22,3.77,8.23,7.78,12,12,6.08,6.79,11.56,14.14,16.36,21.94Z"/>
    <g>
      <g>
        <path class="cls-3" d="M102.95,8.37c0,3.18-1.85,5.92-4.55,7.2-.25.12-.5.22-.76.32-.83.3-1.72.46-2.65.46s-1.82-.16-2.65-.46c-1.76-.62-3.23-1.84-4.18-3.42h-55.02c-.94,1.58-2.42,2.79-4.17,3.42-.83.3-1.72.46-2.65.46s-1.82-.16-2.65-.46h0c-.26-.09-.52-.2-.77-.32-2.69-1.28-4.55-4.02-4.55-7.2s1.86-5.92,4.55-7.2c.25-.12.5-.22.77-.32.82-.29,1.72-.45,2.64-.45s1.82.16,2.65.45h-.03c1.75.62,3.23,1.84,4.17,3.42h55.08c.94-1.57,2.42-2.8,4.17-3.42h-.03c.83-.29,1.72-.45,2.65-.45s1.82.16,2.65.45c.26.09.51.2.76.32,2.69,1.28,4.55,4.02,4.55,7.2Z"/>
        <path class="cls-10" d="M84.59,25.45c0,3.18-1.86,5.92-4.55,7.2-.25.12-.51.23-.77.32-.83.3-1.71.45-2.64.45s-1.82-.16-2.64-.45c-1.76-.62-3.24-1.84-4.18-3.42H14.78c-.94,1.58-2.42,2.8-4.18,3.42h-.07c-.83.3-1.73.46-2.66.46s-1.82-.16-2.65-.46h.11c-.27-.09-.52-.2-.78-.32-2.69-1.28-4.55-4.02-4.55-7.2s1.86-5.91,4.55-7.2c.25-.12.5-.22.77-.32h-.1c.83-.3,1.73-.46,2.65-.46s1.82.16,2.66.46h.09c1.75.62,3.23,1.84,4.17,3.42h55.02c.95-1.58,2.42-2.8,4.17-3.42.83-.3,1.72-.46,2.65-.46s1.82.16,2.65.46c.26.09.51.19.76.32,2.69,1.28,4.55,4.02,4.55,7.2Z"/>
        <path class="cls-9" d="M102.95,42.53c0,3.17-1.85,5.92-4.55,7.2-.25.12-.5.22-.76.32-.83.3-1.72.46-2.65.46s-1.82-.16-2.65-.46c-1.76-.62-3.23-1.84-4.18-3.42h-55.02c-.94,1.58-2.42,2.79-4.17,3.42-.83.3-1.72.46-2.65.46s-1.82-.16-2.65-.46h0c-.26-.09-.52-.2-.77-.32-2.69-1.28-4.55-4.02-4.55-7.2s1.86-5.92,4.55-7.2c.25-.12.5-.22.77-.32h0c.83-.3,1.73-.46,2.65-.46s1.82.16,2.65.46c1.76.62,3.23,1.84,4.17,3.42h55.02c.95-1.58,2.42-2.8,4.18-3.42.83-.3,1.72-.46,2.65-.46s1.82.16,2.65.46c.26.09.51.2.76.32,2.69,1.28,4.55,4.02,4.55,7.2Z"/>
      </g>
      <g>
        <path class="cls-11" d="M102.95,8.37c0,3.18-1.85,5.92-4.55,7.2-.25.12-.5.22-.76.32-.83.3-1.72.46-2.65.46s-1.82-.16-2.65-.46c-1.76-.62-3.23-1.84-4.18-3.42h-55.02c-.94,1.58-2.42,2.79-4.17,3.42-.83.3-1.72.46-2.65.46s-1.82-.16-2.65-.46h0c-.26-.09-.52-.2-.77-.32-2.69-1.28-4.55-4.02-4.55-7.2s1.86-5.92,4.55-7.2c.25-.12.5-.22.77-.32.82-.29,1.72-.45,2.64-.45s1.82.16,2.65.45h-.03c1.75.62,3.23,1.84,4.17,3.42h55.08c.94-1.57,2.42-2.8,4.17-3.42h-.03c.83-.29,1.72-.45,2.65-.45s1.82.16,2.65.45c.26.09.51.2.76.32,2.69,1.28,4.55,4.02,4.55,7.2Z"/>
        <path class="cls-17" d="M84.59,25.45c0,3.18-1.86,5.92-4.55,7.2-.25.12-.51.23-.77.32-.83.3-1.71.45-2.64.45s-1.82-.16-2.64-.45c-1.76-.62-3.24-1.84-4.18-3.42H14.78c-.94,1.58-2.42,2.8-4.18,3.42h-.07c-.83.3-1.73.46-2.66.46s-1.82-.16-2.65-.46h.11c-.27-.09-.52-.2-.78-.32-2.69-1.28-4.55-4.02-4.55-7.2s1.86-5.91,4.55-7.2c.25-.12.5-.22.77-.32h-.1c.83-.3,1.73-.46,2.65-.46s1.82.16,2.66.46h.09c1.75.62,3.23,1.84,4.17,3.42h55.02c.95-1.58,2.42-2.8,4.17-3.42.83-.3,1.72-.46,2.65-.46s1.82.16,2.65.46c.26.09.51.19.76.32,2.69,1.28,4.55,4.02,4.55,7.2Z"/>
        <path class="cls-14" d="M102.95,42.53c0,3.17-1.85,5.92-4.55,7.2-.25.12-.5.22-.76.32-.83.3-1.72.46-2.65.46s-1.82-.16-2.65-.46c-1.76-.62-3.23-1.84-4.18-3.42h-55.02c-.94,1.58-2.42,2.79-4.17,3.42-.83.3-1.72.46-2.65.46s-1.82-.16-2.65-.46h0c-.26-.09-.52-.2-.77-.32-2.69-1.28-4.55-4.02-4.55-7.2s1.86-5.92,4.55-7.2c.25-.12.5-.22.77-.32h0c.83-.3,1.73-.46,2.65-.46s1.82.16,2.65.46c1.76.62,3.23,1.84,4.17,3.42h55.02c.95-1.58,2.42-2.8,4.18-3.42.83-.3,1.72-.46,2.65-.46s1.82.16,2.65.46c.26.09.51.2.76.32,2.69,1.28,4.55,4.02,4.55,7.2Z"/>
      </g>
    </g>
    <g>
      <g>
        <g>
          <g>
            <path class="cls-12" d="M108.79,193.41c.29.83.45,1.72.45,2.64s-.16,1.81-.45,2.64c-.09.26-.2.52-.32.77-1.28,2.69-4.02,4.55-7.2,4.55s-5.91-1.85-7.19-4.55c-.12-.25-.23-.51-.32-.77-.29-.83-.45-1.71-.45-2.64s.16-1.82.45-2.64c.62-1.76,1.84-3.24,3.42-4.18v-55.02c-1.57-.94-2.8-2.42-3.42-4.18-.29-.83-.45-1.71-.45-2.64s.16-1.81.45-2.64c.09-.26.2-.53.32-.78,1.28-2.69,4.02-4.54,7.19-4.54s5.92,1.85,7.2,4.54c.12.25.23.51.32.78.29.82.45,1.71.45,2.64s-.16,1.81-.45,2.64c-.62,1.76-1.84,3.24-3.42,4.18v55.02c1.58.94,2.8,2.42,3.42,4.18Z"/>
            <path class="cls-15" d="M74.63,193.41c.29.83.45,1.72.45,2.64s-.16,1.81-.45,2.64c-.09.26-.2.52-.32.77-1.28,2.69-4.02,4.55-7.2,4.55s-5.91-1.85-7.19-4.55c-.12-.25-.23-.5-.32-.76-.29-.83-.45-1.72-.45-2.65s.16-1.82.45-2.65c.62-1.75,1.84-3.23,3.42-4.17v-55.02c-1.57-.94-2.79-2.42-3.42-4.17-.29-.83-.45-1.72-.45-2.65s.16-1.82.45-2.65c.09-.26.2-.52.32-.77,1.28-2.69,4.02-4.54,7.19-4.54s5.92,1.85,7.2,4.54c.12.25.23.51.32.78.29.82.45,1.71.45,2.64s-.16,1.81-.45,2.64c-.62,1.76-1.84,3.24-3.42,4.18v55.02c1.58.94,2.8,2.42,3.42,4.18Z"/>
            <path class="cls-4" d="M91.71,175.03c.29.83.45,1.73.45,2.65s-.16,1.82-.45,2.65c-.09.26-.2.52-.31.77-1.28,2.69-4.02,4.55-7.2,4.55s-5.92-1.85-7.2-4.55c-.12-.25-.22-.5-.31-.77-.29-.83-.45-1.72-.45-2.65s.16-1.82.45-2.65c.62-1.76,1.84-3.23,3.42-4.17v-55.02c-1.57-.94-2.79-2.42-3.42-4.17-.29-.83-.45-1.73-.45-2.65s.16-1.82.45-2.64c.09-.26.19-.52.31-.77,1.28-2.69,4.02-4.55,7.2-4.55s5.92,1.86,7.2,4.55c.12.25.22.51.31.77.29.83.45,1.72.45,2.64s-.16,1.82-.45,2.65c-.62,1.76-1.84,3.23-3.42,4.17v55.02c1.57.94,2.79,2.42,3.42,4.17Z"/>
          </g>
          <g>
            <path class="cls-16" d="M108.79,193.41c.29.83.45,1.72.45,2.64s-.16,1.81-.45,2.64c-.09.26-.2.52-.32.77-1.28,2.69-4.02,4.55-7.2,4.55s-5.91-1.85-7.19-4.55c-.12-.25-.23-.51-.32-.77-.29-.83-.45-1.71-.45-2.64s.16-1.82.45-2.64c.62-1.76,1.84-3.24,3.42-4.18v-55.02c-1.57-.94-2.8-2.42-3.42-4.18-.29-.83-.45-1.71-.45-2.64s.16-1.81.45-2.64c.09-.26.2-.53.32-.78,1.28-2.69,4.02-4.54,7.19-4.54s5.92,1.85,7.2,4.54c.12.25.23.51.32.78.29.82.45,1.71.45,2.64s-.16,1.81-.45,2.64c-.62,1.76-1.84,3.24-3.42,4.18v55.02c1.58.94,2.8,2.42,3.42,4.18Z"/>
            <path class="cls-5" d="M74.63,193.41c.29.83.45,1.72.45,2.64s-.16,1.81-.45,2.64c-.09.26-.2.52-.32.77-1.28,2.69-4.02,4.55-7.2,4.55s-5.91-1.85-7.19-4.55c-.12-.25-.23-.5-.32-.76-.29-.83-.45-1.72-.45-2.65s.16-1.82.45-2.65c.62-1.75,1.84-3.23,3.42-4.17v-55.02c-1.57-.94-2.79-2.42-3.42-4.17-.29-.83-.45-1.72-.45-2.65s.16-1.82.45-2.65c.09-.26.2-.52.32-.77,1.28-2.69,4.02-4.54,7.19-4.54s5.92,1.85,7.2,4.54c.12.25.23.51.32.78.29.82.45,1.71.45,2.64s-.16,1.81-.45,2.64c-.62,1.76-1.84,3.24-3.42,4.18v55.02c1.58.94,2.8,2.42,3.42,4.18Z"/>
            <path class="cls-2" d="M91.71,175.03c.29.83.45,1.73.45,2.65s-.16,1.82-.45,2.65c-.09.26-.2.52-.31.77-1.28,2.69-4.02,4.55-7.2,4.55s-5.92-1.85-7.2-4.55c-.12-.25-.22-.5-.31-.77-.29-.83-.45-1.72-.45-2.65s.16-1.82.45-2.65c.62-1.76,1.84-3.23,3.42-4.17v-55.02c-1.57-.94-2.79-2.42-3.42-4.17-.29-.83-.45-1.73-.45-2.65s.16-1.82.45-2.64c.09-.26.19-.52.31-.77,1.28-2.69,4.02-4.55,7.2-4.55s5.92,1.86,7.2,4.55c.12.25.22.51.31.77.29.83.45,1.72.45,2.64s-.16,1.82-.45,2.65c-.62,1.76-1.84,3.23-3.42,4.17v55.02c1.57.94,2.79,2.42,3.42,4.17Z"/>
          </g>
        </g>
        <path class="cls-13" d="M312.68,152.53c0,4.82-.23,9.6-.66,14.31,0,.02,0,.03,0,.05-1.18,12.68-3.91,24.9-8.01,36.49-6.7,18.95-17.03,36.17-30.16,50.84-3.77,4.22-7.78,8.23-12,12.01-14.67,13.13-31.9,23.46-50.85,30.16-15.9,5.62-33.01,8.68-50.84,8.68h-50.85s-38.74,0-38.74,0c-6.53,0-11.82-5.29-11.82-11.82v-89.43c2.29,2.46,5.65,3.9,9.32,3.56,5.42-.5,9.74-4.91,10.2-10.33.32-3.79-1.22-7.24-3.8-9.52v-3.76c2.01,3.17,5.54,5.27,9.57,5.27s7.56-2.11,9.57-5.27v3.76c-2.58,2.28-4.13,5.73-3.81,9.52.45,5.42,4.78,9.84,10.2,10.33,3.68.34,7.03-1.11,9.32-3.57v36.2c0,7.58,6.03,13.78,13.61,13.98,11.08.3,26.6.65,37.43.65,18.6,0,36.04-5,51.04-13.74,15.21-8.86,27.9-21.55,36.76-36.76,8.74-14.99,13.74-32.44,13.74-51.04,0-11.13-1.79-21.84-5.1-31.86-2.22-6.73-5.13-13.16-8.64-19.18-8.86-15.21-21.55-27.9-36.76-36.76-11.42-6.65-24.25-11.14-37.94-12.9,0,0,77.56-29.33,116.75,20.35,10.16,12.88,17.74,31.07,20.72,56.46,1.16,7.59,1.77,15.37,1.77,23.29Z"/>
      </g>
      <g>
        <g>
          <g>
            <path class="cls-1" d="M108.79,193.41c.29.83.45,1.72.45,2.64s-.16,1.81-.45,2.64c-.09.26-.2.52-.32.77-1.28,2.69-4.02,4.55-7.2,4.55s-5.91-1.85-7.19-4.55c-.12-.25-.23-.51-.32-.77-.29-.83-.45-1.71-.45-2.64s.16-1.82.45-2.64c.62-1.76,1.84-3.24,3.42-4.18v-55.02c-1.57-.94-2.8-2.42-3.42-4.18-.29-.83-.45-1.71-.45-2.64s.16-1.81.45-2.64c.09-.26.2-.53.32-.78,1.28-2.69,4.02-4.54,7.19-4.54s5.92,1.85,7.2,4.54c.12.25.23.51.32.78.29.82.45,1.71.45,2.64s-.16,1.81-.45,2.64c-.62,1.76-1.84,3.24-3.42,4.18v55.02c1.58.94,2.8,2.42,3.42,4.18Z"/>
            <path class="cls-1" d="M74.63,193.41c.29.83.45,1.72.45,2.64s-.16,1.81-.45,2.64c-.09.26-.2.52-.32.77-1.28,2.69-4.02,4.55-7.2,4.55s-5.91-1.85-7.19-4.55c-.12-.25-.23-.5-.32-.76-.29-.83-.45-1.72-.45-2.65s.16-1.82.45-2.65c.62-1.75,1.84-3.23,3.42-4.17v-55.02c-1.57-.94-2.79-2.42-3.42-4.17-.29-.83-.45-1.72-.45-2.65s.16-1.82.45-2.65c.09-.26.2-.52.32-.77,1.28-2.69,4.02-4.54,7.19-4.54s5.92,1.85,7.2,4.54c.12.25.23.51.32.78.29.82.45,1.71.45,2.64s-.16,1.81-.45,2.64c-.62,1.76-1.84,3.24-3.42,4.18v55.02c1.58.94,2.8,2.42,3.42,4.18Z"/>
            <path class="cls-1" d="M91.71,175.03c.29.83.45,1.73.45,2.65s-.16,1.82-.45,2.65c-.09.26-.2.52-.31.77-1.28,2.69-4.02,4.55-7.2,4.55s-5.92-1.85-7.2-4.55c-.12-.25-.22-.5-.31-.77-.29-.83-.45-1.72-.45-2.65s.16-1.82.45-2.65c.62-1.76,1.84-3.23,3.42-4.17v-55.02c-1.57-.94-2.79-2.42-3.42-4.17-.29-.83-.45-1.73-.45-2.65s.16-1.82.45-2.64c.09-.26.19-.52.31-.77,1.28-2.69,4.02-4.55,7.2-4.55s5.92,1.86,7.2,4.55c.12.25.22.51.31.77.29.83.45,1.72.45,2.64s-.16,1.82-.45,2.65c-.62,1.76-1.84,3.23-3.42,4.17v55.02c1.57.94,2.79,2.42,3.42,4.17Z"/>
          </g>
          <g>
            <path class="cls-1" d="M108.79,193.41c.29.83.45,1.72.45,2.64s-.16,1.81-.45,2.64c-.09.26-.2.52-.32.77-1.28,2.69-4.02,4.55-7.2,4.55s-5.91-1.85-7.19-4.55c-.12-.25-.23-.51-.32-.77-.29-.83-.45-1.71-.45-2.64s.16-1.82.45-2.64c.62-1.76,1.84-3.24,3.42-4.18v-55.02c-1.57-.94-2.8-2.42-3.42-4.18-.29-.83-.45-1.71-.45-2.64s.16-1.81.45-2.64c.09-.26.2-.53.32-.78,1.28-2.69,4.02-4.54,7.19-4.54s5.92,1.85,7.2,4.54c.12.25.23.51.32.78.29.82.45,1.71.45,2.64s-.16,1.81-.45,2.64c-.62,1.76-1.84,3.24-3.42,4.18v55.02c1.58.94,2.8,2.42,3.42,4.18Z"/>
            <path class="cls-1" d="M74.63,193.41c.29.83.45,1.72.45,2.64s-.16,1.81-.45,2.64c-.09.26-.2.52-.32.77-1.28,2.69-4.02,4.55-7.2,4.55s-5.91-1.85-7.19-4.55c-.12-.25-.23-.5-.32-.76-.29-.83-.45-1.72-.45-2.65s.16-1.82.45-2.65c.62-1.75,1.84-3.23,3.42-4.17v-55.02c-1.57-.94-2.79-2.42-3.42-4.17-.29-.83-.45-1.72-.45-2.65s.16-1.82.45-2.65c.09-.26.2-.52.32-.77,1.28-2.69,4.02-4.54,7.19-4.54s5.92,1.85,7.2,4.54c.12.25.23.51.32.78.29.82.45,1.71.45,2.64s-.16,1.81-.45,2.64c-.62,1.76-1.84,3.24-3.42,4.18v55.02c1.58.94,2.8,2.42,3.42,4.18Z"/>
            <path class="cls-1" d="M91.71,175.03c.29.83.45,1.73.45,2.65s-.16,1.82-.45,2.65c-.09.26-.2.52-.31.77-1.28,2.69-4.02,4.55-7.2,4.55s-5.92-1.85-7.2-4.55c-.12-.25-.22-.5-.31-.77-.29-.83-.45-1.72-.45-2.65s.16-1.82.45-2.65c.62-1.76,1.84-3.23,3.42-4.17v-55.02c-1.57-.94-2.79-2.42-3.42-4.17-.29-.83-.45-1.73-.45-2.65s.16-1.82.45-2.64c.09-.26.19-.52.31-.77,1.28-2.69,4.02-4.55,7.2-4.55s5.92,1.86,7.2,4.55c.12.25.22.51.31.77.29.83.45,1.72.45,2.64s-.16,1.82-.45,2.65c-.62,1.76-1.84,3.23-3.42,4.17v55.02c1.57.94,2.79,2.42,3.42,4.17Z"/>
          </g>
          <g>
            <path class="cls-1" d="M108.79,193.41c.29.83.45,1.72.45,2.64s-.16,1.81-.45,2.64c-.09.26-.2.52-.32.77-1.28,2.69-4.02,4.55-7.2,4.55s-5.91-1.85-7.19-4.55c-.12-.25-.23-.51-.32-.77-.29-.83-.45-1.71-.45-2.64s.16-1.82.45-2.64c.62-1.76,1.84-3.24,3.42-4.18v-55.02c-1.57-.94-2.8-2.42-3.42-4.18-.29-.83-.45-1.71-.45-2.64s.16-1.81.45-2.64c.09-.26.2-.53.32-.78,1.28-2.69,4.02-4.54,7.19-4.54s5.92,1.85,7.2,4.54c.12.25.23.51.32.78.29.82.45,1.71.45,2.64s-.16,1.81-.45,2.64c-.62,1.76-1.84,3.24-3.42,4.18v55.02c1.58.94,2.8,2.42,3.42,4.18Z"/>
            <path class="cls-1" d="M74.63,193.41c.29.83.45,1.72.45,2.64s-.16,1.81-.45,2.64c-.09.26-.2.52-.32.77-1.28,2.69-4.02,4.55-7.2,4.55s-5.91-1.85-7.19-4.55c-.12-.25-.23-.5-.32-.76-.29-.83-.45-1.72-.45-2.65s.16-1.82.45-2.65c.62-1.75,1.84-3.23,3.42-4.17v-55.02c-1.57-.94-2.79-2.42-3.42-4.17-.29-.83-.45-1.72-.45-2.65s.16-1.82.45-2.65c.09-.26.2-.52.32-.77,1.28-2.69,4.02-4.54,7.19-4.54s5.92,1.85,7.2,4.54c.12.25.23.51.32.78.29.82.45,1.71.45,2.64s-.16,1.81-.45,2.64c-.62,1.76-1.84,3.24-3.42,4.18v55.02c1.58.94,2.8,2.42,3.42,4.18Z"/>
            <path class="cls-1" d="M91.71,175.03c.29.83.45,1.73.45,2.65s-.16,1.82-.45,2.65c-.09.26-.2.52-.31.77-1.28,2.69-4.02,4.55-7.2,4.55s-5.92-1.85-7.2-4.55c-.12-.25-.22-.5-.31-.77-.29-.83-.45-1.72-.45-2.65s.16-1.82.45-2.65c.62-1.76,1.84-3.23,3.42-4.17v-55.02c-1.57-.94-2.79-2.42-3.42-4.17-.29-.83-.45-1.73-.45-2.65s.16-1.82.45-2.64c.09-.26.19-.52.31-.77,1.28-2.69,4.02-4.55,7.2-4.55s5.92,1.86,7.2,4.55c.12.25.22.51.31.77.29.83.45,1.72.45,2.64s-.16,1.82-.45,2.65c-.62,1.76-1.84,3.23-3.42,4.17v55.02c1.57.94,2.79,2.42,3.42,4.17Z"/>
          </g>
        </g>
        <path class="cls-1" d="M312.68,152.53c0,4.82-.23,9.6-.66,14.31,0,.02,0,.03,0,.05-1.18,12.68-3.91,24.9-8.01,36.49-6.7,18.95-17.03,36.17-30.16,50.84-3.77,4.22-7.78,8.23-12,12.01-14.67,13.13-31.9,23.46-50.85,30.16-15.9,5.62-33.01,8.68-50.84,8.68h-50.85s-38.74,0-38.74,0c-6.53,0-11.82-5.29-11.82-11.82v-89.43c2.29,2.46,5.65,3.9,9.32,3.56,5.42-.5,9.74-4.91,10.2-10.33.32-3.79-1.22-7.24-3.8-9.52v-3.76c2.01,3.17,5.54,5.27,9.57,5.27s7.56-2.11,9.57-5.27v3.76c-2.58,2.28-4.13,5.73-3.81,9.52.45,5.42,4.78,9.84,10.2,10.33,3.68.34,7.03-1.11,9.32-3.57v36.2c0,7.58,6.03,13.78,13.61,13.98,11.08.3,26.6.65,37.43.65,18.6,0,36.04-5,51.04-13.74,15.21-8.86,27.9-21.55,36.76-36.76,8.74-14.99,13.74-32.44,13.74-51.04,0-11.13-1.79-21.84-5.1-31.86-2.22-6.73-5.13-13.16-8.64-19.18-8.86-15.21-21.55-27.9-36.76-36.76-11.42-6.65-24.25-11.14-37.94-12.9,0,0,77.56-29.33,116.75,20.35,10.16,12.88,17.74,31.07,20.72,56.46,1.16,7.59,1.77,15.37,1.77,23.29Z"/>
      </g>
    </g>
  </g>
</svg>