<?xml version="1.0" encoding="UTF-8"?>
<svg id="Layer_1" data-name="Layer 1" xmlns="http://www.w3.org/2000/svg" xmlns:xlink="http://www.w3.org/1999/xlink" viewBox="0 0 976.09 467.17">
  <defs>
    <style>
      .cls-1 {
        fill: url(#linear-gradient-15);
      }

      .cls-2 {
        fill: url(#linear-gradient-13);
      }

      .cls-3 {
        fill: url(#linear-gradient-2);
      }

      .cls-4 {
        fill: url(#linear-gradient-10);
      }

      .cls-5 {
        fill: url(#linear-gradient-12);
      }

      .cls-6 {
        fill: #231f20;
      }

      .cls-7 {
        fill: #00adb1;
      }

      .cls-8 {
        fill: url(#linear-gradient-4);
      }

      .cls-9 {
        fill: url(#linear-gradient-3);
      }

      .cls-10 {
        fill: url(#linear-gradient-5);
      }

      .cls-11 {
        fill: url(#linear-gradient-8);
      }

      .cls-12 {
        fill: url(#linear-gradient-14);
      }

      .cls-13 {
        fill: url(#linear-gradient-20);
      }

      .cls-14 {
        fill: url(#linear-gradient-17);
      }

      .cls-15 {
        fill: url(#linear-gradient-7);
      }

      .cls-16 {
        fill: url(#linear-gradient-9);
      }

      .cls-17 {
        fill: url(#linear-gradient-11);
      }

      .cls-18 {
        fill: url(#linear-gradient-19);
      }

      .cls-19 {
        fill: url(#linear-gradient-6);
      }

      .cls-20 {
        fill: url(#linear-gradient-21);
      }

      .cls-21 {
        fill: url(#linear-gradient-16);
      }

      .cls-22 {
        fill: url(#linear-gradient);
      }

      .cls-23 {
        fill: url(#linear-gradient-18);
      }
    </style>
    <linearGradient id="linear-gradient" x1="200.12" y1="68.78" x2="234.98" y2="-1.85" gradientUnits="userSpaceOnUse">
      <stop offset="0" stop-color="#77479c"/>
      <stop offset="1" stop-color="#00adb1"/>
    </linearGradient>
    <linearGradient id="linear-gradient-2" x1="20.64" y1="8.96" x2="115.68" y2="8.96" xlink:href="#linear-gradient"/>
    <linearGradient id="linear-gradient-3" x1="0" y1="28.15" x2="95.05" y2="28.15" xlink:href="#linear-gradient"/>
    <linearGradient id="linear-gradient-4" x1="20.64" y1="47.34" x2="115.68" y2="47.34" xlink:href="#linear-gradient"/>
    <linearGradient id="linear-gradient-5" x1="104.84" y1="181.26" x2="122.74" y2="181.26" xlink:href="#linear-gradient"/>
    <linearGradient id="linear-gradient-6" x1="66.45" y1="181.26" x2="84.36" y2="181.26" xlink:href="#linear-gradient"/>
    <linearGradient id="linear-gradient-7" x1="85.65" y1="160.63" x2="103.56" y2="160.63" xlink:href="#linear-gradient"/>
    <linearGradient id="linear-gradient-8" x1="128.8" y1="138.36" x2="325.71" y2="340.6" gradientUnits="userSpaceOnUse">
      <stop offset="0" stop-color="#77479c"/>
      <stop offset=".18" stop-color="#724a9c"/>
      <stop offset=".36" stop-color="#66559e"/>
      <stop offset=".55" stop-color="#5266a2"/>
      <stop offset=".74" stop-color="#357fa7"/>
      <stop offset=".93" stop-color="#109eae"/>
      <stop offset="1" stop-color="#00adb1"/>
    </linearGradient>
    <linearGradient id="linear-gradient-9" x1="445.54" y1="25.68" x2="648.48" y2="234.11" xlink:href="#linear-gradient-8"/>
    <linearGradient id="linear-gradient-10" x1="377.7" y1="91.22" x2="580.86" y2="299.9" gradientUnits="userSpaceOnUse">
      <stop offset="0" stop-color="#77479c"/>
      <stop offset=".35" stop-color="#4b6ba3"/>
      <stop offset="1" stop-color="#00adb1"/>
    </linearGradient>
    <linearGradient id="linear-gradient-11" x1="335.36" y1="132.63" x2="538.6" y2="341.38" xlink:href="#linear-gradient"/>
    <linearGradient id="linear-gradient-12" x1="325.41" y1="142.31" x2="528.65" y2="351.07" xlink:href="#linear-gradient"/>
    <linearGradient id="linear-gradient-13" x1="315.46" y1="152" x2="518.71" y2="360.75" xlink:href="#linear-gradient"/>
    <linearGradient id="linear-gradient-14" x1="316.45" y1="151.04" x2="519.69" y2="359.79" xlink:href="#linear-gradient"/>
    <linearGradient id="linear-gradient-15" x1="679.8" y1=".26" x2="681.31" y2=".26" xlink:href="#linear-gradient"/>
    <linearGradient id="linear-gradient-16" x1="786.5" y1="195.14" x2="885.53" y2="-5.51" xlink:href="#linear-gradient"/>
    <linearGradient id="linear-gradient-17" x1="783.86" y1="305.13" x2="879.67" y2="110.98" xlink:href="#linear-gradient"/>
    <linearGradient id="linear-gradient-18" x1="728.19" y1="173.84" x2="754.58" y2="120.37" xlink:href="#linear-gradient"/>
    <linearGradient id="linear-gradient-19" x1="711.96" y1="156.39" x2="738.35" y2="102.91" xlink:href="#linear-gradient"/>
    <linearGradient id="linear-gradient-20" x1="695.72" y1="173.85" x2="722.1" y2="120.37" xlink:href="#linear-gradient"/>
    <linearGradient id="linear-gradient-21" x1="967.78" y1="165.28" x2="984.85" y2="130.69" xlink:href="#linear-gradient"/>
  </defs>
  <g>
    <g>
      <path class="cls-6" d="M52.73,454.59v-43.52h16.57c13.43,0,21.84,8.16,21.84,21.76s-8.41,21.76-21.67,21.76h-16.74ZM69.05,444.56c6.46,0,10.2-2.63,10.2-11.73s-3.74-11.73-10.54-11.73h-4.16v23.46h4.5Z"/>
      <path class="cls-6" d="M96.75,421.95h11.73v32.64h-11.73v-32.64ZM96.84,413.2c0-2.95,2.59-5.35,5.78-5.35s5.78,2.4,5.78,5.35-2.59,5.35-5.78,5.35-5.78-2.4-5.78-5.35Z"/>
      <path class="cls-6" d="M114.18,456.72h11.3c.34,1.74,2.32,2.55,5.02,2.55,3.04,0,5.27-1.25,5.27-4.76v-5.52h-.34c-1.27,3.32-4.76,5.18-9.18,5.18-6.97,0-12.83-4.59-12.83-15.89s6.29-16.74,12.75-16.74c4.84,0,7.9,2.8,9.18,6.12h.26v-5.7h11.73v32.55c0,7.95-6.84,12.66-17.17,12.66s-15.53-4.5-15.98-10.45ZM135.77,438.27c0-4.84-1.96-7.73-5.18-7.73s-5.1,2.89-5.1,7.73,1.87,7.57,5.1,7.57,5.18-2.8,5.18-7.57Z"/>
      <path class="cls-6" d="M153.28,421.95h11.73v32.64h-11.73v-32.64ZM153.36,413.2c0-2.95,2.59-5.35,5.78-5.35s5.78,2.4,5.78,5.35-2.59,5.35-5.78,5.35-5.78-2.4-5.78-5.35Z"/>
      <path class="cls-6" d="M190.42,430.45h-5.61v13.64c0,1.36.68,2.04,2.21,2.04.7,0,1.85-.23,2.3-.34l1.7,8.24c-1.06.32-3.04.87-5.7,1.02-8.1.45-12.32-3.02-12.24-9.86v-14.75h-4.17v-8.5h4.17v-7.82h11.73v7.82h5.61v8.5Z"/>
      <path class="cls-6" d="M193.65,445.58c0-7.16,5.25-9.88,11.98-10.37,5.48-.4,7.57-1,7.57-2.89v-.09c0-1.7-1.45-2.63-3.49-2.63-2.23,0-3.72.96-3.99,2.97h-10.79c.4-5.95,5.21-11.05,14.96-11.05s15.04,4.67,15.04,10.71v22.35h-10.96v-4.59h-.26c-1.98,3.65-5.18,5.1-9.43,5.1-6.25,0-10.62-3.02-10.62-9.52ZM213.29,443.03v-2.72c-1.23.51-2.8.89-4.67,1.19-2.72.42-3.91,1.72-3.91,3.4,0,1.83,1.4,2.8,3.4,2.8,2.66,0,5.19-1.7,5.19-4.67Z"/>
      <path class="cls-6" d="M242.27,454.59h-11.73v-43.52h11.73v43.52Z"/>
      <path class="cls-6" d="M289.44,420.17c-3.65,0-5.25,1.4-5.27,3.32-.11,2.08,1.74,3.29,5.86,4.16l3.57.76c9.61,2.06,13.56,6.72,13.6,13.34-.04,8.58-6.65,13.34-17.68,13.34s-18.74-4.89-18.78-15.81h11.22c.19,4,2.87,6.12,7.39,6.12,3.78,0,5.74-1.51,5.78-3.65-.04-1.98-1.7-3.19-6.54-4.25l-4.34-.93c-7.71-1.66-12.43-5.44-12.41-12.24-.06-8.29,7.25-13.85,17.59-13.85s17.12,5.65,17.17,14.19h-11.3c-.23-2.83-2.04-4.5-5.86-4.5Z"/>
      <path class="cls-6" d="M310.7,438.36c0-10.03,6.29-16.83,16.91-16.83s16.91,6.8,16.91,16.83-6.29,16.83-16.91,16.83-16.91-6.8-16.91-16.83ZM332.54,438.27c0-5.12-1.87-8.24-4.85-8.24-3.14,0-5.01,3.12-5.01,8.24s1.87,8.24,5.01,8.24c2.98,0,4.85-3.12,4.85-8.24Z"/>
      <path class="cls-6" d="M361.01,454.59h-11.73v-43.52h11.73v43.52Z"/>
      <path class="cls-6" d="M388.13,421.95h11.73v32.64h-11.13v-6.2h-.34c-1.42,4.16-5.16,6.63-10.03,6.63-6.86,0-11.37-5.1-11.39-12.24v-20.82h11.73v18.36c.02,3.23,1.72,5.18,4.67,5.18s4.78-1.95,4.76-5.18v-18.36Z"/>
      <path class="cls-6" d="M425.27,430.45h-5.61v13.64c0,1.36.68,2.04,2.21,2.04.7,0,1.85-.23,2.3-.34l1.7,8.24c-1.06.32-3.04.87-5.7,1.02-8.1.45-12.32-3.02-12.24-9.86v-14.75h-4.17v-8.5h4.17v-7.82h11.73v7.82h5.61v8.5Z"/>
      <path class="cls-6" d="M430.03,421.95h11.73v32.64h-11.73v-32.64ZM430.12,413.2c0-2.95,2.59-5.35,5.78-5.35s5.78,2.4,5.78,5.35-2.59,5.35-5.78,5.35-5.78-2.4-5.78-5.35Z"/>
      <path class="cls-6" d="M446.52,438.36c0-10.03,6.29-16.83,16.91-16.83s16.91,6.8,16.91,16.83-6.29,16.83-16.91,16.83-16.91-6.8-16.91-16.83ZM468.36,438.27c0-5.12-1.87-8.24-4.84-8.24-3.15,0-5.02,3.12-5.02,8.24s1.87,8.24,5.02,8.24c2.97,0,4.84-3.12,4.84-8.24Z"/>
      <path class="cls-6" d="M496.84,454.59h-11.73v-32.64h11.13v6.21h.34c1.42-4.12,5.23-6.63,10.03-6.63,6.93,0,11.41,5.14,11.39,12.24v20.82h-11.73v-18.36c.02-3.23-1.72-5.18-4.67-5.18s-4.74,1.96-4.76,5.18v18.36Z"/>
      <path class="cls-6" d="M542.82,432.58c-.17-2-2.1-3.23-4.42-3.23-2.02,0-3.7.76-3.65,2.13-.04.96.66,1.85,3.14,2.29l6.63,1.19c6.67,1.21,9.9,4.02,9.94,8.84-.04,6.99-6.69,11.39-15.72,11.39-9.99,0-15.77-4.44-16.4-11.13h11.64c.32,2.08,2.19,3.23,4.84,3.23,2.15,0,3.7-.76,3.74-2.12-.04-1.23-1.19-1.91-3.74-2.38l-5.78-1.02c-6.65-1.17-9.99-4.46-9.94-9.6-.04-6.8,5.71-10.62,15.04-10.62s15.17,4.14,15.47,11.05h-10.79Z"/>
      <path class="cls-6" d="M570.7,454.59v-43.52h16.57c13.43,0,21.84,8.16,21.84,21.76s-8.41,21.76-21.67,21.76h-16.74ZM587.02,444.56c6.46,0,10.2-2.63,10.2-11.73s-3.74-11.73-10.54-11.73h-4.16v23.46h4.5Z"/>
      <path class="cls-6" d="M614.73,421.95h11.73v32.64h-11.73v-32.64ZM614.82,413.2c0-2.95,2.59-5.35,5.78-5.35s5.78,2.4,5.78,5.35-2.59,5.35-5.78,5.35-5.78-2.4-5.78-5.35Z"/>
      <path class="cls-6" d="M632.41,421.95h11.13v6.21h.34c1.36-4.08,4.82-6.63,9.35-6.63s8.24,2.63,8.92,6.63h.34c1.11-3.99,5.02-6.63,9.86-6.63,6.25,0,10.54,4.36,10.54,11.05v22.01h-11.73v-19.04c0-2.85-1.57-4.59-4-4.59s-3.91,1.74-3.91,4.59v19.04h-11.22v-19.04c0-2.85-1.57-4.59-4-4.59s-3.91,1.74-3.91,4.59v19.04h-11.73v-32.64Z"/>
      <path class="cls-6" d="M687.49,438.36c0-10.11,6.46-16.83,16.57-16.83s16.23,6.35,16.23,16.74v2.72h-21.25v.51c0,3.14,2.04,5.44,5.52,5.44,2.4,0,4.33-1.04,5.01-2.89h10.71c-1.11,6.8-6.93,11.13-15.98,11.13-10.45,0-16.83-6.27-16.83-16.83ZM709.5,434.53c-.07-2.8-2.27-4.76-5.19-4.76s-5.21,1.93-5.27,4.76h10.46Z"/>
      <path class="cls-6" d="M736.79,454.59h-11.73v-32.64h11.13v6.21h.34c1.42-4.12,5.23-6.63,10.03-6.63,6.93,0,11.41,5.14,11.39,12.24v20.82h-11.73v-18.36c.02-3.23-1.72-5.18-4.67-5.18s-4.74,1.96-4.76,5.18v18.36Z"/>
      <path class="cls-6" d="M782.77,432.58c-.17-2-2.1-3.23-4.42-3.23-2.02,0-3.7.76-3.65,2.13-.04.96.66,1.85,3.15,2.29l6.63,1.19c6.67,1.21,9.9,4.02,9.94,8.84-.04,6.99-6.69,11.39-15.72,11.39-9.99,0-15.77-4.44-16.4-11.13h11.64c.32,2.08,2.19,3.23,4.85,3.23,2.15,0,3.7-.76,3.74-2.12-.04-1.23-1.19-1.91-3.74-2.38l-5.78-1.02c-6.65-1.17-9.99-4.46-9.94-9.6-.04-6.8,5.72-10.62,15.04-10.62s15.17,4.14,15.47,11.05h-10.8Z"/>
      <path class="cls-6" d="M798.92,421.95h11.73v32.64h-11.73v-32.64ZM799.01,413.2c0-2.95,2.59-5.35,5.78-5.35s5.78,2.4,5.78,5.35-2.59,5.35-5.78,5.35-5.78-2.4-5.78-5.35Z"/>
      <path class="cls-6" d="M815.41,438.36c0-10.03,6.29-16.83,16.91-16.83s16.91,6.8,16.91,16.83-6.29,16.83-16.91,16.83-16.91-6.8-16.91-16.83ZM837.26,438.27c0-5.12-1.87-8.24-4.85-8.24-3.14,0-5.01,3.12-5.01,8.24s1.87,8.24,5.01,8.24c2.98,0,4.85-3.12,4.85-8.24Z"/>
      <path class="cls-6" d="M865.73,454.59h-11.73v-32.64h11.13v6.21h.34c1.42-4.12,5.23-6.63,10.03-6.63,6.93,0,11.41,5.14,11.39,12.24v20.82h-11.73v-18.36c.02-3.23-1.72-5.18-4.67-5.18s-4.74,1.96-4.76,5.18v18.36Z"/>
      <path class="cls-6" d="M911.71,432.58c-.17-2-2.1-3.23-4.42-3.23-2.02,0-3.7.76-3.65,2.13-.04.96.66,1.85,3.15,2.29l6.63,1.19c6.67,1.21,9.9,4.02,9.94,8.84-.04,6.99-6.69,11.39-15.72,11.39-9.99,0-15.77-4.44-16.4-11.13h11.64c.32,2.08,2.19,3.23,4.85,3.23,2.15,0,3.7-.76,3.74-2.12-.04-1.23-1.19-1.91-3.74-2.38l-5.78-1.02c-6.65-1.17-9.99-4.46-9.94-9.6-.04-6.8,5.72-10.62,15.04-10.62s15.17,4.14,15.47,11.05h-10.8Z"/>
    </g>
    <g>
      <path class="cls-7" d="M52.73,454.59v-43.52h16.57c13.43,0,21.84,8.16,21.84,21.76s-8.41,21.76-21.67,21.76h-16.74ZM69.05,444.56c6.46,0,10.2-2.63,10.2-11.73s-3.74-11.73-10.54-11.73h-4.16v23.46h4.5Z"/>
      <path class="cls-7" d="M96.75,421.95h11.73v32.64h-11.73v-32.64ZM96.84,413.2c0-2.95,2.59-5.35,5.78-5.35s5.78,2.4,5.78,5.35-2.59,5.35-5.78,5.35-5.78-2.4-5.78-5.35Z"/>
      <path class="cls-7" d="M114.18,456.72h11.3c.34,1.74,2.32,2.55,5.02,2.55,3.04,0,5.27-1.25,5.27-4.76v-5.52h-.34c-1.27,3.32-4.76,5.18-9.18,5.18-6.97,0-12.83-4.59-12.83-15.89s6.29-16.74,12.75-16.74c4.84,0,7.9,2.8,9.18,6.12h.26v-5.7h11.73v32.55c0,7.95-6.84,12.66-17.17,12.66s-15.53-4.5-15.98-10.45ZM135.77,438.27c0-4.84-1.96-7.73-5.18-7.73s-5.1,2.89-5.1,7.73,1.87,7.57,5.1,7.57,5.18-2.8,5.18-7.57Z"/>
      <path class="cls-7" d="M153.28,421.95h11.73v32.64h-11.73v-32.64ZM153.36,413.2c0-2.95,2.59-5.35,5.78-5.35s5.78,2.4,5.78,5.35-2.59,5.35-5.78,5.35-5.78-2.4-5.78-5.35Z"/>
      <path class="cls-7" d="M190.42,430.45h-5.61v13.64c0,1.36.68,2.04,2.21,2.04.7,0,1.85-.23,2.3-.34l1.7,8.24c-1.06.32-3.04.87-5.7,1.02-8.1.45-12.32-3.02-12.24-9.86v-14.75h-4.17v-8.5h4.17v-7.82h11.73v7.82h5.61v8.5Z"/>
      <path class="cls-7" d="M193.65,445.58c0-7.16,5.25-9.88,11.98-10.37,5.48-.4,7.57-1,7.57-2.89v-.09c0-1.7-1.45-2.63-3.49-2.63-2.23,0-3.72.96-3.99,2.97h-10.79c.4-5.95,5.21-11.05,14.96-11.05s15.04,4.67,15.04,10.71v22.35h-10.96v-4.59h-.26c-1.98,3.65-5.18,5.1-9.43,5.1-6.25,0-10.62-3.02-10.62-9.52ZM213.29,443.03v-2.72c-1.23.51-2.8.89-4.67,1.19-2.72.42-3.91,1.72-3.91,3.4,0,1.83,1.4,2.8,3.4,2.8,2.66,0,5.19-1.7,5.19-4.67Z"/>
      <path class="cls-7" d="M242.27,454.59h-11.73v-43.52h11.73v43.52Z"/>
      <path class="cls-7" d="M289.44,420.17c-3.65,0-5.25,1.4-5.27,3.32-.11,2.08,1.74,3.29,5.86,4.16l3.57.76c9.61,2.06,13.56,6.72,13.6,13.34-.04,8.58-6.65,13.34-17.68,13.34s-18.74-4.89-18.78-15.81h11.22c.19,4,2.87,6.12,7.39,6.12,3.78,0,5.74-1.51,5.78-3.65-.04-1.98-1.7-3.19-6.54-4.25l-4.34-.93c-7.71-1.66-12.43-5.44-12.41-12.24-.06-8.29,7.25-13.85,17.59-13.85s17.12,5.65,17.17,14.19h-11.3c-.23-2.83-2.04-4.5-5.86-4.5Z"/>
      <path class="cls-7" d="M310.7,438.36c0-10.03,6.29-16.83,16.91-16.83s16.91,6.8,16.91,16.83-6.29,16.83-16.91,16.83-16.91-6.8-16.91-16.83ZM332.54,438.27c0-5.12-1.87-8.24-4.85-8.24-3.14,0-5.01,3.12-5.01,8.24s1.87,8.24,5.01,8.24c2.98,0,4.85-3.12,4.85-8.24Z"/>
      <path class="cls-7" d="M361.01,454.59h-11.73v-43.52h11.73v43.52Z"/>
      <path class="cls-7" d="M388.13,421.95h11.73v32.64h-11.13v-6.2h-.34c-1.42,4.16-5.16,6.63-10.03,6.63-6.86,0-11.37-5.1-11.39-12.24v-20.82h11.73v18.36c.02,3.23,1.72,5.18,4.67,5.18s4.78-1.95,4.76-5.18v-18.36Z"/>
      <path class="cls-7" d="M425.27,430.45h-5.61v13.64c0,1.36.68,2.04,2.21,2.04.7,0,1.85-.23,2.3-.34l1.7,8.24c-1.06.32-3.04.87-5.7,1.02-8.1.45-12.32-3.02-12.24-9.86v-14.75h-4.17v-8.5h4.17v-7.82h11.73v7.82h5.61v8.5Z"/>
      <path class="cls-7" d="M430.03,421.95h11.73v32.64h-11.73v-32.64ZM430.12,413.2c0-2.95,2.59-5.35,5.78-5.35s5.78,2.4,5.78,5.35-2.59,5.35-5.78,5.35-5.78-2.4-5.78-5.35Z"/>
      <path class="cls-7" d="M446.52,438.36c0-10.03,6.29-16.83,16.91-16.83s16.91,6.8,16.91,16.83-6.29,16.83-16.91,16.83-16.91-6.8-16.91-16.83ZM468.36,438.27c0-5.12-1.87-8.24-4.84-8.24-3.15,0-5.02,3.12-5.02,8.24s1.87,8.24,5.02,8.24c2.97,0,4.84-3.12,4.84-8.24Z"/>
      <path class="cls-7" d="M496.84,454.59h-11.73v-32.64h11.13v6.21h.34c1.42-4.12,5.23-6.63,10.03-6.63,6.93,0,11.41,5.14,11.39,12.24v20.82h-11.73v-18.36c.02-3.23-1.72-5.18-4.67-5.18s-4.74,1.96-4.76,5.18v18.36Z"/>
      <path class="cls-7" d="M542.82,432.58c-.17-2-2.1-3.23-4.42-3.23-2.02,0-3.7.76-3.65,2.13-.04.96.66,1.85,3.14,2.29l6.63,1.19c6.67,1.21,9.9,4.02,9.94,8.84-.04,6.99-6.69,11.39-15.72,11.39-9.99,0-15.77-4.44-16.4-11.13h11.64c.32,2.08,2.19,3.23,4.84,3.23,2.15,0,3.7-.76,3.74-2.12-.04-1.23-1.19-1.91-3.74-2.38l-5.78-1.02c-6.65-1.17-9.99-4.46-9.94-9.6-.04-6.8,5.71-10.62,15.04-10.62s15.17,4.14,15.47,11.05h-10.79Z"/>
      <path class="cls-7" d="M570.7,454.59v-43.52h16.57c13.43,0,21.84,8.16,21.84,21.76s-8.41,21.76-21.67,21.76h-16.74ZM587.02,444.56c6.46,0,10.2-2.63,10.2-11.73s-3.74-11.73-10.54-11.73h-4.16v23.46h4.5Z"/>
      <path class="cls-7" d="M614.73,421.95h11.73v32.64h-11.73v-32.64ZM614.82,413.2c0-2.95,2.59-5.35,5.78-5.35s5.78,2.4,5.78,5.35-2.59,5.35-5.78,5.35-5.78-2.4-5.78-5.35Z"/>
      <path class="cls-7" d="M632.41,421.95h11.13v6.21h.34c1.36-4.08,4.82-6.63,9.35-6.63s8.24,2.63,8.92,6.63h.34c1.11-3.99,5.02-6.63,9.86-6.63,6.25,0,10.54,4.36,10.54,11.05v22.01h-11.73v-19.04c0-2.85-1.57-4.59-4-4.59s-3.91,1.74-3.91,4.59v19.04h-11.22v-19.04c0-2.85-1.57-4.59-4-4.59s-3.91,1.74-3.91,4.59v19.04h-11.73v-32.64Z"/>
      <path class="cls-7" d="M687.49,438.36c0-10.11,6.46-16.83,16.57-16.83s16.23,6.35,16.23,16.74v2.72h-21.25v.51c0,3.14,2.04,5.44,5.52,5.44,2.4,0,4.33-1.04,5.01-2.89h10.71c-1.11,6.8-6.93,11.13-15.98,11.13-10.45,0-16.83-6.27-16.83-16.83ZM709.5,434.53c-.07-2.8-2.27-4.76-5.19-4.76s-5.21,1.93-5.27,4.76h10.46Z"/>
      <path class="cls-7" d="M736.79,454.59h-11.73v-32.64h11.13v6.21h.34c1.42-4.12,5.23-6.63,10.03-6.63,6.93,0,11.41,5.14,11.39,12.24v20.82h-11.73v-18.36c.02-3.23-1.72-5.18-4.67-5.18s-4.74,1.96-4.76,5.18v18.36Z"/>
      <path class="cls-7" d="M782.77,432.58c-.17-2-2.1-3.23-4.42-3.23-2.02,0-3.7.76-3.65,2.13-.04.96.66,1.85,3.15,2.29l6.63,1.19c6.67,1.21,9.9,4.02,9.94,8.84-.04,6.99-6.69,11.39-15.72,11.39-9.99,0-15.77-4.44-16.4-11.13h11.64c.32,2.08,2.19,3.23,4.85,3.23,2.15,0,3.7-.76,3.74-2.12-.04-1.23-1.19-1.91-3.74-2.38l-5.78-1.02c-6.65-1.17-9.99-4.46-9.94-9.6-.04-6.8,5.72-10.62,15.04-10.62s15.17,4.14,15.47,11.05h-10.8Z"/>
      <path class="cls-7" d="M798.92,421.95h11.73v32.64h-11.73v-32.64ZM799.01,413.2c0-2.95,2.59-5.35,5.78-5.35s5.78,2.4,5.78,5.35-2.59,5.35-5.78,5.35-5.78-2.4-5.78-5.35Z"/>
      <path class="cls-7" d="M815.41,438.36c0-10.03,6.29-16.83,16.91-16.83s16.91,6.8,16.91,16.83-6.29,16.83-16.91,16.83-16.91-6.8-16.91-16.83ZM837.26,438.27c0-5.12-1.87-8.24-4.85-8.24-3.14,0-5.01,3.12-5.01,8.24s1.87,8.24,5.01,8.24c2.98,0,4.85-3.12,4.85-8.24Z"/>
      <path class="cls-7" d="M865.73,454.59h-11.73v-32.64h11.13v6.21h.34c1.42-4.12,5.23-6.63,10.03-6.63,6.93,0,11.41,5.14,11.39,12.24v20.82h-11.73v-18.36c.02-3.23-1.72-5.18-4.67-5.18s-4.74,1.96-4.76,5.18v18.36Z"/>
      <path class="cls-7" d="M911.71,432.58c-.17-2-2.1-3.23-4.42-3.23-2.02,0-3.7.76-3.65,2.13-.04.96.66,1.85,3.15,2.29l6.63,1.19c6.67,1.21,9.9,4.02,9.94,8.84-.04,6.99-6.69,11.39-15.72,11.39-9.99,0-15.77-4.44-16.4-11.13h11.64c.32,2.08,2.19,3.23,4.85,3.23,2.15,0,3.7-.76,3.74-2.12-.04-1.23-1.19-1.91-3.74-2.38l-5.78-1.02c-6.65-1.17-9.99-4.46-9.94-9.6-.04-6.8,5.72-10.62,15.04-10.62s15.17,4.14,15.47,11.05h-10.8Z"/>
    </g>
  </g>
  <g>
    <g>
      <path class="cls-22" d="M325.64,81.56c-43.87-55.68-130.7-22.81-130.7-22.81-4.8-.62-9.7-.94-14.67-.94l-64.32-.6c3.02-2.83,4.67-7.1,3.84-11.7-.94-5.22-5.11-9.35-10.34-10.24-4.7-.8-9.03.99-11.82,4.17h-4.28c3.56-2.25,5.92-6.21,5.92-10.72s-2.36-8.47-5.91-10.72h4.02c3.06,3.48,7.95,5.31,13.15,3.96,4.36-1.14,7.82-4.56,9-8.91,1.38-5.11-.31-9.94-3.64-13.04h64.16C200.01,0,219.17,3.43,236.97,9.73c21.21,7.5,40.5,19.08,56.92,33.8,4.73,4.23,9.21,8.72,13.44,13.45,6.8,7.61,12.94,15.84,18.31,24.59Z"/>
      <path class="cls-3" d="M115.68,8.95c0,3.57-2.08,6.65-5.11,8.09-.28.13-.57.25-.86.35-.93.33-1.94.51-2.98.51s-2.04-.18-2.98-.51c-1.97-.69-3.63-2.07-4.69-3.84h-61.82c-1.06,1.77-2.72,3.14-4.69,3.84-.93.33-1.94.51-2.98.51s-2.05-.18-2.98-.51h.01c-.29-.1-.58-.22-.86-.35-3.02-1.44-5.11-4.52-5.11-8.09s2.09-6.65,5.11-8.09c.28-.13.57-.25.86-.35C27.53.18,28.54,0,29.58,0s2.05.18,2.98.51h-.03c1.97.7,3.63,2.07,4.69,3.84h61.89c1.06-1.77,2.72-3.14,4.69-3.84h-.03C104.69.18,105.69,0,106.74,0s2.04.18,2.98.51c.29.1.58.22.86.35,3.03,1.44,5.11,4.52,5.11,8.09Z"/>
      <path class="cls-9" d="M95.05,28.14c0,3.57-2.09,6.65-5.11,8.09-.28.14-.57.26-.87.36-.93.33-1.92.51-2.97.51s-2.04-.17-2.97-.51c-1.98-.69-3.64-2.07-4.69-3.84H16.61c-1.06,1.77-2.72,3.15-4.69,3.84h-.08c-.94.33-1.94.51-2.99.51s-2.04-.18-2.98-.51h.12c-.3-.1-.59-.22-.87-.36-3.02-1.43-5.11-4.51-5.11-8.09s2.09-6.65,5.11-8.09c.28-.14.57-.25.86-.35h-.11c.94-.33,1.94-.51,2.98-.51s2.05.18,2.99.51h.1c1.97.7,3.63,2.07,4.68,3.84h61.82c1.06-1.77,2.72-3.14,4.69-3.84.93-.33,1.94-.51,2.98-.51s2.04.18,2.98.51c.29.1.58.22.86.35,3.02,1.44,5.11,4.52,5.11,8.09Z"/>
      <path class="cls-8" d="M115.68,47.34c0,3.57-2.08,6.65-5.11,8.09-.28.13-.57.25-.86.35-.93.33-1.94.51-2.98.51s-2.04-.18-2.98-.51c-1.97-.69-3.63-2.07-4.69-3.84h-61.82c-1.06,1.77-2.72,3.14-4.69,3.84-.93.33-1.94.51-2.98.51s-2.05-.18-2.98-.51h.01c-.29-.1-.58-.22-.86-.35-3.02-1.43-5.11-4.52-5.11-8.09s2.09-6.66,5.11-8.09c.28-.13.57-.25.86-.35h-.01c.93-.33,1.94-.51,2.98-.51s2.05.18,2.98.51c1.97.7,3.63,2.07,4.69,3.84h61.82c1.06-1.77,2.72-3.15,4.69-3.84.93-.33,1.93-.51,2.98-.51s2.04.18,2.98.51c.29.1.58.22.86.35,3.03,1.43,5.11,4.52,5.11,8.09Z"/>
      <path class="cls-10" d="M122.24,216.87c.33.93.51,1.93.51,2.97s-.18,2.04-.51,2.97c-.1.3-.22.59-.36.87-1.44,3.02-4.52,5.11-8.09,5.11s-6.64-2.08-8.08-5.11c-.13-.28-.25-.57-.36-.87-.33-.93-.51-1.93-.51-2.97s.18-2.04.51-2.97c.69-1.98,2.07-3.64,3.84-4.69v-61.83c-1.77-1.06-3.14-2.72-3.84-4.7-.33-.93-.51-1.93-.51-2.97s.18-2.04.51-2.96c.1-.3.22-.59.36-.87,1.44-3.02,4.52-5.11,8.08-5.11s6.65,2.08,8.09,5.11c.14.28.26.58.36.87.33.93.51,1.93.51,2.96s-.18,2.04-.51,2.97c-.69,1.98-2.07,3.64-3.84,4.7v61.83c1.77,1.06,3.14,2.72,3.84,4.69Z"/>
      <path class="cls-19" d="M83.85,216.87c.33.93.51,1.93.51,2.97s-.18,2.04-.51,2.97c-.1.3-.22.59-.36.87-1.44,3.02-4.52,5.11-8.09,5.11s-6.64-2.08-8.08-5.11c-.13-.28-.25-.56-.36-.86-.33-.93-.51-1.93-.51-2.98s.18-2.05.51-2.98c.7-1.97,2.07-3.63,3.84-4.69v-61.82c-1.77-1.06-3.14-2.72-3.84-4.69-.33-.93-.51-1.93-.51-2.98s.18-2.05.51-2.97c.1-.29.22-.58.36-.86,1.44-3.02,4.52-5.11,8.08-5.11s6.65,2.08,8.09,5.11c.13.28.25.58.36.87.33.93.51,1.93.51,2.96s-.18,2.04-.51,2.97c-.69,1.98-2.07,3.64-3.84,4.7v61.83c1.77,1.06,3.14,2.72,3.84,4.69Z"/>
      <path class="cls-15" d="M103.05,196.22c.33.93.51,1.94.51,2.98s-.18,2.05-.51,2.97c-.1.3-.22.58-.35.86-1.44,3.02-4.52,5.11-8.09,5.11s-6.65-2.08-8.09-5.11c-.13-.28-.25-.56-.35-.86-.33-.93-.51-1.93-.51-2.97s.18-2.05.51-2.98c.7-1.97,2.07-3.63,3.84-4.69v-61.82c-1.77-1.06-3.14-2.71-3.84-4.69-.33-.93-.51-1.94-.51-2.98s.18-2.04.51-2.97c.1-.29.22-.58.35-.86,1.44-3.02,4.52-5.11,8.09-5.11s6.65,2.09,8.09,5.11c.13.28.25.57.35.86.33.93.51,1.93.51,2.97s-.18,2.05-.51,2.98c-.7,1.97-2.07,3.63-3.84,4.69v61.82c1.77,1.06,3.14,2.71,3.84,4.69Z"/>
      <path class="cls-11" d="M350.82,170.93c0,5.41-.25,10.75-.74,16.03,0,.02,0,.04,0,.06-1.32,14.21-4.38,27.91-8.96,40.89-7.5,21.23-19.07,40.54-33.77,56.98-4.23,4.73-8.71,9.22-13.44,13.46-16.43,14.71-35.71,26.29-56.92,33.8-17.8,6.3-36.96,9.73-56.92,9.73h-56.92s-43.38,0-43.38,0c-7.31,0-13.23-5.93-13.23-13.24v-100.22c2.56,2.76,6.32,4.38,10.43,3.99,6.07-.56,10.9-5.5,11.42-11.57.36-4.25-1.37-8.12-4.26-10.67v-4.22c2.25,3.55,6.21,5.91,10.71,5.91s8.46-2.36,10.71-5.91v4.22c-2.89,2.55-4.62,6.42-4.26,10.67.51,6.08,5.35,11.03,11.42,11.58,4.12.38,7.87-1.24,10.43-4v40.57c0,8.49,6.76,15.44,15.24,15.67,12.4.33,29.78.73,41.91.73,20.83,0,40.35-5.61,57.14-15.4,17.02-9.93,31.23-24.15,41.15-41.19,9.78-16.8,15.38-36.35,15.38-57.2,0-12.47-2-24.47-5.71-35.7-2.49-7.55-5.75-14.74-9.68-21.5-9.92-17.04-24.13-31.27-41.15-41.2-12.78-7.45-27.15-12.48-42.47-14.46,0,0,86.83-32.87,130.7,22.81,11.37,14.43,19.86,34.82,23.19,63.27,1.3,8.51,1.98,17.23,1.98,26.1Z"/>
    </g>
    <g>
      <path class="cls-16" d="M547.65,136.2c14.73,37.81,28.38,82.58,19.69,101.66-1.55-13.8-14.83-22.54-50.12-30.27l-33.29-7.16c-6.66-1.43-13.03-3.06-19.09-4.91-47.85-14.59-76.38-42.62-76.24-88.85-.49-63.5,55.67-106.15,135.15-106.15s131.56,43.3,131.88,108.75h-86.83c-1.8-21.65-15.67-34.51-45.05-34.51-1,0-1.99.01-2.95.05-19.81.55-31.14,6.78-35.46,15.97-1.36,2.87-2.03,6.02-2.07,9.37-.82,15.96,13.38,25.23,45.05,31.91l19.34,4.14Z"/>
      <path class="cls-4" d="M660.2,240.16c-.33,65.77-51.09,102.24-135.81,102.24-67.64,0-117-22.55-135.86-71.76-.53-1.38-.11-2.93,1.03-3.87,0,0,.01-.01.03-.03.61-.5,1.39-.79,2.18-.79h53.69c1.56,1.52,3.44,2.69,5.49,3.4,1.63.59,3.33.87,5.07.87s3.44-.29,5.07-.87c.47-.17.94-.36,1.42-.59,5.26-2.48,8.66-7.85,8.66-13.66s-3.4-11.19-8.68-13.68c-.46-.22-.94-.42-1.41-.58-1.62-.59-3.33-.87-5.06-.87s-3.44.29-5.04.86c-.34.12-.68.25-1.01.4.56-1.58.86-3.27.86-5s-.3-3.41-.86-4.99c.32.15.65.27.97.39,1.63.58,3.33.87,5.07.87s3.44-.29,5.07-.87c.47-.18.94-.37,1.42-.6.84-.4,1.64-.87,2.38-1.4.95-.7,2.29-.16,2.52,1,4.92,24.55,24.64,37.52,55.67,37.52,29.06,0,44.08-11.56,44.4-28-.01-.78-.07-1.55-.15-2.3,8.69-19.08-4.96-63.86-19.69-101.66l8.08,1.73c73.77,15.79,104.14,51.44,104.47,102.24Z"/>
      <path class="cls-17" d="M464.82,217.5c0,1.4-.33,2.73-.91,3.91-.87,1.78-2.33,3.21-4.12,4.07-.27.13-.56.25-.84.35-.91.33-1.9.51-2.93.51s-2.02-.18-2.94-.51c-1.94-.68-3.58-2.04-4.62-3.78h-60.93c-.91,1.53-2.28,2.75-3.91,3.49-.23.1-.47.2-.71.29-.86.3-1.77.48-2.72.5-.08,0-.15,0-.22,0-1.03,0-2.02-.18-2.94-.51-.23-.09-.47-.18-.7-.29-.05-.02-.1-.04-.15-.06-2.97-1.42-5.03-4.45-5.03-7.97s2.06-6.56,5.03-7.97c.28-.13.56-.25.85-.35.91-.32,1.91-.5,2.93-.5s2.02.18,2.94.5h-.04c1.94.69,3.58,2.04,4.62,3.78h61c1.04-1.74,2.68-3.1,4.62-3.78h-.03c.92-.32,1.9-.5,2.94-.5s2.02.18,2.93.5c.29.1.57.22.84.35,2.99,1.41,5.04,4.45,5.04,7.97Z"/>
      <path class="cls-5" d="M376.19,209.53c.28-.13.56-.25.85-.35.91-.32,1.91-.5,2.93-.5s2.02.18,2.94.5h-.04c1.94.69,3.58,2.04,4.62,3.78h61c1.04-1.74,2.68-3.1,4.62-3.78h-.03c.92-.32,1.9-.5,2.94-.5s2.02.18,2.93.5c.29.1.57.22.84.35,2.99,1.41,5.04,4.45,5.04,7.97,0,1.4-.33,2.73-.91,3.91-.87,1.78-2.33,3.21-4.12,4.07-.27.13-.56.25-.84.35-.91.33-1.9.51-2.93.51s-2.02-.18-2.94-.51c-1.94-.68-3.58-2.04-4.62-3.78h-60.93c-.91,1.53-2.28,2.75-3.91,3.49-.23.1-.47.2-.71.29-.86.3-1.77.48-2.72.5-.08,0-.15,0-.22,0-1.03,0-2.02-.18-2.94-.51-.23-.09-.47-.18-.7-.29-.05-.02-.1-.04-.15-.06-2.97-1.42-5.03-4.45-5.03-7.97s2.06-6.56,5.03-7.97ZM367.19,240.96c-1.05,1.74-2.68,3.1-4.63,3.78h-.08c-.92.33-1.91.51-2.94.51s-2.02-.18-2.94-.51h.11c-.29-.1-.58-.22-.86-.35-2.98-1.41-5.04-4.45-5.04-7.97s2.06-6.55,5.04-7.97c.27-.14.56-.25.85-.35h-.11c.92-.33,1.91-.51,2.94-.51s2.02.18,2.94.51h.1c1.93.69,3.57,2.04,4.61,3.78h60.93c.91-1.53,2.28-2.75,3.91-3.49.23-.1.48-.2.72-.29.91-.33,1.9-.51,2.94-.51s2.02.18,2.94.51c.23.08.47.17.7.29.04.02.1.04.14.06,2.97,1.41,5.03,4.45,5.03,7.97s-2.06,6.56-5.03,7.97c-.05.03-.1.05-.16.07-.23.11-.46.2-.7.28-.92.33-1.9.5-2.92.5s-2.02-.17-2.93-.5c-.24-.08-.48-.18-.72-.28-1.63-.74-3-1.97-3.91-3.5h-60.94ZM459.79,263.3c-.27.13-.56.25-.84.35-.92.32-1.9.5-2.93.5s-2.02-.18-2.94-.5c-1.94-.69-3.58-2.04-4.62-3.79h-60.93c-.51.86-1.18,1.62-1.95,2.27-.79.65-1.69,1.17-2.67,1.52-.92.32-1.91.5-2.94.5s-2.02-.18-2.94-.5c-.28-.11-.56-.22-.84-.35-2.97-1.41-5.03-4.45-5.03-7.97s2.06-6.56,5.03-7.97c.05-.03.1-.04.15-.06.23-.11.47-.2.7-.28.92-.33,1.9-.51,2.93-.51.74,0,1.46.09,2.15.27.03.18.06.35.09.52h1.41c1.63.74,2.99,1.97,3.91,3.5h60.93c1.05-1.74,2.68-3.1,4.62-3.78.92-.33,1.9-.51,2.94-.51s2.01.18,2.93.51c.29.1.57.22.84.35,2.99,1.41,5.04,4.45,5.04,7.97s-2.05,6.56-5.04,7.97Z"/>
      <path class="cls-2" d="M444.49,236.41c0,3.52-2.06,6.56-5.03,7.97-.05.03-.1.05-.16.07-.23.11-.46.2-.7.28-.92.33-1.9.5-2.92.5s-2.02-.17-2.93-.5c-.24-.08-.48-.18-.72-.28-1.63-.74-3-1.97-3.91-3.5h-60.94c-1.05,1.74-2.68,3.1-4.63,3.78h-.08c-.92.33-1.91.51-2.94.51s-2.02-.18-2.94-.51h.11c-.29-.1-.58-.22-.86-.35-2.98-1.41-5.04-4.45-5.04-7.97s2.06-6.55,5.04-7.97c.27-.14.56-.25.85-.35h-.11c.92-.33,1.91-.51,2.94-.51s2.02.18,2.94.51h.1c1.93.69,3.57,2.04,4.61,3.78h60.93c.91-1.53,2.28-2.75,3.91-3.49.23-.1.48-.2.72-.29.91-.33,1.9-.51,2.94-.51s2.02.18,2.94.51c.23.08.47.17.7.29.04.02.1.04.14.06,2.97,1.41,5.03,4.45,5.03,7.97Z"/>
      <path class="cls-12" d="M464.82,255.33c0,3.51-2.05,6.56-5.04,7.97-.27.13-.56.25-.84.35-.92.32-1.9.5-2.93.5s-2.02-.18-2.94-.5c-1.94-.69-3.58-2.04-4.62-3.79h-60.93c-.51.86-1.18,1.62-1.95,2.27-.79.65-1.69,1.17-2.67,1.52-.92.32-1.91.5-2.94.5s-2.02-.18-2.94-.5c-.28-.11-.56-.22-.84-.35-2.97-1.41-5.03-4.45-5.03-7.97s2.06-6.56,5.03-7.97c.05-.03.1-.04.15-.06.23-.11.47-.2.7-.28.92-.33,1.9-.51,2.93-.51.74,0,1.46.09,2.15.27.03.18.06.35.09.52h1.41c1.63.74,2.99,1.97,3.91,3.5h60.93c1.05-1.74,2.68-3.1,4.62-3.78.92-.33,1.9-.51,2.94-.51s2.01.18,2.93.51c.29.1.57.22.84.35,2.99,1.41,5.04,4.45,5.04,7.97Z"/>
    </g>
    <path class="cls-1" d="M681.31.52h-1.41c-.03-.17-.06-.34-.09-.52.27.06.53.14.79.23.24.09.48.18.71.28Z"/>
    <g>
      <g>
        <path class="cls-21" d="M975.39,171.13c.03,4.15-.09,8.28-.37,12.39-14.67,101.73-176.22,100.73-180.52,100.68,23.39-.89,49.21-4.15,67.17-15.31,52.91-28.95,72.55-103.45,40.94-154.76-1.82-3.29-3.74-6.39-5.76-9.32-24.08-35.06-61.02-45.13-100.75-47.48-32.08-1.9-65.97,1.24-96.35.3-4.82-.15-8.64-4.12-8.64-8.94V9.85c0-5.01,4.11-9.04,9.12-8.94,43.5.86,128.96-6.31,161.45,9.36,53.24,19.15,94.07,63.89,108.28,117.54,0,.03.02.06.03.09,3.68,13.91,5.56,28.42,5.41,43.23Z"/>
        <path class="cls-14" d="M975.02,183.52c-4.56,66.62-50.06,126.57-113.34,148.48-29.6,12.4-76.38,9.57-109.6,9.68-1.4,0-2.77.01-4.12.03h-56.85v-142.45c2.56,4.03,7.07,6.54,11.91,6.54,5.43,0,10.43-3.16,12.76-8.08.2-.43.39-.87.54-1.3.54-1.52.81-3.1.81-4.72,0-1.22-.16-2.44-.47-3.59.85.16,1.72.24,2.6.24s1.74-.08,2.58-.24c-.46,1.76-.58,3.59-.35,5.44.14,1.08.42,2.14.8,3.16.13.34.28.69.44,1.05,2.33,4.89,7.33,8.05,12.75,8.05s10.03-2.92,12.47-7.5v86.32c1.27-.07,2.65-.11,4.12-.14,10.45-.21,25.78.36,42.34-.27h.08c4.3.05,165.84,1.05,180.52-100.68Z"/>
      </g>
      <path class="cls-23" d="M742.64,189.17c.27.79.43,1.63.43,2.52s-.16,1.73-.43,2.52c-.08.24-.19.48-.3.72-1.22,2.56-3.82,4.33-6.84,4.33s-5.63-1.76-6.85-4.33c-.1-.24-.21-.48-.29-.72-.28-.79-.44-1.64-.44-2.52s.16-1.73.44-2.52c.58-1.67,1.74-3.07,3.24-3.97v-52.3c-.73-.43-1.37-.99-1.91-1.63-.58-.68-1.03-1.47-1.33-2.33-.28-.78-.44-1.63-.44-2.52s.16-1.73.44-2.51c.08-.26.19-.5.29-.73.28-.58.63-1.12,1.04-1.61,1.39-1.66,3.48-2.71,5.81-2.71,3.02,0,5.63,1.76,6.84,4.32.11.23.22.48.3.73.27.78.43,1.63.43,2.51s-.16,1.74-.43,2.52v-.03c-.59,1.67-1.75,3.07-3.25,3.97v52.36c1.5.9,2.66,2.3,3.25,3.97v-.03Z"/>
      <path class="cls-18" d="M726.4,171.71c.28.78.43,1.63.43,2.52s-.15,1.73-.43,2.52c-.08.24-.18.49-.3.73-.27.58-.62,1.12-1.03,1.6-1.39,1.66-3.47,2.72-5.8,2.72s-4.43-1.06-5.81-2.72c-.41-.48-.76-1.03-1.03-1.6-.12-.24-.22-.48-.31-.73-.28-.79-.42-1.63-.42-2.51s.14-1.73.42-2.52c.09-.27.2-.53.33-.78.27-.56.61-1.09,1.01-1.56.54-.65,1.19-1.2,1.91-1.63v-52.31c-1.5-.9-2.66-2.29-3.25-3.97v-.07c-.28-.79-.43-1.64-.43-2.53s.15-1.73.43-2.52v.1c.09-.26.19-.5.31-.74,1.22-2.56,3.82-4.33,6.84-4.33s5.62,1.77,6.84,4.33c.12.23.22.48.3.73v-.09c.28.8.43,1.64.43,2.52s-.15,1.74-.43,2.53v.09c-.59,1.66-1.74,3.06-3.25,3.96v52.31c.73.43,1.38.99,1.91,1.63.4.47.74.99,1.01,1.56.12.25.24.51.33.78Z"/>
      <path class="cls-13" d="M710.16,189.17c.28.79.43,1.63.43,2.52s-.15,1.73-.43,2.52c-.09.24-.19.48-.3.72-1.22,2.56-3.82,4.33-6.84,4.33s-5.63-1.76-6.84-4.33c-.11-.24-.22-.48-.3-.72-.28-.79-.43-1.64-.43-2.52s.15-1.73.43-2.52c.59-1.67,1.75-3.07,3.25-3.97v-52.3c-1.5-.9-2.66-2.29-3.25-3.97-.28-.78-.43-1.63-.43-2.52s.15-1.73.43-2.51c.08-.26.19-.5.3-.73,1.22-2.56,3.82-4.32,6.84-4.32,2.33,0,4.42,1.05,5.8,2.71.41.49.76,1.03,1.04,1.61.11.23.21.48.3.73.28.78.43,1.63.43,2.51s-.15,1.74-.43,2.52c-.31.86-.76,1.65-1.34,2.33-.54.65-1.18,1.2-1.91,1.63v52.3c1.5.9,2.66,2.3,3.25,3.97Z"/>
      <path class="cls-20" d="M975.39,171.13c.15-14.82-1.73-29.33-5.41-43.23,6.04,21.31,7.33,39.72,5.04,55.62.28-4.1.41-8.24.37-12.39Z"/>
    </g>
  </g>
</svg>