<?xml version="1.0" encoding="UTF-8"?>
<svg id="Layer_1" data-name="Layer 1" xmlns="http://www.w3.org/2000/svg" xmlns:xlink="http://www.w3.org/1999/xlink" viewBox="0 0 1567.3 589.06">
  <defs>
    <style>
      .cls-1 {
        fill: url(#linear-gradient-15);
      }

      .cls-2 {
        fill: url(#linear-gradient-13);
      }

      .cls-3 {
        fill: url(#linear-gradient-2);
      }

      .cls-4 {
        fill: url(#linear-gradient-10);
      }

      .cls-5 {
        fill: url(#linear-gradient-12);
      }

      .cls-6 {
        fill: #231f20;
      }

      .cls-7 {
        fill: #00adb1;
      }

      .cls-8 {
        fill: #fff;
      }

      .cls-9 {
        fill: url(#linear-gradient-4);
      }

      .cls-10 {
        fill: url(#linear-gradient-3);
      }

      .cls-11 {
        fill: url(#linear-gradient-5);
      }

      .cls-12 {
        fill: url(#linear-gradient-8);
      }

      .cls-13 {
        fill: url(#linear-gradient-14);
      }

      .cls-14 {
        fill: url(#linear-gradient-7);
      }

      .cls-15 {
        fill: url(#linear-gradient-9);
      }

      .cls-16 {
        fill: url(#linear-gradient-11);
      }

      .cls-17 {
        fill: url(#linear-gradient-6);
      }

      .cls-18 {
        fill: url(#linear-gradient);
      }
    </style>
    <linearGradient id="linear-gradient" x1="1123.23" y1="70.26" x2="1523.88" y2="70.26" gradientUnits="userSpaceOnUse">
      <stop offset="0" stop-color="#00adb1"/>
      <stop offset=".13" stop-color="#228faa"/>
      <stop offset=".28" stop-color="#4175a5"/>
      <stop offset=".43" stop-color="#5860a1"/>
      <stop offset=".6" stop-color="#69529e"/>
      <stop offset=".78" stop-color="#73499c"/>
      <stop offset="1" stop-color="#77479c"/>
    </linearGradient>
    <linearGradient id="linear-gradient-2" x1="999.01" y1="16.16" x2="1162.34" y2="16.16" gradientUnits="userSpaceOnUse">
      <stop offset="0" stop-color="#103d3e"/>
      <stop offset="1" stop-color="#1a6b6f"/>
    </linearGradient>
    <linearGradient id="linear-gradient-3" x1="963.55" y1="49.15" x2="1126.88" y2="49.15" gradientUnits="userSpaceOnUse">
      <stop offset="0" stop-color="#00adb1"/>
      <stop offset="1" stop-color="#77479c"/>
    </linearGradient>
    <linearGradient id="linear-gradient-4" x1="999.01" y1="82.13" x2="1162.34" y2="82.13" xlink:href="#linear-gradient-3"/>
    <linearGradient id="linear-gradient-5" x1="2300.13" y1="102.57" x2="2498.92" y2="102.57" gradientTransform="translate(-1336.58 -53.42)" xlink:href="#linear-gradient-3"/>
    <linearGradient id="linear-gradient-6" x1="2300.13" y1="102.57" x2="2498.92" y2="102.57" gradientTransform="translate(-1336.58 -53.42)" xlink:href="#linear-gradient-3"/>
    <linearGradient id="linear-gradient-7" x1="2300.13" y1="102.57" x2="2498.92" y2="102.57" gradientTransform="translate(-1336.58 -53.42)" xlink:href="#linear-gradient-3"/>
    <linearGradient id="linear-gradient-8" x1="1143.71" y1="312.27" x2="1174.48" y2="312.27" xlink:href="#linear-gradient-3"/>
    <linearGradient id="linear-gradient-9" x1="1077.74" y1="312.27" x2="1108.51" y2="312.27" xlink:href="#linear-gradient-3"/>
    <linearGradient id="linear-gradient-10" x1="1110.72" y1="276.81" x2="1141.5" y2="276.81" xlink:href="#linear-gradient-3"/>
    <linearGradient id="linear-gradient-11" x1="2414.32" y1="347.96" x2="2511.06" y2="347.96" gradientTransform="translate(-1336.58 -53.42)" xlink:href="#linear-gradient-3"/>
    <linearGradient id="linear-gradient-12" x1="2414.32" y1="347.96" x2="2511.06" y2="347.96" gradientTransform="translate(-1336.58 -53.42)" xlink:href="#linear-gradient-3"/>
    <linearGradient id="linear-gradient-13" x1="2414.32" y1="347.96" x2="2511.06" y2="347.96" gradientTransform="translate(-1336.58 -53.42)" xlink:href="#linear-gradient-3"/>
    <linearGradient id="linear-gradient-14" x1="1267.99" y1="488.2" x2="1484.98" y2="48.5" gradientUnits="userSpaceOnUse">
      <stop offset="0" stop-color="#77479c"/>
      <stop offset="1" stop-color="#00adb1"/>
    </linearGradient>
    <linearGradient id="linear-gradient-15" x1="2658.72" y1="503.23" x2="2658.72" y2="94.96" gradientTransform="translate(-1336.58 -53.42)" gradientUnits="userSpaceOnUse">
      <stop offset="0" stop-color="#77479c"/>
      <stop offset=".33" stop-color="#4471a4"/>
      <stop offset=".62" stop-color="#1f92ab"/>
      <stop offset=".85" stop-color="#08a5af"/>
      <stop offset="1" stop-color="#00adb1"/>
    </linearGradient>
  </defs>
  <g>
    <g>
      <g>
        <path class="cls-6" d="M49.97,297.58c-9.59,0-18.18-1.77-25.78-5.3-7.59-3.53-13.52-8.38-17.79-14.55C2.14,271.57,0,264.64,0,256.94,0,254.73.16,251.94.48,248.56c.32-3.37.73-7.12,1.26-11.22.52-4.11,1.13-8.41,1.82-12.89.69-4.48,1.34-8.83,1.98-13.05l26.88,3.48c-1.16,6.96-2.11,13.26-2.84,18.9-.74,5.64-1.32,10.39-1.74,14.23-.42,3.85-.63,6.72-.63,8.62,0,3.69.84,6.85,2.53,9.49,1.68,2.63,4.24,4.69,7.67,6.17,3.42,1.47,7.62,2.21,12.57,2.21,5.38,0,9.54-.77,12.49-2.29,2.95-1.53,5.01-3.56,6.17-6.09,1.16-2.53,1.74-5.27,1.74-8.22v-110.22h27.2v110.22c0,7.9-2.03,14.84-6.09,20.79-4.06,5.96-9.67,10.6-16.84,13.92-7.17,3.32-15.39,4.98-24.67,4.98Z"/>
        <path class="cls-6" d="M389.01,147.67v87.61h-33.52v-15.02c0-8.54-2.08-15.9-6.24-22.07-4.17-6.17-9.81-10.94-16.92-14.3-7.11-3.38-15.21-5.07-24.27-5.07-4.32,0-8.67.34-13.05,1.03-4.38.69-8.83,1.56-13.36,2.61l2.37,21.34c4.42-.63,8.44-1.08,12.01-1.34,3.59-.26,6.43-.4,8.54-.4,8.44,0,14.5,1.56,18.19,4.66,3.69,3.11,5.53,7.62,5.53,13.52v15.02h-73.69v-87.61h-27.2v87.61h-33.52v-56.46h-37.8c-8.85,0-16.42,1.56-22.69,4.67-6.27,3.11-11.04,7.66-14.31,13.68-3.26,6.01-4.9,13.39-4.9,22.14s1.64,16.03,4.9,21.82c3.27,5.8,8.04,10.12,14.31,12.97,6.27,2.84,13.84,4.27,22.69,4.27h10.6v4.9c0,4.85-1.48,8.44-4.43,10.76-2.95,2.32-7.8,3.48-14.55,3.48-2.43,0-5.45-.13-9.09-.4-3.64-.26-8.05-.71-13.21-1.35l-3.95,21.67c4.75.94,9.27,1.71,13.6,2.29,4.32.58,8.54.87,12.65.87,9.27,0,17.37-1.5,24.27-4.51,6.91-3,12.28-7.33,16.13-12.96,3.85-5.64,5.78-12.25,5.78-19.85v-4.9h222.33v-110.69h-27.2ZM166.68,235.28h-10.6c-3.38,0-6.15-.32-8.3-.95-2.16-.63-3.77-2.08-4.82-4.35-1.06-2.26-1.59-5.82-1.59-10.67,0-5.16.61-8.99,1.82-11.47,1.21-2.48,2.93-4.08,5.14-4.82,2.22-.74,4.8-1.11,7.75-1.11h10.6v33.37Z"/>
        <path class="cls-6" d="M440.24,258.37v-110.69h27.04v110.69h-27.04Z"/>
        <path class="cls-6" d="M587.77,228.8v29.57h-66.26v-23.08h39.06v-6.48c0-7.17-.69-12.68-2.06-16.53-1.38-3.84-3.64-6.53-6.8-8.06-3.16-1.52-7.59-2.29-13.28-2.29h-12.81v-23.09h12.81c10.64,0,19.66,1.77,27.04,5.3,7.38,3.53,12.94,8.99,16.68,16.37,3.74,7.38,5.61,16.82,5.61,28.31Z"/>
        <path class="cls-6" d="M778.49,274.81v20.72h27.36v-20.72h-27.36Z"/>
        <path class="cls-6" d="M778.49,178.82v56.46h-42.35c1.82-1.86,3.52-3.79,5.1-5.78,4.16-5.22,7.36-10.43,9.57-15.65,2.22-5.22,3.32-9.98,3.32-14.31v-8.7c-4.54-2.63-9.51-4.85-14.95-6.64-5.43-1.79-10.85-3.14-16.28-4.03-5.43-.89-10.42-1.35-14.95-1.35s-9.36.46-14.78,1.35c-5.43.9-10.86,2.25-16.29,4.03-5.43,1.79-10.42,4-14.95,6.64v8.7c0,4.33,1.11,9.09,3.32,14.31,2.22,5.22,5.4,10.43,9.57,15.65,1.59,1.99,3.29,3.91,5.11,5.78h-44.25v-87.61h-27.04v110.69h75.12c8.22,0,15.91-1.32,23.08-3.95.4-.15.79-.29,1.19-.44.4.15.79.3,1.18.44,7.17,2.64,14.86,3.95,23.08,3.95h73.54v-79.54h-27.36ZM725.2,208.72c-1.16,3.26-2.77,6.45-4.83,9.56-2.05,3.11-4.42,5.96-7.11,8.54-1.65,1.59-3.4,2.99-5.22,4.18-1.82-1.19-3.56-2.58-5.22-4.18-2.69-2.58-5.05-5.43-7.11-8.54-2.06-3.11-3.67-6.29-4.83-9.56-.46-1.31-.83-2.58-1.11-3.82.89-.28,1.79-.53,2.69-.77,5.58-1.47,10.75-2.22,15.49-2.22s10.07.74,15.66,2.22c.91.24,1.8.49,2.69.77-.28,1.23-.64,2.51-1.11,3.82Z"/>
        <path class="cls-6" d="M830.04,147.67v110.69h27.04v-110.69h-27.04Z"/>
        <path class="cls-6" d="M865.14,121.9v13.43h-43.17v-13.43h4.2c-.26-1.23-.4-2.49-.4-3.8,0-4,1.05-7.58,3.16-10.75,2.11-3.16,4.9-5.67,8.38-7.51,3.47-1.85,7.32-2.77,11.54-2.77,2.22,0,4.51.32,6.88.94,2.37.64,4.35,1.48,5.93,2.54l-6.16,11.38c-1.06-.53-2.09-.87-3.09-1.03-1-.16-1.98-.24-2.92-.24-2.54,0-4.48.67-5.85,1.98-1.37,1.32-2.06,3.03-2.06,5.13,0,1.27.24,2.45.71,3.56.08.18.16.37.26.55h22.59Z"/>
        <path class="cls-6" d="M320.53,333v20.72h25.94v-20.72h-25.94ZM354.22,333v20.72h25.78v-20.72h-25.78Z"/>
        <path class="cls-6" d="M409.09,464.57v20.72h25.94v-20.72h-25.94ZM442.77,464.57v20.72h25.78v-20.72h-25.78ZM483.1,448.11v.02h.15c-.05,0-.1,0-.15-.02ZM483.1,425.04h.15-.15Z"/>
        <path class="cls-6" d="M483.1,448.11v.02h.15c-.05,0-.1,0-.15-.02ZM483.1,425.04h.15-.15Z"/>
        <path class="cls-6" d="M622.25,333v20.72h25.94v-20.72h-25.94ZM655.93,333v20.72h25.78v-20.72h-25.78Z"/>
        <path class="cls-6" d="M649.76,368.59c-8.85,0-16.41,1.56-22.69,4.66-6.27,3.11-11.05,7.64-14.32,13.6-3.26,5.96-4.9,13.15-4.9,21.59,0,6.36.8,11.9,2.42,16.6h-30.88v-16.13c0-10.12-1.64-18.14-4.9-24.03-3.27-5.91-8.14-10.17-14.63-12.81-6.48-2.63-14.69-3.95-24.6-3.95-6.85,0-13.07.48-18.66,1.42-5.58.95-9.69,1.9-12.33,2.84-.64,2.33-1.32,5.46-2.06,9.42-.74,3.95-1.35,8.38-1.82,13.28-.47,4.9-.71,9.99-.71,15.26s.21,9.86.63,14.39c0,.11.02.21.03.32h-17.11c-.05,0-.1,0-.15.01h0s-21.35-.01-21.35-.01v-56.45h-27.2v56.45h-47.12v-56.45h-37.8c-8.85,0-16.42,1.56-22.69,4.66-6.28,3.11-11.05,7.67-14.31,13.67-3.27,6.01-4.9,13.39-4.9,22.14s1.63,16.03,4.9,21.83c3.26,5.8,8.03,10.11,14.31,12.96,6.26,2.84,13.83,4.27,22.69,4.27h133.47v-.02s.1.02.15.02h204.31v-79.53h-37.8ZM360.23,425.04h-10.6c-3.38,0-6.14-.32-8.3-.95-2.16-.63-3.76-2.08-4.82-4.35-1.06-2.26-1.59-5.82-1.59-10.67,0-5.16.61-8.99,1.82-11.47,1.21-2.47,2.93-4.08,5.14-4.82,2.22-.74,4.8-1.11,7.75-1.11h10.6v33.37ZM552.2,425.04h-24.57c-.15-1.36-.29-2.78-.41-4.27-.31-3.79-.47-7.27-.47-10.43,0-3.69.18-7.54.55-11.54.23-2.52.5-4.97.82-7.33,2.35-.17,4.74-.26,7.16-.26,4.54,0,8.02.5,10.44,1.5,2.42,1,4.11,2.75,5.06,5.22.95,2.48,1.42,6.04,1.42,10.67v16.45ZM660.36,425.04h-10.6c-3.69,0-6.59-.37-8.7-1.11-2.1-.73-3.64-2.27-4.58-4.59-.95-2.32-1.42-5.95-1.42-10.91,0-4.33.47-7.69,1.42-10.12.94-2.43,2.48-4.14,4.58-5.14,2.11-1,5.01-1.5,8.7-1.5h10.6v33.37Z"/>
        <path class="cls-6" d="M806,337.44v110.69h-60.57v2.22c0,7.69-1.61,14.57-4.83,20.64-3.21,6.06-7.69,10.81-13.44,14.23-5.75,3.43-12.47,5.14-20.16,5.14-1.16,0-2.58-.05-4.27-.16-1.69-.1-3.48-.26-5.38-.47l.48-22.62c1.89,0,3.66.03,5.29.08,1.64.05,2.82.08,3.56.08,3.59,0,6.41-1.45,8.46-4.35,2.06-2.9,3.08-7.1,3.08-12.57v-81.75h27.2v56.45h33.36v-87.6h27.21Z"/>
        <path class="cls-6" d="M830.04,448.12v-110.69h27.04v110.69h-27.04Z"/>
      </g>
      <g>
        <path class="cls-7" d="M49.97,297.58c-9.59,0-18.18-1.77-25.78-5.3-7.59-3.53-13.52-8.38-17.79-14.55C2.14,271.57,0,264.64,0,256.94,0,254.73.16,251.94.48,248.56c.32-3.37.73-7.12,1.26-11.22.52-4.11,1.13-8.41,1.82-12.89.69-4.48,1.34-8.83,1.98-13.05l26.88,3.48c-1.16,6.96-2.11,13.26-2.84,18.9-.74,5.64-1.32,10.39-1.74,14.23-.42,3.85-.63,6.72-.63,8.62,0,3.69.84,6.85,2.53,9.49,1.68,2.63,4.24,4.69,7.67,6.17,3.42,1.47,7.62,2.21,12.57,2.21,5.38,0,9.54-.77,12.49-2.29,2.95-1.53,5.01-3.56,6.17-6.09,1.16-2.53,1.74-5.27,1.74-8.22v-110.22h27.2v110.22c0,7.9-2.03,14.84-6.09,20.79-4.06,5.96-9.67,10.6-16.84,13.92-7.17,3.32-15.39,4.98-24.67,4.98Z"/>
        <path class="cls-7" d="M389.01,147.67v87.61h-33.52v-15.02c0-8.54-2.08-15.9-6.24-22.07-4.17-6.17-9.81-10.94-16.92-14.3-7.11-3.38-15.21-5.07-24.27-5.07-4.32,0-8.67.34-13.05,1.03-4.38.69-8.83,1.56-13.36,2.61l2.37,21.34c4.42-.63,8.44-1.08,12.01-1.34,3.59-.26,6.43-.4,8.54-.4,8.44,0,14.5,1.56,18.19,4.66,3.69,3.11,5.53,7.62,5.53,13.52v15.02h-73.69v-87.61h-27.2v87.61h-33.52v-56.46h-37.8c-8.85,0-16.42,1.56-22.69,4.67-6.27,3.11-11.04,7.66-14.31,13.68-3.26,6.01-4.9,13.39-4.9,22.14s1.64,16.03,4.9,21.82c3.27,5.8,8.04,10.12,14.31,12.97,6.27,2.84,13.84,4.27,22.69,4.27h10.6v4.9c0,4.85-1.48,8.44-4.43,10.76-2.95,2.32-7.8,3.48-14.55,3.48-2.43,0-5.45-.13-9.09-.4-3.64-.26-8.05-.71-13.21-1.35l-3.95,21.67c4.75.94,9.27,1.71,13.6,2.29,4.32.58,8.54.87,12.65.87,9.27,0,17.37-1.5,24.27-4.51,6.91-3,12.28-7.33,16.13-12.96,3.85-5.64,5.78-12.25,5.78-19.85v-4.9h222.33v-110.69h-27.2ZM166.68,235.28h-10.6c-3.38,0-6.15-.32-8.3-.95-2.16-.63-3.77-2.08-4.82-4.35-1.06-2.26-1.59-5.82-1.59-10.67,0-5.16.61-8.99,1.82-11.47,1.21-2.48,2.93-4.08,5.14-4.82,2.22-.74,4.8-1.11,7.75-1.11h10.6v33.37Z"/>
        <path class="cls-7" d="M440.24,258.37v-110.69h27.04v110.69h-27.04Z"/>
        <path class="cls-7" d="M587.77,228.8v29.57h-66.26v-23.08h39.06v-6.48c0-7.17-.69-12.68-2.06-16.53-1.38-3.84-3.64-6.53-6.8-8.06-3.16-1.52-7.59-2.29-13.28-2.29h-12.81v-23.09h12.81c10.64,0,19.66,1.77,27.04,5.3,7.38,3.53,12.94,8.99,16.68,16.37,3.74,7.38,5.61,16.82,5.61,28.31Z"/>
        <path class="cls-7" d="M778.49,274.81v20.72h27.36v-20.72h-27.36Z"/>
        <path class="cls-7" d="M778.49,178.82v56.46h-42.35c1.82-1.86,3.52-3.79,5.1-5.78,4.16-5.22,7.36-10.43,9.57-15.65,2.22-5.22,3.32-9.98,3.32-14.31v-8.7c-4.54-2.63-9.51-4.85-14.95-6.64-5.43-1.79-10.85-3.14-16.28-4.03-5.43-.89-10.42-1.35-14.95-1.35s-9.36.46-14.78,1.35c-5.43.9-10.86,2.25-16.29,4.03-5.43,1.79-10.42,4-14.95,6.64v8.7c0,4.33,1.11,9.09,3.32,14.31,2.22,5.22,5.4,10.43,9.57,15.65,1.59,1.99,3.29,3.91,5.11,5.78h-44.25v-87.61h-27.04v110.69h75.12c8.22,0,15.91-1.32,23.08-3.95.4-.15.79-.29,1.19-.44.4.15.79.3,1.18.44,7.17,2.64,14.86,3.95,23.08,3.95h73.54v-79.54h-27.36ZM725.2,208.72c-1.16,3.26-2.77,6.45-4.83,9.56-2.05,3.11-4.42,5.96-7.11,8.54-1.65,1.59-3.4,2.99-5.22,4.18-1.82-1.19-3.56-2.58-5.22-4.18-2.69-2.58-5.05-5.43-7.11-8.54-2.06-3.11-3.67-6.29-4.83-9.56-.46-1.31-.83-2.58-1.11-3.82.89-.28,1.79-.53,2.69-.77,5.58-1.47,10.75-2.22,15.49-2.22s10.07.74,15.66,2.22c.91.24,1.8.49,2.69.77-.28,1.23-.64,2.51-1.11,3.82Z"/>
        <path class="cls-7" d="M830.04,147.67v110.69h27.04v-110.69h-27.04Z"/>
        <path class="cls-7" d="M865.14,121.9v13.43h-43.17v-13.43h4.2c-.26-1.23-.4-2.49-.4-3.8,0-4,1.05-7.58,3.16-10.75,2.11-3.16,4.9-5.67,8.38-7.51,3.47-1.85,7.32-2.77,11.54-2.77,2.22,0,4.51.32,6.88.94,2.37.64,4.35,1.48,5.93,2.54l-6.16,11.38c-1.06-.53-2.09-.87-3.09-1.03-1-.16-1.98-.24-2.92-.24-2.54,0-4.48.67-5.85,1.98-1.37,1.32-2.06,3.03-2.06,5.13,0,1.27.24,2.45.71,3.56.08.18.16.37.26.55h22.59Z"/>
        <path class="cls-7" d="M320.53,333v20.72h25.94v-20.72h-25.94ZM354.22,333v20.72h25.78v-20.72h-25.78Z"/>
        <path class="cls-7" d="M409.09,464.57v20.72h25.94v-20.72h-25.94ZM442.77,464.57v20.72h25.78v-20.72h-25.78ZM483.1,448.11v.02h.15c-.05,0-.1,0-.15-.02ZM483.1,425.04h.15-.15Z"/>
        <path class="cls-7" d="M483.1,448.11v.02h.15c-.05,0-.1,0-.15-.02ZM483.1,425.04h.15-.15Z"/>
        <path class="cls-7" d="M622.25,333v20.72h25.94v-20.72h-25.94ZM655.93,333v20.72h25.78v-20.72h-25.78Z"/>
        <path class="cls-7" d="M649.76,368.59c-8.85,0-16.41,1.56-22.69,4.66-6.27,3.11-11.05,7.64-14.32,13.6-3.26,5.96-4.9,13.15-4.9,21.59,0,6.36.8,11.9,2.42,16.6h-30.88v-16.13c0-10.12-1.64-18.14-4.9-24.03-3.27-5.91-8.14-10.17-14.63-12.81-6.48-2.63-14.69-3.95-24.6-3.95-6.85,0-13.07.48-18.66,1.42-5.58.95-9.69,1.9-12.33,2.84-.64,2.33-1.32,5.46-2.06,9.42-.74,3.95-1.35,8.38-1.82,13.28-.47,4.9-.71,9.99-.71,15.26s.21,9.86.63,14.39c0,.11.02.21.03.32h-17.11c-.05,0-.1,0-.15.01h0s-21.35-.01-21.35-.01v-56.45h-27.2v56.45h-47.12v-56.45h-37.8c-8.85,0-16.42,1.56-22.69,4.66-6.28,3.11-11.05,7.67-14.31,13.67-3.27,6.01-4.9,13.39-4.9,22.14s1.63,16.03,4.9,21.83c3.26,5.8,8.03,10.11,14.31,12.96,6.26,2.84,13.83,4.27,22.69,4.27h133.47v-.02s.1.02.15.02h204.31v-79.53h-37.8ZM360.23,425.04h-10.6c-3.38,0-6.14-.32-8.3-.95-2.16-.63-3.76-2.08-4.82-4.35-1.06-2.26-1.59-5.82-1.59-10.67,0-5.16.61-8.99,1.82-11.47,1.21-2.47,2.93-4.08,5.14-4.82,2.22-.74,4.8-1.11,7.75-1.11h10.6v33.37ZM552.2,425.04h-24.57c-.15-1.36-.29-2.78-.41-4.27-.31-3.79-.47-7.27-.47-10.43,0-3.69.18-7.54.55-11.54.23-2.52.5-4.97.82-7.33,2.35-.17,4.74-.26,7.16-.26,4.54,0,8.02.5,10.44,1.5,2.42,1,4.11,2.75,5.06,5.22.95,2.48,1.42,6.04,1.42,10.67v16.45ZM660.36,425.04h-10.6c-3.69,0-6.59-.37-8.7-1.11-2.1-.73-3.64-2.27-4.58-4.59-.95-2.32-1.42-5.95-1.42-10.91,0-4.33.47-7.69,1.42-10.12.94-2.43,2.48-4.14,4.58-5.14,2.11-1,5.01-1.5,8.7-1.5h10.6v33.37Z"/>
        <path class="cls-7" d="M806,337.44v110.69h-60.57v2.22c0,7.69-1.61,14.57-4.83,20.64-3.21,6.06-7.69,10.81-13.44,14.23-5.75,3.43-12.47,5.14-20.16,5.14-1.16,0-2.58-.05-4.27-.16-1.69-.1-3.48-.26-5.38-.47l.48-22.62c1.89,0,3.66.03,5.29.08,1.64.05,2.82.08,3.56.08,3.59,0,6.41-1.45,8.46-4.35,2.06-2.9,3.08-7.1,3.08-12.57v-81.75h27.2v56.45h33.36v-87.6h27.21Z"/>
        <path class="cls-7" d="M830.04,448.12v-110.69h27.04v110.69h-27.04Z"/>
      </g>
    </g>
    <g>
      <path class="cls-18" d="M1523.88,140.53c-75.67-95.94-225.43-39.3-225.43-39.3-8.28-1.08-16.72-1.62-25.3-1.62l-110.94-1.04c5.2-4.87,8.05-12.23,6.62-20.16-1.62-8.99-8.82-16.11-17.83-17.64-8.1-1.37-15.58,1.7-20.38,7.18h-7.39c6.13-3.87,10.2-10.7,10.2-18.47s-4.06-14.59-10.19-18.47h6.94c5.27,6,13.71,9.16,22.68,6.82,7.51-1.96,13.49-7.86,15.52-15.36C1170.77,13.67,1167.85,5.34,1162.12,0h110.65C1307.2,0,1340.25,5.9,1370.95,16.76c36.58,12.93,69.85,32.88,98.18,58.24,8.15,7.29,15.89,15.02,23.17,23.17,11.73,13.12,22.32,27.3,31.58,42.36Z"/>
      <g>
        <g>
          <path class="cls-3" d="M1162.34,16.16c0,6.14-3.58,11.43-8.78,13.9-.48.22-.97.43-1.47.61-1.6.57-3.33.88-5.12.88s-3.51-.31-5.12-.88c-3.39-1.19-6.24-3.55-8.07-6.6h-106.23c-1.82,3.05-4.67,5.4-8.06,6.6-1.6.57-3.33.88-5.13.88s-3.52-.31-5.13-.88h.02c-.51-.18-1-.38-1.48-.61-5.19-2.47-8.78-7.77-8.78-13.9s3.59-11.43,8.78-13.9c.48-.23.97-.43,1.48-.61,1.59-.56,3.33-.87,5.11-.87s3.52.31,5.13.87h-.06c3.38,1.2,6.23,3.56,8.06,6.6h106.35c1.82-3.04,4.67-5.4,8.06-6.6h-.06c1.6-.56,3.32-.87,5.12-.87s3.51.31,5.12.87c.5.18.99.38,1.47.61,5.2,2.47,8.78,7.77,8.78,13.9Z"/>
          <path class="cls-10" d="M1126.88,49.14c0,6.14-3.59,11.43-8.78,13.89-.48.23-.98.44-1.49.62-1.6.57-3.31.87-5.1.87s-3.51-.3-5.11-.87c-3.4-1.19-6.25-3.55-8.07-6.6h-106.26c-1.82,3.05-4.67,5.41-8.07,6.6h-.14c-1.61.57-3.34.88-5.13.88s-3.51-.31-5.13-.88h.21c-.52-.18-1.01-.38-1.5-.62-5.19-2.46-8.78-7.76-8.78-13.89s3.59-11.42,8.78-13.89c.48-.23.97-.43,1.48-.61h-.19c1.61-.57,3.34-.88,5.13-.88s3.52.31,5.13.88h.17c3.38,1.2,6.23,3.55,8.05,6.6h106.24c1.83-3.05,4.67-5.4,8.06-6.6,1.6-.57,3.33-.88,5.13-.88s3.51.31,5.12.88c.5.18.99.37,1.47.61,5.19,2.47,8.78,7.77,8.78,13.89Z"/>
          <path class="cls-9" d="M1162.34,82.13c0,6.13-3.58,11.43-8.78,13.89-.48.22-.97.43-1.47.61-1.6.57-3.33.88-5.12.88s-3.51-.31-5.12-.88c-3.39-1.19-6.24-3.55-8.07-6.6h-106.23c-1.82,3.05-4.67,5.4-8.06,6.6-1.6.57-3.33.88-5.13.88s-3.52-.31-5.13-.88h.02c-.51-.18-1-.38-1.48-.61-5.19-2.46-8.78-7.77-8.78-13.89s3.59-11.44,8.78-13.9c.48-.22.97-.43,1.48-.61h-.02c1.6-.57,3.34-.88,5.13-.88s3.52.31,5.13.88c3.39,1.2,6.24,3.55,8.06,6.6h106.23c1.83-3.05,4.68-5.41,8.07-6.6,1.6-.57,3.32-.88,5.12-.88s3.51.31,5.12.88c.5.18.99.38,1.47.61,5.2,2.46,8.78,7.77,8.78,13.9Z"/>
        </g>
        <g>
          <path class="cls-11" d="M1162.34,16.16c0,6.14-3.58,11.43-8.78,13.9-.48.22-.97.43-1.47.61-1.6.57-3.33.88-5.12.88s-3.51-.31-5.12-.88c-3.39-1.19-6.24-3.55-8.07-6.6h-106.23c-1.82,3.05-4.67,5.4-8.06,6.6-1.6.57-3.33.88-5.13.88s-3.52-.31-5.13-.88h.02c-.51-.18-1-.38-1.48-.61-5.19-2.47-8.78-7.77-8.78-13.9s3.59-11.43,8.78-13.9c.48-.23.97-.43,1.48-.61,1.59-.56,3.33-.87,5.11-.87s3.52.31,5.13.87h-.06c3.38,1.2,6.23,3.56,8.06,6.6h106.35c1.82-3.04,4.67-5.4,8.06-6.6h-.06c1.6-.56,3.32-.87,5.12-.87s3.51.31,5.12.87c.5.18.99.38,1.47.61,5.2,2.47,8.78,7.77,8.78,13.9Z"/>
          <path class="cls-17" d="M1126.88,49.14c0,6.14-3.59,11.43-8.78,13.89-.48.23-.98.44-1.49.62-1.6.57-3.31.87-5.1.87s-3.51-.3-5.11-.87c-3.4-1.19-6.25-3.55-8.07-6.6h-106.26c-1.82,3.05-4.67,5.41-8.07,6.6h-.14c-1.61.57-3.34.88-5.13.88s-3.51-.31-5.13-.88h.21c-.52-.18-1.01-.38-1.5-.62-5.19-2.46-8.78-7.76-8.78-13.89s3.59-11.42,8.78-13.89c.48-.23.97-.43,1.48-.61h-.19c1.61-.57,3.34-.88,5.13-.88s3.52.31,5.13.88h.17c3.38,1.2,6.23,3.55,8.05,6.6h106.24c1.83-3.05,4.67-5.4,8.06-6.6,1.6-.57,3.33-.88,5.13-.88s3.51.31,5.12.88c.5.18.99.37,1.47.61,5.19,2.47,8.78,7.77,8.78,13.89Z"/>
          <path class="cls-14" d="M1162.34,82.13c0,6.13-3.58,11.43-8.78,13.89-.48.22-.97.43-1.47.61-1.6.57-3.33.88-5.12.88s-3.51-.31-5.12-.88c-3.39-1.19-6.24-3.55-8.07-6.6h-106.23c-1.82,3.05-4.67,5.4-8.06,6.6-1.6.57-3.33.88-5.13.88s-3.52-.31-5.13-.88h.02c-.51-.18-1-.38-1.48-.61-5.19-2.46-8.78-7.77-8.78-13.89s3.59-11.44,8.78-13.9c.48-.22.97-.43,1.48-.61h-.02c1.6-.57,3.34-.88,5.13-.88s3.52.31,5.13.88c3.39,1.2,6.24,3.55,8.06,6.6h106.23c1.83-3.05,4.68-5.41,8.07-6.6,1.6-.57,3.32-.88,5.12-.88s3.51.31,5.12.88c.5.18.99.38,1.47.61,5.2,2.46,8.78,7.77,8.78,13.9Z"/>
        </g>
      </g>
      <g>
        <g>
          <g>
            <g>
              <path class="cls-12" d="M1173.61,373.45c.57,1.6.87,3.32.87,5.11s-.3,3.5-.87,5.1c-.18.51-.38,1.01-.62,1.49-2.47,5.2-7.76,8.78-13.9,8.78s-11.42-3.58-13.89-8.78c-.23-.48-.44-.98-.61-1.49-.57-1.6-.87-3.31-.87-5.1s.3-3.51.87-5.11c1.19-3.4,3.56-6.25,6.6-8.07v-106.25c-3.04-1.82-5.4-4.68-6.6-8.07-.57-1.6-.87-3.31-.87-5.1s.3-3.5.87-5.09c.18-.51.38-1.02.61-1.5,2.47-5.19,7.77-8.77,13.89-8.77s11.43,3.58,13.9,8.77c.24.48.44.99.62,1.5.57,1.59.87,3.31.87,5.09s-.3,3.5-.87,5.1c-1.19,3.4-3.55,6.25-6.6,8.07v106.25c3.05,1.82,5.4,4.68,6.6,8.07Z"/>
              <path class="cls-15" d="M1107.64,373.45c.57,1.6.87,3.32.87,5.11s-.3,3.5-.87,5.1c-.18.51-.38,1.01-.61,1.49-2.47,5.2-7.77,8.78-13.91,8.78s-11.42-3.58-13.89-8.78c-.23-.47-.44-.97-.61-1.47-.57-1.6-.88-3.32-.88-5.12s.31-3.52.88-5.13c1.2-3.38,3.56-6.23,6.6-8.05v-106.23c-3.04-1.82-5.4-4.67-6.6-8.06-.57-1.6-.88-3.32-.88-5.12s.31-3.52.88-5.11c.18-.5.38-1,.61-1.48,2.47-5.19,7.77-8.77,13.89-8.77s11.43,3.58,13.91,8.77c.23.48.44.99.61,1.5.57,1.59.87,3.31.87,5.09s-.3,3.5-.87,5.1c-1.19,3.4-3.55,6.25-6.6,8.07v106.25c3.05,1.82,5.4,4.68,6.6,8.07Z"/>
              <path class="cls-4" d="M1140.62,337.98c.57,1.6.88,3.33.88,5.13s-.31,3.52-.88,5.11c-.18.51-.38,1-.61,1.48-2.47,5.2-7.77,8.78-13.91,8.78s-11.43-3.58-13.9-8.78c-.22-.47-.43-.97-.61-1.48-.57-1.6-.88-3.32-.88-5.11s.31-3.52.88-5.13c1.2-3.39,3.56-6.23,6.6-8.05v-106.24c-3.04-1.82-5.4-4.66-6.6-8.05-.57-1.6-.88-3.33-.88-5.13s.31-3.51.88-5.11c.18-.5.38-1,.61-1.48,2.47-5.18,7.77-8.78,13.9-8.78s11.43,3.59,13.91,8.78c.23.49.43.98.61,1.48.57,1.6.88,3.32.88,5.11s-.31,3.52-.88,5.13c-1.2,3.39-3.56,6.23-6.6,8.05v106.24c3.04,1.82,5.4,4.66,6.6,8.05Z"/>
            </g>
            <g>
              <path class="cls-16" d="M1173.61,373.45c.57,1.6.87,3.32.87,5.11s-.3,3.5-.87,5.1c-.18.51-.38,1.01-.62,1.49-2.47,5.2-7.76,8.78-13.9,8.78s-11.42-3.58-13.89-8.78c-.23-.48-.44-.98-.61-1.49-.57-1.6-.87-3.31-.87-5.1s.3-3.51.87-5.11c1.19-3.4,3.56-6.25,6.6-8.07v-106.25c-3.04-1.82-5.4-4.68-6.6-8.07-.57-1.6-.87-3.31-.87-5.1s.3-3.5.87-5.09c.18-.51.38-1.02.61-1.5,2.47-5.19,7.77-8.77,13.89-8.77s11.43,3.58,13.9,8.77c.24.48.44.99.62,1.5.57,1.59.87,3.31.87,5.09s-.3,3.5-.87,5.1c-1.19,3.4-3.55,6.25-6.6,8.07v106.25c3.05,1.82,5.4,4.68,6.6,8.07Z"/>
              <path class="cls-5" d="M1107.64,373.45c.57,1.6.87,3.32.87,5.11s-.3,3.5-.87,5.1c-.18.51-.38,1.01-.61,1.49-2.47,5.2-7.77,8.78-13.91,8.78s-11.42-3.58-13.89-8.78c-.23-.47-.44-.97-.61-1.47-.57-1.6-.88-3.32-.88-5.12s.31-3.52.88-5.13c1.2-3.38,3.56-6.23,6.6-8.05v-106.23c-3.04-1.82-5.4-4.67-6.6-8.06-.57-1.6-.88-3.32-.88-5.12s.31-3.52.88-5.11c.18-.5.38-1,.61-1.48,2.47-5.19,7.77-8.77,13.89-8.77s11.43,3.58,13.91,8.77c.23.48.44.99.61,1.5.57,1.59.87,3.31.87,5.09s-.3,3.5-.87,5.1c-1.19,3.4-3.55,6.25-6.6,8.07v106.25c3.05,1.82,5.4,4.68,6.6,8.07Z"/>
              <path class="cls-2" d="M1140.62,337.98c.57,1.6.88,3.33.88,5.13s-.31,3.52-.88,5.11c-.18.51-.38,1-.61,1.48-2.47,5.2-7.77,8.78-13.91,8.78s-11.43-3.58-13.9-8.78c-.22-.47-.43-.97-.61-1.48-.57-1.6-.88-3.32-.88-5.11s.31-3.52.88-5.13c1.2-3.39,3.56-6.23,6.6-8.05v-106.24c-3.04-1.82-5.4-4.66-6.6-8.05-.57-1.6-.88-3.33-.88-5.13s.31-3.51.88-5.11c.18-.5.38-1,.61-1.48,2.47-5.18,7.77-8.78,13.9-8.78s11.43,3.59,13.91,8.78c.23.49.43.98.61,1.48.57,1.6.88,3.32.88,5.11s-.31,3.52-.88,5.13c-1.2,3.39-3.56,6.23-6.6,8.05v106.24c3.04,1.82,5.4,4.66,6.6,8.05Z"/>
            </g>
          </g>
          <path class="cls-13" d="M1567.3,294.52c0,9.31-.44,18.53-1.28,27.63,0,.03,0,.07-.01.1-2.28,24.48-7.56,48.09-15.46,70.46-12.93,36.58-32.88,69.85-58.24,98.17-7.29,8.15-15.03,15.89-23.18,23.19-28.33,25.35-61.6,45.3-98.18,58.23-30.7,10.85-63.75,16.76-98.17,16.76h-98.18s-74.81,0-74.81,0c-12.6,0-22.81-10.21-22.81-22.81v-172.67c4.42,4.76,10.9,7.54,17.99,6.88,10.46-.96,18.81-9.48,19.69-19.94.62-7.32-2.36-13.98-7.34-18.39v-7.27c3.88,6.11,10.71,10.18,18.47,10.18s14.59-4.07,18.47-10.18v7.27c-4.99,4.4-7.97,11.06-7.35,18.38.88,10.48,9.23,19,19.7,19.95,7.1.65,13.57-2.14,17.99-6.89v69.9c0,14.64,11.65,26.61,26.28,27,21.39.58,51.36,1.26,72.28,1.26,35.92,0,69.59-9.66,98.55-26.53,29.36-17.1,53.87-41.62,70.98-70.98,16.87-28.95,26.53-62.63,26.53-98.56,0-21.49-3.46-42.16-9.84-61.51-4.29-13-9.91-25.4-16.69-37.04-17.1-29.37-41.62-53.88-70.98-70.98-22.04-12.84-46.83-21.51-73.25-24.91,0,0,149.76-56.64,225.43,39.3,19.62,24.87,34.25,59.99,40,109.02,2.25,14.66,3.42,29.68,3.42,44.97Z"/>
        </g>
        <g>
          <g>
            <g>
              <path class="cls-1" d="M1173.61,373.45c.57,1.6.87,3.32.87,5.11s-.3,3.5-.87,5.1c-.18.51-.38,1.01-.62,1.49-2.47,5.2-7.76,8.78-13.9,8.78s-11.42-3.58-13.89-8.78c-.23-.48-.44-.98-.61-1.49-.57-1.6-.87-3.31-.87-5.1s.3-3.51.87-5.11c1.19-3.4,3.56-6.25,6.6-8.07v-106.25c-3.04-1.82-5.4-4.68-6.6-8.07-.57-1.6-.87-3.31-.87-5.1s.3-3.5.87-5.09c.18-.51.38-1.02.61-1.5,2.47-5.19,7.77-8.77,13.89-8.77s11.43,3.58,13.9,8.77c.24.48.44.99.62,1.5.57,1.59.87,3.31.87,5.09s-.3,3.5-.87,5.1c-1.19,3.4-3.55,6.25-6.6,8.07v106.25c3.05,1.82,5.4,4.68,6.6,8.07Z"/>
              <path class="cls-1" d="M1107.64,373.45c.57,1.6.87,3.32.87,5.11s-.3,3.5-.87,5.1c-.18.51-.38,1.01-.61,1.49-2.47,5.2-7.77,8.78-13.91,8.78s-11.42-3.58-13.89-8.78c-.23-.47-.44-.97-.61-1.47-.57-1.6-.88-3.32-.88-5.12s.31-3.52.88-5.13c1.2-3.38,3.56-6.23,6.6-8.05v-106.23c-3.04-1.82-5.4-4.67-6.6-8.06-.57-1.6-.88-3.32-.88-5.12s.31-3.52.88-5.11c.18-.5.38-1,.61-1.48,2.47-5.19,7.77-8.77,13.89-8.77s11.43,3.58,13.91,8.77c.23.48.44.99.61,1.5.57,1.59.87,3.31.87,5.09s-.3,3.5-.87,5.1c-1.19,3.4-3.55,6.25-6.6,8.07v106.25c3.05,1.82,5.4,4.68,6.6,8.07Z"/>
              <path class="cls-1" d="M1140.62,337.98c.57,1.6.88,3.33.88,5.13s-.31,3.52-.88,5.11c-.18.51-.38,1-.61,1.48-2.47,5.2-7.77,8.78-13.91,8.78s-11.43-3.58-13.9-8.78c-.22-.47-.43-.97-.61-1.48-.57-1.6-.88-3.32-.88-5.11s.31-3.52.88-5.13c1.2-3.39,3.56-6.23,6.6-8.05v-106.24c-3.04-1.82-5.4-4.66-6.6-8.05-.57-1.6-.88-3.33-.88-5.13s.31-3.51.88-5.11c.18-.5.38-1,.61-1.48,2.47-5.18,7.77-8.78,13.9-8.78s11.43,3.59,13.91,8.78c.23.49.43.98.61,1.48.57,1.6.88,3.32.88,5.11s-.31,3.52-.88,5.13c-1.2,3.39-3.56,6.23-6.6,8.05v106.24c3.04,1.82,5.4,4.66,6.6,8.05Z"/>
            </g>
            <g>
              <path class="cls-1" d="M1173.61,373.45c.57,1.6.87,3.32.87,5.11s-.3,3.5-.87,5.1c-.18.51-.38,1.01-.62,1.49-2.47,5.2-7.76,8.78-13.9,8.78s-11.42-3.58-13.89-8.78c-.23-.48-.44-.98-.61-1.49-.57-1.6-.87-3.31-.87-5.1s.3-3.51.87-5.11c1.19-3.4,3.56-6.25,6.6-8.07v-106.25c-3.04-1.82-5.4-4.68-6.6-8.07-.57-1.6-.87-3.31-.87-5.1s.3-3.5.87-5.09c.18-.51.38-1.02.61-1.5,2.47-5.19,7.77-8.77,13.89-8.77s11.43,3.58,13.9,8.77c.24.48.44.99.62,1.5.57,1.59.87,3.31.87,5.09s-.3,3.5-.87,5.1c-1.19,3.4-3.55,6.25-6.6,8.07v106.25c3.05,1.82,5.4,4.68,6.6,8.07Z"/>
              <path class="cls-1" d="M1107.64,373.45c.57,1.6.87,3.32.87,5.11s-.3,3.5-.87,5.1c-.18.51-.38,1.01-.61,1.49-2.47,5.2-7.77,8.78-13.91,8.78s-11.42-3.58-13.89-8.78c-.23-.47-.44-.97-.61-1.47-.57-1.6-.88-3.32-.88-5.12s.31-3.52.88-5.13c1.2-3.38,3.56-6.23,6.6-8.05v-106.23c-3.04-1.82-5.4-4.67-6.6-8.06-.57-1.6-.88-3.32-.88-5.12s.31-3.52.88-5.11c.18-.5.38-1,.61-1.48,2.47-5.19,7.77-8.77,13.89-8.77s11.43,3.58,13.91,8.77c.23.48.44.99.61,1.5.57,1.59.87,3.31.87,5.09s-.3,3.5-.87,5.1c-1.19,3.4-3.55,6.25-6.6,8.07v106.25c3.05,1.82,5.4,4.68,6.6,8.07Z"/>
              <path class="cls-1" d="M1140.62,337.98c.57,1.6.88,3.33.88,5.13s-.31,3.52-.88,5.11c-.18.51-.38,1-.61,1.48-2.47,5.2-7.77,8.78-13.91,8.78s-11.43-3.58-13.9-8.78c-.22-.47-.43-.97-.61-1.48-.57-1.6-.88-3.32-.88-5.11s.31-3.52.88-5.13c1.2-3.39,3.56-6.23,6.6-8.05v-106.24c-3.04-1.82-5.4-4.66-6.6-8.05-.57-1.6-.88-3.33-.88-5.13s.31-3.51.88-5.11c.18-.5.38-1,.61-1.48,2.47-5.18,7.77-8.78,13.9-8.78s11.43,3.59,13.91,8.78c.23.49.43.98.61,1.48.57,1.6.88,3.32.88,5.11s-.31,3.52-.88,5.13c-1.2,3.39-3.56,6.23-6.6,8.05v106.24c3.04,1.82,5.4,4.66,6.6,8.05Z"/>
            </g>
            <g>
              <path class="cls-1" d="M1173.61,373.45c.57,1.6.87,3.32.87,5.11s-.3,3.5-.87,5.1c-.18.51-.38,1.01-.62,1.49-2.47,5.2-7.76,8.78-13.9,8.78s-11.42-3.58-13.89-8.78c-.23-.48-.44-.98-.61-1.49-.57-1.6-.87-3.31-.87-5.1s.3-3.51.87-5.11c1.19-3.4,3.56-6.25,6.6-8.07v-106.25c-3.04-1.82-5.4-4.68-6.6-8.07-.57-1.6-.87-3.31-.87-5.1s.3-3.5.87-5.09c.18-.51.38-1.02.61-1.5,2.47-5.19,7.77-8.77,13.89-8.77s11.43,3.58,13.9,8.77c.24.48.44.99.62,1.5.57,1.59.87,3.31.87,5.09s-.3,3.5-.87,5.1c-1.19,3.4-3.55,6.25-6.6,8.07v106.25c3.05,1.82,5.4,4.68,6.6,8.07Z"/>
              <path class="cls-1" d="M1107.64,373.45c.57,1.6.87,3.32.87,5.11s-.3,3.5-.87,5.1c-.18.51-.38,1.01-.61,1.49-2.47,5.2-7.77,8.78-13.91,8.78s-11.42-3.58-13.89-8.78c-.23-.47-.44-.97-.61-1.47-.57-1.6-.88-3.32-.88-5.12s.31-3.52.88-5.13c1.2-3.38,3.56-6.23,6.6-8.05v-106.23c-3.04-1.82-5.4-4.67-6.6-8.06-.57-1.6-.88-3.32-.88-5.12s.31-3.52.88-5.11c.18-.5.38-1,.61-1.48,2.47-5.19,7.77-8.77,13.89-8.77s11.43,3.58,13.91,8.77c.23.48.44.99.61,1.5.57,1.59.87,3.31.87,5.09s-.3,3.5-.87,5.1c-1.19,3.4-3.55,6.25-6.6,8.07v106.25c3.05,1.82,5.4,4.68,6.6,8.07Z"/>
              <path class="cls-1" d="M1140.62,337.98c.57,1.6.88,3.33.88,5.13s-.31,3.52-.88,5.11c-.18.51-.38,1-.61,1.48-2.47,5.2-7.77,8.78-13.91,8.78s-11.43-3.58-13.9-8.78c-.22-.47-.43-.97-.61-1.48-.57-1.6-.88-3.32-.88-5.11s.31-3.52.88-5.13c1.2-3.39,3.56-6.23,6.6-8.05v-106.24c-3.04-1.82-5.4-4.66-6.6-8.05-.57-1.6-.88-3.33-.88-5.13s.31-3.51.88-5.11c.18-.5.38-1,.61-1.48,2.47-5.18,7.77-8.78,13.9-8.78s11.43,3.59,13.91,8.78c.23.49.43.98.61,1.48.57,1.6.88,3.32.88,5.11s-.31,3.52-.88,5.13c-1.2,3.39-3.56,6.23-6.6,8.05v106.24c3.04,1.82,5.4,4.66,6.6,8.05Z"/>
            </g>
          </g>
          <path class="cls-1" d="M1567.3,294.52c0,9.31-.44,18.53-1.28,27.63,0,.03,0,.07-.01.1-2.28,24.48-7.56,48.09-15.46,70.46-12.93,36.58-32.88,69.85-58.24,98.17-7.29,8.15-15.03,15.89-23.18,23.19-28.33,25.35-61.6,45.3-98.18,58.23-30.7,10.85-63.75,16.76-98.17,16.76h-98.18s-74.81,0-74.81,0c-12.6,0-22.81-10.21-22.81-22.81v-172.67c4.42,4.76,10.9,7.54,17.99,6.88,10.46-.96,18.81-9.48,19.69-19.94.62-7.32-2.36-13.98-7.34-18.39v-7.27c3.88,6.11,10.71,10.18,18.47,10.18s14.59-4.07,18.47-10.18v7.27c-4.99,4.4-7.97,11.06-7.35,18.38.88,10.48,9.23,19,19.7,19.95,7.1.65,13.57-2.14,17.99-6.89v69.9c0,14.64,11.65,26.61,26.28,27,21.39.58,51.36,1.26,72.28,1.26,35.92,0,69.59-9.66,98.55-26.53,29.36-17.1,53.87-41.62,70.98-70.98,16.87-28.95,26.53-62.63,26.53-98.56,0-21.49-3.46-42.16-9.84-61.51-4.29-13-9.91-25.4-16.69-37.04-17.1-29.37-41.62-53.88-70.98-70.98-22.04-12.84-46.83-21.51-73.25-24.91,0,0,149.76-56.64,225.43,39.3,19.62,24.87,34.25,59.99,40,109.02,2.25,14.66,3.42,29.68,3.42,44.97Z"/>
        </g>
      </g>
    </g>
  </g>
  <g>
    <g>
      <g>
        <path class="cls-8" d="M49.97,297.58c-9.59,0-18.18-1.77-25.78-5.3-7.59-3.53-13.52-8.38-17.79-14.55C2.14,271.57,0,264.64,0,256.94,0,254.73.16,251.94.48,248.56c.32-3.37.73-7.12,1.26-11.22.52-4.11,1.13-8.41,1.82-12.89.69-4.48,1.34-8.83,1.98-13.05l26.88,3.48c-1.16,6.96-2.11,13.26-2.84,18.9-.74,5.64-1.32,10.39-1.74,14.23-.42,3.85-.63,6.72-.63,8.62,0,3.69.84,6.85,2.53,9.49,1.68,2.63,4.24,4.69,7.67,6.17,3.42,1.47,7.62,2.21,12.57,2.21,5.38,0,9.54-.77,12.49-2.29,2.95-1.53,5.01-3.56,6.17-6.09,1.16-2.53,1.74-5.27,1.74-8.22v-110.22h27.2v110.22c0,7.9-2.03,14.84-6.09,20.79-4.06,5.96-9.67,10.6-16.84,13.92-7.17,3.32-15.39,4.98-24.67,4.98Z"/>
        <path class="cls-8" d="M389.01,147.67v87.61h-33.52v-15.02c0-8.54-2.08-15.9-6.24-22.07-4.17-6.17-9.81-10.94-16.92-14.3-7.11-3.38-15.21-5.07-24.27-5.07-4.32,0-8.67.34-13.05,1.03-4.38.69-8.83,1.56-13.36,2.61l2.37,21.34c4.42-.63,8.44-1.08,12.01-1.34,3.59-.26,6.43-.4,8.54-.4,8.44,0,14.5,1.56,18.19,4.66,3.69,3.11,5.53,7.62,5.53,13.52v15.02h-73.69v-87.61h-27.2v87.61h-33.52v-56.46h-37.8c-8.85,0-16.42,1.56-22.69,4.67-6.27,3.11-11.04,7.66-14.31,13.68-3.26,6.01-4.9,13.39-4.9,22.14s1.64,16.03,4.9,21.82c3.27,5.8,8.04,10.12,14.31,12.97,6.27,2.84,13.84,4.27,22.69,4.27h10.6v4.9c0,4.85-1.48,8.44-4.43,10.76-2.95,2.32-7.8,3.48-14.55,3.48-2.43,0-5.45-.13-9.09-.4-3.64-.26-8.05-.71-13.21-1.35l-3.95,21.67c4.75.94,9.27,1.71,13.6,2.29,4.32.58,8.54.87,12.65.87,9.27,0,17.37-1.5,24.27-4.51,6.91-3,12.28-7.33,16.13-12.96,3.85-5.64,5.78-12.25,5.78-19.85v-4.9h222.33v-110.69h-27.2ZM166.68,235.28h-10.6c-3.38,0-6.15-.32-8.3-.95-2.16-.63-3.77-2.08-4.82-4.35-1.06-2.26-1.59-5.82-1.59-10.67,0-5.16.61-8.99,1.82-11.47,1.21-2.48,2.93-4.08,5.14-4.82,2.22-.74,4.8-1.11,7.75-1.11h10.6v33.37Z"/>
        <path class="cls-8" d="M440.24,258.37v-110.69h27.04v110.69h-27.04Z"/>
        <path class="cls-8" d="M587.77,228.8v29.57h-66.26v-23.08h39.06v-6.48c0-7.17-.69-12.68-2.06-16.53-1.38-3.84-3.64-6.53-6.8-8.06-3.16-1.52-7.59-2.29-13.28-2.29h-12.81v-23.09h12.81c10.64,0,19.66,1.77,27.04,5.3,7.38,3.53,12.94,8.99,16.68,16.37,3.74,7.38,5.61,16.82,5.61,28.31Z"/>
        <path class="cls-8" d="M778.49,274.81v20.72h27.36v-20.72h-27.36Z"/>
        <path class="cls-8" d="M778.49,178.82v56.46h-42.35c1.82-1.86,3.52-3.79,5.1-5.78,4.16-5.22,7.36-10.43,9.57-15.65,2.22-5.22,3.32-9.98,3.32-14.31v-8.7c-4.54-2.63-9.51-4.85-14.95-6.64-5.43-1.79-10.85-3.14-16.28-4.03-5.43-.89-10.42-1.35-14.95-1.35s-9.36.46-14.78,1.35c-5.43.9-10.86,2.25-16.29,4.03-5.43,1.79-10.42,4-14.95,6.64v8.7c0,4.33,1.11,9.09,3.32,14.31,2.22,5.22,5.4,10.43,9.57,15.65,1.59,1.99,3.29,3.91,5.11,5.78h-44.25v-87.61h-27.04v110.69h75.12c8.22,0,15.91-1.32,23.08-3.95.4-.15.79-.29,1.19-.44.4.15.79.3,1.18.44,7.17,2.64,14.86,3.95,23.08,3.95h73.54v-79.54h-27.36ZM725.2,208.72c-1.16,3.26-2.77,6.45-4.83,9.56-2.05,3.11-4.42,5.96-7.11,8.54-1.65,1.59-3.4,2.99-5.22,4.18-1.82-1.19-3.56-2.58-5.22-4.18-2.69-2.58-5.05-5.43-7.11-8.54-2.06-3.11-3.67-6.29-4.83-9.56-.46-1.31-.83-2.58-1.11-3.82.89-.28,1.79-.53,2.69-.77,5.58-1.47,10.75-2.22,15.49-2.22s10.07.74,15.66,2.22c.91.24,1.8.49,2.69.77-.28,1.23-.64,2.51-1.11,3.82Z"/>
        <path class="cls-8" d="M830.04,147.67v110.69h27.04v-110.69h-27.04Z"/>
        <path class="cls-8" d="M865.14,121.9v13.43h-43.17v-13.43h4.2c-.26-1.23-.4-2.49-.4-3.8,0-4,1.05-7.58,3.16-10.75,2.11-3.16,4.9-5.67,8.38-7.51,3.47-1.85,7.32-2.77,11.54-2.77,2.22,0,4.51.32,6.88.94,2.37.64,4.35,1.48,5.93,2.54l-6.16,11.38c-1.06-.53-2.09-.87-3.09-1.03-1-.16-1.98-.24-2.92-.24-2.54,0-4.48.67-5.85,1.98-1.37,1.32-2.06,3.03-2.06,5.13,0,1.27.24,2.45.71,3.56.08.18.16.37.26.55h22.59Z"/>
        <path class="cls-8" d="M320.53,333v20.72h25.94v-20.72h-25.94ZM354.22,333v20.72h25.78v-20.72h-25.78Z"/>
        <path class="cls-8" d="M409.09,464.57v20.72h25.94v-20.72h-25.94ZM442.77,464.57v20.72h25.78v-20.72h-25.78ZM483.1,448.11v.02h.15c-.05,0-.1,0-.15-.02ZM483.1,425.04h.15-.15Z"/>
        <path class="cls-8" d="M483.1,448.11v.02h.15c-.05,0-.1,0-.15-.02ZM483.1,425.04h.15-.15Z"/>
        <path class="cls-8" d="M622.25,333v20.72h25.94v-20.72h-25.94ZM655.93,333v20.72h25.78v-20.72h-25.78Z"/>
        <path class="cls-8" d="M649.76,368.59c-8.85,0-16.41,1.56-22.69,4.66-6.27,3.11-11.05,7.64-14.32,13.6-3.26,5.96-4.9,13.15-4.9,21.59,0,6.36.8,11.9,2.42,16.6h-30.88v-16.13c0-10.12-1.64-18.14-4.9-24.03-3.27-5.91-8.14-10.17-14.63-12.81-6.48-2.63-14.69-3.95-24.6-3.95-6.85,0-13.07.48-18.66,1.42-5.58.95-9.69,1.9-12.33,2.84-.64,2.33-1.32,5.46-2.06,9.42-.74,3.95-1.35,8.38-1.82,13.28-.47,4.9-.71,9.99-.71,15.26s.21,9.86.63,14.39c0,.11.02.21.03.32h-17.11c-.05,0-.1,0-.15.01h0s-21.35-.01-21.35-.01v-56.45h-27.2v56.45h-47.12v-56.45h-37.8c-8.85,0-16.42,1.56-22.69,4.66-6.28,3.11-11.05,7.67-14.31,13.67-3.27,6.01-4.9,13.39-4.9,22.14s1.63,16.03,4.9,21.83c3.26,5.8,8.03,10.11,14.31,12.96,6.26,2.84,13.83,4.27,22.69,4.27h133.47v-.02s.1.02.15.02h204.31v-79.53h-37.8ZM360.23,425.04h-10.6c-3.38,0-6.14-.32-8.3-.95-2.16-.63-3.76-2.08-4.82-4.35-1.06-2.26-1.59-5.82-1.59-10.67,0-5.16.61-8.99,1.82-11.47,1.21-2.47,2.93-4.08,5.14-4.82,2.22-.74,4.8-1.11,7.75-1.11h10.6v33.37ZM552.2,425.04h-24.57c-.15-1.36-.29-2.78-.41-4.27-.31-3.79-.47-7.27-.47-10.43,0-3.69.18-7.54.55-11.54.23-2.52.5-4.97.82-7.33,2.35-.17,4.74-.26,7.16-.26,4.54,0,8.02.5,10.44,1.5,2.42,1,4.11,2.75,5.06,5.22.95,2.48,1.42,6.04,1.42,10.67v16.45ZM660.36,425.04h-10.6c-3.69,0-6.59-.37-8.7-1.11-2.1-.73-3.64-2.27-4.58-4.59-.95-2.32-1.42-5.95-1.42-10.91,0-4.33.47-7.69,1.42-10.12.94-2.43,2.48-4.14,4.58-5.14,2.11-1,5.01-1.5,8.7-1.5h10.6v33.37Z"/>
        <path class="cls-8" d="M806,337.44v110.69h-60.57v2.22c0,7.69-1.61,14.57-4.83,20.64-3.21,6.06-7.69,10.81-13.44,14.23-5.75,3.43-12.47,5.14-20.16,5.14-1.16,0-2.58-.05-4.27-.16-1.69-.1-3.48-.26-5.38-.47l.48-22.62c1.89,0,3.66.03,5.29.08,1.64.05,2.82.08,3.56.08,3.59,0,6.41-1.45,8.46-4.35,2.06-2.9,3.08-7.1,3.08-12.57v-81.75h27.2v56.45h33.36v-87.6h27.21Z"/>
        <path class="cls-8" d="M830.04,448.12v-110.69h27.04v110.69h-27.04Z"/>
      </g>
      <g>
        <path class="cls-8" d="M49.97,297.58c-9.59,0-18.18-1.77-25.78-5.3-7.59-3.53-13.52-8.38-17.79-14.55C2.14,271.57,0,264.64,0,256.94,0,254.73.16,251.94.48,248.56c.32-3.37.73-7.12,1.26-11.22.52-4.11,1.13-8.41,1.82-12.89.69-4.48,1.34-8.83,1.98-13.05l26.88,3.48c-1.16,6.96-2.11,13.26-2.84,18.9-.74,5.64-1.32,10.39-1.74,14.23-.42,3.85-.63,6.72-.63,8.62,0,3.69.84,6.85,2.53,9.49,1.68,2.63,4.24,4.69,7.67,6.17,3.42,1.47,7.62,2.21,12.57,2.21,5.38,0,9.54-.77,12.49-2.29,2.95-1.53,5.01-3.56,6.17-6.09,1.16-2.53,1.74-5.27,1.74-8.22v-110.22h27.2v110.22c0,7.9-2.03,14.84-6.09,20.79-4.06,5.96-9.67,10.6-16.84,13.92-7.17,3.32-15.39,4.98-24.67,4.98Z"/>
        <path class="cls-8" d="M389.01,147.67v87.61h-33.52v-15.02c0-8.54-2.08-15.9-6.24-22.07-4.17-6.17-9.81-10.94-16.92-14.3-7.11-3.38-15.21-5.07-24.27-5.07-4.32,0-8.67.34-13.05,1.03-4.38.69-8.83,1.56-13.36,2.61l2.37,21.34c4.42-.63,8.44-1.08,12.01-1.34,3.59-.26,6.43-.4,8.54-.4,8.44,0,14.5,1.56,18.19,4.66,3.69,3.11,5.53,7.62,5.53,13.52v15.02h-73.69v-87.61h-27.2v87.61h-33.52v-56.46h-37.8c-8.85,0-16.42,1.56-22.69,4.67-6.27,3.11-11.04,7.66-14.31,13.68-3.26,6.01-4.9,13.39-4.9,22.14s1.64,16.03,4.9,21.82c3.27,5.8,8.04,10.12,14.31,12.97,6.27,2.84,13.84,4.27,22.69,4.27h10.6v4.9c0,4.85-1.48,8.44-4.43,10.76-2.95,2.32-7.8,3.48-14.55,3.48-2.43,0-5.45-.13-9.09-.4-3.64-.26-8.05-.71-13.21-1.35l-3.95,21.67c4.75.94,9.27,1.71,13.6,2.29,4.32.58,8.54.87,12.65.87,9.27,0,17.37-1.5,24.27-4.51,6.91-3,12.28-7.33,16.13-12.96,3.85-5.64,5.78-12.25,5.78-19.85v-4.9h222.33v-110.69h-27.2ZM166.68,235.28h-10.6c-3.38,0-6.15-.32-8.3-.95-2.16-.63-3.77-2.08-4.82-4.35-1.06-2.26-1.59-5.82-1.59-10.67,0-5.16.61-8.99,1.82-11.47,1.21-2.48,2.93-4.08,5.14-4.82,2.22-.74,4.8-1.11,7.75-1.11h10.6v33.37Z"/>
        <path class="cls-8" d="M440.24,258.37v-110.69h27.04v110.69h-27.04Z"/>
        <path class="cls-8" d="M587.77,228.8v29.57h-66.26v-23.08h39.06v-6.48c0-7.17-.69-12.68-2.06-16.53-1.38-3.84-3.64-6.53-6.8-8.06-3.16-1.52-7.59-2.29-13.28-2.29h-12.81v-23.09h12.81c10.64,0,19.66,1.77,27.04,5.3,7.38,3.53,12.94,8.99,16.68,16.37,3.74,7.38,5.61,16.82,5.61,28.31Z"/>
        <path class="cls-8" d="M778.49,274.81v20.72h27.36v-20.72h-27.36Z"/>
        <path class="cls-8" d="M778.49,178.82v56.46h-42.35c1.82-1.86,3.52-3.79,5.1-5.78,4.16-5.22,7.36-10.43,9.57-15.65,2.22-5.22,3.32-9.98,3.32-14.31v-8.7c-4.54-2.63-9.51-4.85-14.95-6.64-5.43-1.79-10.85-3.14-16.28-4.03-5.43-.89-10.42-1.35-14.95-1.35s-9.36.46-14.78,1.35c-5.43.9-10.86,2.25-16.29,4.03-5.43,1.79-10.42,4-14.95,6.64v8.7c0,4.33,1.11,9.09,3.32,14.31,2.22,5.22,5.4,10.43,9.57,15.65,1.59,1.99,3.29,3.91,5.11,5.78h-44.25v-87.61h-27.04v110.69h75.12c8.22,0,15.91-1.32,23.08-3.95.4-.15.79-.29,1.19-.44.4.15.79.3,1.18.44,7.17,2.64,14.86,3.95,23.08,3.95h73.54v-79.54h-27.36ZM725.2,208.72c-1.16,3.26-2.77,6.45-4.83,9.56-2.05,3.11-4.42,5.96-7.11,8.54-1.65,1.59-3.4,2.99-5.22,4.18-1.82-1.19-3.56-2.58-5.22-4.18-2.69-2.58-5.05-5.43-7.11-8.54-2.06-3.11-3.67-6.29-4.83-9.56-.46-1.31-.83-2.58-1.11-3.82.89-.28,1.79-.53,2.69-.77,5.58-1.47,10.75-2.22,15.49-2.22s10.07.74,15.66,2.22c.91.24,1.8.49,2.69.77-.28,1.23-.64,2.51-1.11,3.82Z"/>
        <path class="cls-8" d="M830.04,147.67v110.69h27.04v-110.69h-27.04Z"/>
        <path class="cls-8" d="M865.14,121.9v13.43h-43.17v-13.43h4.2c-.26-1.23-.4-2.49-.4-3.8,0-4,1.05-7.58,3.16-10.75,2.11-3.16,4.9-5.67,8.38-7.51,3.47-1.85,7.32-2.77,11.54-2.77,2.22,0,4.51.32,6.88.94,2.37.64,4.35,1.48,5.93,2.54l-6.16,11.38c-1.06-.53-2.09-.87-3.09-1.03-1-.16-1.98-.24-2.92-.24-2.54,0-4.48.67-5.85,1.98-1.37,1.32-2.06,3.03-2.06,5.13,0,1.27.24,2.45.71,3.56.08.18.16.37.26.55h22.59Z"/>
        <path class="cls-8" d="M320.53,333v20.72h25.94v-20.72h-25.94ZM354.22,333v20.72h25.78v-20.72h-25.78Z"/>
        <path class="cls-8" d="M409.09,464.57v20.72h25.94v-20.72h-25.94ZM442.77,464.57v20.72h25.78v-20.72h-25.78ZM483.1,448.11v.02h.15c-.05,0-.1,0-.15-.02ZM483.1,425.04h.15-.15Z"/>
        <path class="cls-8" d="M483.1,448.11v.02h.15c-.05,0-.1,0-.15-.02ZM483.1,425.04h.15-.15Z"/>
        <path class="cls-8" d="M622.25,333v20.72h25.94v-20.72h-25.94ZM655.93,333v20.72h25.78v-20.72h-25.78Z"/>
        <path class="cls-8" d="M649.76,368.59c-8.85,0-16.41,1.56-22.69,4.66-6.27,3.11-11.05,7.64-14.32,13.6-3.26,5.96-4.9,13.15-4.9,21.59,0,6.36.8,11.9,2.42,16.6h-30.88v-16.13c0-10.12-1.64-18.14-4.9-24.03-3.27-5.91-8.14-10.17-14.63-12.81-6.48-2.63-14.69-3.95-24.6-3.95-6.85,0-13.07.48-18.66,1.42-5.58.95-9.69,1.9-12.33,2.84-.64,2.33-1.32,5.46-2.06,9.42-.74,3.95-1.35,8.38-1.82,13.28-.47,4.9-.71,9.99-.71,15.26s.21,9.86.63,14.39c0,.11.02.21.03.32h-17.11c-.05,0-.1,0-.15.01h0s-21.35-.01-21.35-.01v-56.45h-27.2v56.45h-47.12v-56.45h-37.8c-8.85,0-16.42,1.56-22.69,4.66-6.28,3.11-11.05,7.67-14.31,13.67-3.27,6.01-4.9,13.39-4.9,22.14s1.63,16.03,4.9,21.83c3.26,5.8,8.03,10.11,14.31,12.96,6.26,2.84,13.83,4.27,22.69,4.27h133.47v-.02s.1.02.15.02h204.31v-79.53h-37.8ZM360.23,425.04h-10.6c-3.38,0-6.14-.32-8.3-.95-2.16-.63-3.76-2.08-4.82-4.35-1.06-2.26-1.59-5.82-1.59-10.67,0-5.16.61-8.99,1.82-11.47,1.21-2.47,2.93-4.08,5.14-4.82,2.22-.74,4.8-1.11,7.75-1.11h10.6v33.37ZM552.2,425.04h-24.57c-.15-1.36-.29-2.78-.41-4.27-.31-3.79-.47-7.27-.47-10.43,0-3.69.18-7.54.55-11.54.23-2.52.5-4.97.82-7.33,2.35-.17,4.74-.26,7.16-.26,4.54,0,8.02.5,10.44,1.5,2.42,1,4.11,2.75,5.06,5.22.95,2.48,1.42,6.04,1.42,10.67v16.45ZM660.36,425.04h-10.6c-3.69,0-6.59-.37-8.7-1.11-2.1-.73-3.64-2.27-4.58-4.59-.95-2.32-1.42-5.95-1.42-10.91,0-4.33.47-7.69,1.42-10.12.94-2.43,2.48-4.14,4.58-5.14,2.11-1,5.01-1.5,8.7-1.5h10.6v33.37Z"/>
        <path class="cls-8" d="M806,337.44v110.69h-60.57v2.22c0,7.69-1.61,14.57-4.83,20.64-3.21,6.06-7.69,10.81-13.44,14.23-5.75,3.43-12.47,5.14-20.16,5.14-1.16,0-2.58-.05-4.27-.16-1.69-.1-3.48-.26-5.38-.47l.48-22.62c1.89,0,3.66.03,5.29.08,1.64.05,2.82.08,3.56.08,3.59,0,6.41-1.45,8.46-4.35,2.06-2.9,3.08-7.1,3.08-12.57v-81.75h27.2v56.45h33.36v-87.6h27.21Z"/>
        <path class="cls-8" d="M830.04,448.12v-110.69h27.04v110.69h-27.04Z"/>
      </g>
      <g>
        <path class="cls-8" d="M96.57,148.67v109.22c0,7.66-1.99,14.47-5.91,20.23-3.94,5.78-9.47,10.35-16.44,13.57-7,3.24-15.16,4.89-24.25,4.89s-17.93-1.75-25.35-5.2c-7.39-3.44-13.24-8.22-17.39-14.21-4.13-5.97-6.23-12.78-6.23-20.23,0-2.18.16-4.97.47-8.29.32-3.46.75-7.22,1.26-11.19.53-4.15,1.14-8.47,1.81-12.86.63-4.14,1.24-8.17,1.83-12.08l24.88,3.22c-1.09,6.56-1.99,12.58-2.68,17.91-.74,5.67-1.33,10.47-1.74,14.25-.43,3.93-.64,6.79-.64,8.73,0,3.87.91,7.24,2.69,10.03,1.78,2.79,4.51,4.99,8.12,6.55,3.54,1.52,7.9,2.29,12.97,2.29,5.51,0,9.86-.81,12.95-2.4,3.14-1.63,5.37-3.84,6.62-6.56,1.22-2.66,1.83-5.56,1.83-8.64v-109.22h25.2M97.57,147.67h-27.2v110.22c0,2.95-.58,5.69-1.74,8.22-1.16,2.53-3.22,4.56-6.17,6.09-2.95,1.52-7.12,2.29-12.49,2.29-4.95,0-9.15-.74-12.57-2.21-3.43-1.48-5.99-3.53-7.67-6.17-1.69-2.63-2.53-5.8-2.53-9.49,0-1.9.21-4.77.63-8.62.42-3.84,1-8.59,1.74-14.23.73-5.64,1.68-11.94,2.84-18.9l-26.88-3.48c-.63,4.22-1.29,8.57-1.98,13.05-.69,4.48-1.29,8.78-1.82,12.89-.53,4.11-.95,7.85-1.26,11.23C.16,251.94,0,254.73,0,256.94c0,7.7,2.14,14.63,6.41,20.8,4.27,6.16,10.2,11.02,17.79,14.55,7.59,3.53,16.18,5.3,25.78,5.3s17.5-1.66,24.67-4.98c7.17-3.32,12.78-7.96,16.84-13.92,4.06-5.96,6.09-12.89,6.09-20.79v-110.22h0Z"/>
        <path class="cls-8" d="M415.21,148.67v108.69h-222.33v5.9c0,7.34-1.89,13.83-5.6,19.29-3.73,5.46-9.01,9.7-15.7,12.61-6.75,2.93-14.78,4.42-23.87,4.42-4.04,0-8.25-.29-12.52-.86-3.93-.52-8.06-1.21-12.57-2.09l3.61-19.77c4.77.58,8.91.99,12.32,1.24,3.73.27,6.73.4,9.16.4,7.05,0,12.01-1.21,15.17-3.69,3.19-2.51,4.81-6.4,4.81-11.54v-5.9h-11.6c-8.67,0-16.17-1.41-22.28-4.18-6.05-2.75-10.71-6.97-13.85-12.55-3.17-5.62-4.77-12.8-4.77-21.33s1.61-15.82,4.78-21.66c3.16-5.8,7.82-10.26,13.88-13.26,6.1-3.03,13.59-4.57,22.25-4.57h36.8v56.46h35.52v-87.61h25.2v87.61h75.69v-16.02c0-6.19-1.98-10.99-5.89-14.29-3.86-3.25-10.2-4.9-18.83-4.9-2.12,0-4.94.13-8.61.4-3.28.24-7,.65-11.06,1.2l-2.16-19.43c4.17-.95,8.34-1.76,12.42-2.4,4.3-.68,8.64-1.02,12.89-1.02,8.88,0,16.9,1.67,23.85,4.97,6.91,3.27,12.47,7.97,16.52,13.96,4.03,5.97,6.07,13.21,6.07,21.51v16.02h35.52v-87.61h25.2M156.08,236.28h11.6v-35.37h-11.6c-3.05,0-5.76.39-8.06,1.16-2.47.83-4.4,2.62-5.72,5.33-1.29,2.64-1.92,6.54-1.92,11.91,0,5.05.55,8.67,1.68,11.09,1.17,2.53,3,4.18,5.45,4.89,2.25.66,5.14.99,8.58.99M416.21,147.67h-27.2v87.61h-33.52v-15.02c0-8.54-2.08-15.9-6.24-22.07-4.17-6.17-9.81-10.94-16.92-14.3-7.11-3.38-15.21-5.07-24.27-5.07-4.32,0-8.67.34-13.05,1.03-4.38.69-8.83,1.56-13.36,2.61l2.37,21.34c4.42-.63,8.44-1.08,12.01-1.34,3.58-.26,6.43-.4,8.54-.4,8.44,0,14.5,1.56,18.19,4.66,3.69,3.11,5.53,7.62,5.53,13.52v15.02h-73.69v-87.61h-27.2v87.61h-33.52v-56.46h-37.8c-8.85,0-16.42,1.56-22.69,4.67-6.27,3.11-11.04,7.66-14.31,13.68-3.26,6.01-4.9,13.39-4.9,22.14s1.64,16.03,4.9,21.82c3.27,5.8,8.04,10.12,14.31,12.97,6.27,2.84,13.84,4.27,22.69,4.27h10.6v4.9c0,4.85-1.48,8.44-4.43,10.76-2.95,2.32-7.8,3.48-14.55,3.48-2.43,0-5.45-.13-9.09-.4-3.64-.26-8.05-.71-13.21-1.35l-3.95,21.67c4.75.94,9.27,1.71,13.6,2.29,4.32.58,8.54.87,12.65.87,9.27,0,17.37-1.5,24.27-4.51,6.91-3,12.28-7.33,16.13-12.96,3.85-5.64,5.78-12.25,5.78-19.85v-4.9h222.33v-110.69h0ZM156.08,235.28c-3.38,0-6.15-.32-8.3-.95-2.16-.63-3.77-2.08-4.82-4.35-1.06-2.26-1.59-5.82-1.59-10.67,0-5.16.61-8.99,1.82-11.47,1.21-2.48,2.93-4.08,5.14-4.82,2.22-.74,4.8-1.11,7.75-1.11h10.6v33.37h-10.6Z"/>
        <path class="cls-8" d="M466.28,148.67v108.69h-25.04v-108.69h25.04M467.28,147.67h-27.04v110.69h27.04v-110.69h0Z"/>
        <path class="cls-8" d="M538.44,179.82c10.44,0,19.39,1.75,26.6,5.2,7.14,3.42,12.6,8.77,16.22,15.92,3.65,7.2,5.51,16.58,5.51,27.85v28.57h-64.26v-21.08h39.06v-7.48c0-7.24-.71-12.92-2.12-16.87-1.46-4.08-3.92-6.98-7.31-8.62-3.3-1.59-7.91-2.39-13.71-2.39h-11.81v-21.09h11.81M538.44,178.82h-12.81v23.09h12.81c5.69,0,10.12.77,13.28,2.29,3.17,1.53,5.43,4.22,6.8,8.06,1.37,3.85,2.06,9.36,2.06,16.53v6.48h-39.06v23.08h66.26v-29.57c0-11.49-1.87-20.93-5.61-28.31-3.74-7.38-9.3-12.84-16.68-16.37-7.38-3.53-16.39-5.3-27.04-5.3h0Z"/>
        <path class="cls-8" d="M804.85,275.81v18.72h-25.36v-18.72h25.36M805.85,274.81h-27.36v20.72h27.36v-20.72h0Z"/>
        <path class="cls-8" d="M634.69,148.67v87.61h47.63l-1.67-1.7c-1.78-1.82-3.48-3.74-5.04-5.7-4.09-5.12-7.26-10.31-9.43-15.42-2.15-5.07-3.24-9.75-3.24-13.92v-8.12c4.33-2.47,9.12-4.58,14.26-6.27,5.37-1.77,10.8-3.11,16.14-4,5.39-.89,10.31-1.33,14.62-1.33s9.39.45,14.78,1.33c5.34.88,10.76,2.23,16.13,4,5.12,1.69,9.92,3.79,14.26,6.27v8.12c0,4.17-1.09,8.85-3.24,13.92-2.15,5.09-5.33,10.27-9.43,15.42-1.56,1.95-3.25,3.87-5.04,5.7l-1.66,1.7h45.72v-56.46h25.36v77.54h-72.54c-8.06,0-15.71-1.31-22.75-3.89-.31-.11-.62-.23-.93-.35l-.24-.09-.35-.13-.35.13c-.2.08-.4.15-.61.23l-.57.21c-7.03,2.58-14.68,3.89-22.74,3.89h-74.12v-108.69h25.04M708.04,232.2l.55-.36c1.89-1.24,3.69-2.69,5.36-4.3,2.74-2.63,5.18-5.56,7.25-8.71,2.09-3.16,3.75-6.45,4.94-9.78.47-1.32.85-2.64,1.14-3.93l.2-.9-.88-.27c-.84-.26-1.73-.52-2.73-.78-5.66-1.49-11.01-2.25-15.91-2.25s-10.1.76-15.75,2.25c-.98.26-1.88.52-2.74.78l-.88.27.2.9c.29,1.29.67,2.61,1.14,3.93,1.18,3.33,2.85,6.62,4.94,9.77,2.09,3.17,4.53,6.1,7.25,8.71,1.69,1.62,3.49,3.07,5.37,4.3l.55.36M635.69,147.67h-27.04v110.69h75.12c8.22,0,15.91-1.32,23.08-3.95.4-.15.79-.29,1.19-.44.4.15.79.3,1.18.44,7.17,2.63,14.86,3.95,23.08,3.95h73.54v-79.54h-27.36v56.46h-42.35c1.82-1.86,3.52-3.79,5.1-5.78,4.16-5.22,7.36-10.43,9.57-15.65,2.22-5.22,3.32-9.98,3.32-14.31v-8.7c-4.54-2.63-9.51-4.85-14.95-6.64-5.43-1.79-10.85-3.14-16.28-4.03-5.43-.89-10.42-1.35-14.95-1.35s-9.36.46-14.78,1.35c-5.43.9-10.86,2.25-16.29,4.03-5.43,1.79-10.42,4-14.95,6.64v8.7c0,4.33,1.11,9.09,3.32,14.31,2.22,5.22,5.4,10.43,9.57,15.65,1.59,1.99,3.29,3.91,5.11,5.78h-44.25v-87.61h0ZM708.04,231c-1.82-1.19-3.56-2.58-5.22-4.18-2.69-2.58-5.05-5.43-7.11-8.54-2.06-3.11-3.67-6.29-4.83-9.56-.46-1.31-.83-2.58-1.11-3.82.89-.28,1.79-.53,2.69-.77,5.58-1.47,10.75-2.22,15.49-2.22s10.07.74,15.66,2.22c.91.24,1.8.49,2.69.77-.28,1.23-.64,2.51-1.11,3.82-1.16,3.26-2.77,6.45-4.83,9.56-2.05,3.11-4.42,5.96-7.11,8.54-1.65,1.59-3.4,2.99-5.22,4.18h0Z"/>
        <path class="cls-8" d="M856.08,148.67v108.69h-25.04v-108.69h25.04M857.08,147.67h-27.04v110.69h27.04v-110.69h0Z"/>
        <path class="cls-8" d="M848.85,98.07c2.11,0,4.34.31,6.62.91,1.88.5,3.51,1.15,4.86,1.92l-5.27,9.73c-.83-.34-1.67-.59-2.5-.72-1.07-.17-2.1-.25-3.07-.25-2.78,0-4.98.76-6.55,2.26-1.57,1.51-2.36,3.48-2.36,5.86,0,1.39.27,2.72.8,3.98l.04.1c.07.16.15.33.24.5l.28.54h22.2v11.44h-41.17v-11.44h4.44l-.26-1.21c-.25-1.17-.38-2.37-.38-3.59,0-3.79,1.01-7.22,2.99-10.19,2.02-3.02,4.71-5.43,8.02-7.18,3.31-1.76,7.03-2.65,11.07-2.65M848.85,97.07c-4.22,0-8.07.92-11.54,2.77-3.48,1.84-6.27,4.35-8.38,7.51-2.11,3.17-3.16,6.75-3.16,10.75,0,1.31.13,2.57.4,3.8h-4.2v13.44h43.17v-13.44h-22.59c-.1-.19-.18-.37-.26-.55-.47-1.11-.71-2.29-.71-3.56,0-2.1.69-3.82,2.06-5.13,1.37-1.32,3.32-1.98,5.85-1.98.94,0,1.92.08,2.92.24,1,.16,2.04.5,3.09,1.03l6.16-11.38c-1.58-1.06-3.56-1.9-5.93-2.54-2.37-.63-4.66-.94-6.88-.94h0Z"/>
        <path class="cls-8" d="M378.99,334v18.72h-23.78v-18.72h23.78M345.47,334v18.72h-23.94v-18.72h23.94M379.99,333h-25.78v20.72h25.78v-20.72h0ZM346.47,333h-25.94v20.72h25.94v-20.72h0Z"/>
        <path class="cls-8" d="M467.55,465.57v18.72h-23.78v-18.72h23.78M434.02,465.57v18.72h-23.94v-18.72h23.94M483.25,425.04h-.15.15ZM483.1,448.11v.02h.15c-.05,0-.1,0-.15-.02h0ZM468.55,464.57h-25.78v20.72h25.78v-20.72h0ZM435.02,464.57h-25.94v20.72h25.94v-20.72h0Z"/>
        <path class="cls-8" d="M483.25,425.04h-.15.15ZM483.1,448.11v.02h.15c-.05,0-.1,0-.15-.02h0Z"/>
        <path class="cls-8" d="M680.71,334v18.72h-23.78v-18.72h23.78M647.19,334v18.72h-23.94v-18.72h23.94M681.71,333h-25.78v20.72h25.78v-20.72h0ZM648.19,333h-25.94v20.72h25.94v-20.72h0Z"/>
        <path class="cls-8" d="M535.28,369.11c9.72,0,17.87,1.31,24.22,3.88,6.24,2.54,10.99,6.71,14.13,12.37,3.17,5.73,4.78,13.65,4.78,23.55v17.13h33.28l-.46-1.33c-1.57-4.56-2.36-10.04-2.36-16.28,0-8.22,1.61-15.33,4.77-21.11,3.16-5.75,7.83-10.18,13.89-13.19,6.11-3.03,13.59-4.56,22.24-4.56h36.8v77.53h-203.25l-1.21-.41v.41h-132.47c-8.67,0-16.17-1.41-22.27-4.18-6.06-2.75-10.72-6.97-13.85-12.54-3.17-5.62-4.77-12.8-4.77-21.33s1.61-15.83,4.78-21.66c3.15-5.8,7.82-10.26,13.88-13.26,6.1-3.03,13.58-4.56,22.24-4.56h36.8v56.45h49.12v-56.45h25.2v56.45h21.35v.39l1.2-.39h18.13l-.08-1.07c0-.06-.01-.13-.02-.19v-.14c-.43-4.48-.64-9.3-.64-14.3s.24-10.29.71-15.17c.47-4.84,1.07-9.28,1.81-13.19.66-3.58,1.3-6.54,1.9-8.83,2.6-.87,6.52-1.75,11.67-2.63,5.54-.93,11.76-1.41,18.49-1.41M526.73,426.04h26.47v-17.45c0-4.81-.49-8.41-1.49-11.03-1.05-2.73-2.94-4.67-5.61-5.78-2.54-1.04-6.18-1.57-10.82-1.57-2.4,0-4.83.09-7.23.27l-.81.06-.11.8c-.31,2.27-.58,4.68-.83,7.37-.37,3.96-.56,7.88-.56,11.63,0,3.19.16,6.72.47,10.51.11,1.36.25,2.77.41,4.3l.1.89M649.76,426.04h11.6v-35.37h-11.6c-3.82,0-6.89.54-9.13,1.6-2.34,1.12-4.05,3.03-5.08,5.68-1,2.56-1.49,5.99-1.49,10.48,0,5.13.49,8.83,1.5,11.28,1.05,2.59,2.79,4.32,5.18,5.16,2.23.78,5.18,1.16,9.03,1.16M349.63,426.04h11.6v-35.37h-11.6c-3.05,0-5.77.39-8.06,1.16-2.47.83-4.39,2.62-5.72,5.33-1.29,2.64-1.92,6.53-1.92,11.91,0,5.04.55,8.67,1.68,11.1,1.18,2.54,3.01,4.18,5.45,4.89,2.27.67,5.08.99,8.58.99M535.28,368.11c-6.85,0-13.07.48-18.66,1.42-5.58.95-9.69,1.9-12.33,2.84-.64,2.33-1.33,5.46-2.06,9.42-.74,3.95-1.35,8.38-1.82,13.28-.47,4.9-.71,9.99-.71,15.26s.21,9.86.63,14.39c0,.11.02.21.03.31h-17.11c-.05,0-.1,0-.15.01h0s-21.35-.01-21.35-.01v-56.45h-27.2v56.45h-47.12v-56.45h-37.8c-8.85,0-16.42,1.56-22.69,4.66-6.28,3.11-11.05,7.67-14.31,13.67-3.27,6.01-4.9,13.39-4.9,22.14s1.63,16.03,4.9,21.83c3.26,5.8,8.03,10.11,14.31,12.96,6.26,2.84,13.83,4.27,22.69,4.27h133.47v-.02s.1.02.15.02h204.31v-79.53h-37.8c-8.85,0-16.41,1.56-22.69,4.66s-11.05,7.64-14.32,13.6c-3.26,5.96-4.9,13.15-4.9,21.59,0,6.36.8,11.9,2.42,16.6h-30.88v-16.13c0-10.12-1.64-18.14-4.9-24.03-3.27-5.91-8.14-10.17-14.63-12.81-6.48-2.63-14.69-3.95-24.6-3.95h0ZM527.63,425.04c-.15-1.35-.29-2.78-.41-4.27-.31-3.79-.47-7.27-.47-10.43,0-3.69.18-7.54.55-11.54.23-2.52.5-4.97.82-7.33,2.35-.17,4.74-.26,7.16-.26,4.54,0,8.02.5,10.44,1.5,2.42,1,4.11,2.75,5.06,5.22.95,2.48,1.42,6.04,1.42,10.67v16.45h-24.57ZM649.76,425.04c-3.69,0-6.59-.37-8.7-1.11-2.1-.73-3.64-2.27-4.58-4.59-.95-2.32-1.42-5.95-1.42-10.91,0-4.33.47-7.69,1.42-10.12.94-2.43,2.48-4.14,4.58-5.14,2.11-1,5.01-1.5,8.7-1.5h10.6v33.37h-10.6ZM349.63,425.04c-3.38,0-6.14-.31-8.3-.95-2.16-.63-3.76-2.08-4.82-4.35-1.06-2.26-1.59-5.82-1.59-10.67,0-5.16.61-8.99,1.82-11.47,1.21-2.47,2.93-4.08,5.14-4.82,2.22-.74,4.8-1.11,7.75-1.11h10.6v33.37h-10.6Z"/>
        <path class="cls-8" d="M805,338.44v108.69h-60.57v3.22c0,7.49-1.58,14.28-4.71,20.17-3.11,5.87-7.5,10.53-13.06,13.84-5.56,3.32-12.18,5-19.65,5-1.13,0-2.55-.05-4.21-.16-1.39-.09-2.87-.21-4.42-.37l.44-20.72c1.46,0,2.89.03,4.28.08,1.79.06,2.9.08,3.59.08,3.91,0,7.03-1.6,9.27-4.77,2.17-3.06,3.27-7.48,3.27-13.15v-80.75h25.2v56.45h35.36v-87.6h25.21M806,337.44h-27.21v87.6h-33.36v-56.45h-27.2v81.75c0,5.48-1.03,9.67-3.08,12.57-2.05,2.9-4.87,4.35-8.46,4.35-.74,0-1.92-.03-3.56-.08-1.63-.05-3.4-.08-5.29-.08l-.48,22.62c1.9.21,3.69.37,5.38.47,1.68.1,3.11.16,4.27.16,7.69,0,14.42-1.71,20.16-5.14,5.74-3.42,10.22-8.17,13.44-14.23,3.22-6.06,4.83-12.94,4.83-20.64v-2.22h60.57v-110.69h0Z"/>
        <path class="cls-8" d="M856.08,338.43v108.69h-25.04v-108.69h25.04M857.08,337.43h-27.04v110.69h27.04v-110.69h0Z"/>
      </g>
    </g>
    <g>
      <path class="cls-8" d="M1523.88,140.53c-75.67-95.94-225.43-39.3-225.43-39.3-8.28-1.08-16.72-1.62-25.3-1.62l-110.94-1.04c5.2-4.87,8.05-12.23,6.62-20.16-1.62-8.99-8.82-16.11-17.83-17.64-8.1-1.37-15.58,1.7-20.38,7.18h-7.39c6.13-3.87,10.2-10.7,10.2-18.47s-4.06-14.59-10.19-18.47h6.94c5.27,6,13.71,9.16,22.68,6.82,7.51-1.96,13.49-7.86,15.52-15.36C1170.77,13.67,1167.85,5.34,1162.12,0h110.65C1307.2,0,1340.25,5.9,1370.95,16.76c36.58,12.93,69.85,32.88,98.18,58.24,8.15,7.29,15.89,15.02,23.17,23.17,11.73,13.12,22.32,27.3,31.58,42.36Z"/>
      <g>
        <g>
          <path class="cls-8" d="M1162.34,16.16c0,6.14-3.58,11.43-8.78,13.9-.48.22-.97.43-1.47.61-1.6.57-3.33.88-5.12.88s-3.51-.31-5.12-.88c-3.39-1.19-6.24-3.55-8.07-6.6h-106.23c-1.82,3.05-4.67,5.4-8.06,6.6-1.6.57-3.33.88-5.13.88s-3.52-.31-5.13-.88h.02c-.51-.18-1-.38-1.48-.61-5.19-2.47-8.78-7.77-8.78-13.9s3.59-11.43,8.78-13.9c.48-.23.97-.43,1.48-.61,1.59-.56,3.33-.87,5.11-.87s3.52.31,5.13.87h-.06c3.38,1.2,6.23,3.56,8.06,6.6h106.35c1.82-3.04,4.67-5.4,8.06-6.6h-.06c1.6-.56,3.32-.87,5.12-.87s3.51.31,5.12.87c.5.18.99.38,1.47.61,5.2,2.47,8.78,7.77,8.78,13.9Z"/>
          <path class="cls-8" d="M1126.88,49.14c0,6.14-3.59,11.43-8.78,13.89-.48.23-.98.44-1.49.62-1.6.57-3.31.87-5.1.87s-3.51-.3-5.11-.87c-3.4-1.19-6.25-3.55-8.07-6.6h-106.26c-1.82,3.05-4.67,5.41-8.07,6.6h-.14c-1.61.57-3.34.88-5.13.88s-3.51-.31-5.13-.88h.21c-.52-.18-1.01-.38-1.5-.62-5.19-2.46-8.78-7.76-8.78-13.89s3.59-11.42,8.78-13.89c.48-.23.97-.43,1.48-.61h-.19c1.61-.57,3.34-.88,5.13-.88s3.52.31,5.13.88h.17c3.38,1.2,6.23,3.55,8.05,6.6h106.24c1.83-3.05,4.67-5.4,8.06-6.6,1.6-.57,3.33-.88,5.13-.88s3.51.31,5.12.88c.5.18.99.37,1.47.61,5.19,2.47,8.78,7.77,8.78,13.89Z"/>
          <path class="cls-8" d="M1162.34,82.13c0,6.13-3.58,11.43-8.78,13.89-.48.22-.97.43-1.47.61-1.6.57-3.33.88-5.12.88s-3.51-.31-5.12-.88c-3.39-1.19-6.24-3.55-8.07-6.6h-106.23c-1.82,3.05-4.67,5.4-8.06,6.6-1.6.57-3.33.88-5.13.88s-3.52-.31-5.13-.88h.02c-.51-.18-1-.38-1.48-.61-5.19-2.46-8.78-7.77-8.78-13.89s3.59-11.44,8.78-13.9c.48-.22.97-.43,1.48-.61h-.02c1.6-.57,3.34-.88,5.13-.88s3.52.31,5.13.88c3.39,1.2,6.24,3.55,8.06,6.6h106.23c1.83-3.05,4.68-5.41,8.07-6.6,1.6-.57,3.32-.88,5.12-.88s3.51.31,5.12.88c.5.18.99.38,1.47.61,5.2,2.46,8.78,7.77,8.78,13.9Z"/>
        </g>
        <g>
          <path class="cls-8" d="M1162.34,16.16c0,6.14-3.58,11.43-8.78,13.9-.48.22-.97.43-1.47.61-1.6.57-3.33.88-5.12.88s-3.51-.31-5.12-.88c-3.39-1.19-6.24-3.55-8.07-6.6h-106.23c-1.82,3.05-4.67,5.4-8.06,6.6-1.6.57-3.33.88-5.13.88s-3.52-.31-5.13-.88h.02c-.51-.18-1-.38-1.48-.61-5.19-2.47-8.78-7.77-8.78-13.9s3.59-11.43,8.78-13.9c.48-.23.97-.43,1.48-.61,1.59-.56,3.33-.87,5.11-.87s3.52.31,5.13.87h-.06c3.38,1.2,6.23,3.56,8.06,6.6h106.35c1.82-3.04,4.67-5.4,8.06-6.6h-.06c1.6-.56,3.32-.87,5.12-.87s3.51.31,5.12.87c.5.18.99.38,1.47.61,5.2,2.47,8.78,7.77,8.78,13.9Z"/>
          <path class="cls-8" d="M1126.88,49.14c0,6.14-3.59,11.43-8.78,13.89-.48.23-.98.44-1.49.62-1.6.57-3.31.87-5.1.87s-3.51-.3-5.11-.87c-3.4-1.19-6.25-3.55-8.07-6.6h-106.26c-1.82,3.05-4.67,5.41-8.07,6.6h-.14c-1.61.57-3.34.88-5.13.88s-3.51-.31-5.13-.88h.21c-.52-.18-1.01-.38-1.5-.62-5.19-2.46-8.78-7.76-8.78-13.89s3.59-11.42,8.78-13.89c.48-.23.97-.43,1.48-.61h-.19c1.61-.57,3.34-.88,5.13-.88s3.52.31,5.13.88h.17c3.38,1.2,6.23,3.55,8.05,6.6h106.24c1.83-3.05,4.67-5.4,8.06-6.6,1.6-.57,3.33-.88,5.13-.88s3.51.31,5.12.88c.5.18.99.37,1.47.61,5.19,2.47,8.78,7.77,8.78,13.89Z"/>
          <path class="cls-8" d="M1162.34,82.13c0,6.13-3.58,11.43-8.78,13.89-.48.22-.97.43-1.47.61-1.6.57-3.33.88-5.12.88s-3.51-.31-5.12-.88c-3.39-1.19-6.24-3.55-8.07-6.6h-106.23c-1.82,3.05-4.67,5.4-8.06,6.6-1.6.57-3.33.88-5.13.88s-3.52-.31-5.13-.88h.02c-.51-.18-1-.38-1.48-.61-5.19-2.46-8.78-7.77-8.78-13.89s3.59-11.44,8.78-13.9c.48-.22.97-.43,1.48-.61h-.02c1.6-.57,3.34-.88,5.13-.88s3.52.31,5.13.88c3.39,1.2,6.24,3.55,8.06,6.6h106.23c1.83-3.05,4.68-5.41,8.07-6.6,1.6-.57,3.32-.88,5.12-.88s3.51.31,5.12.88c.5.18.99.38,1.47.61,5.2,2.46,8.78,7.77,8.78,13.9Z"/>
        </g>
        <g>
          <path class="cls-8" d="M1162.34,16.16c0,6.14-3.58,11.43-8.78,13.9-.48.22-.97.43-1.47.61-1.6.57-3.33.88-5.12.88s-3.51-.31-5.12-.88c-3.39-1.19-6.24-3.55-8.07-6.6h-106.23c-1.82,3.05-4.67,5.4-8.06,6.6-1.6.57-3.33.88-5.13.88s-3.52-.31-5.13-.88h.02c-.51-.18-1-.38-1.48-.61-5.19-2.47-8.78-7.77-8.78-13.9s3.59-11.43,8.78-13.9c.48-.23.97-.43,1.48-.61,1.59-.56,3.33-.87,5.11-.87s3.52.31,5.13.87h-.06c3.38,1.2,6.23,3.56,8.06,6.6h106.35c1.82-3.04,4.67-5.4,8.06-6.6h-.06c1.6-.56,3.32-.87,5.12-.87s3.51.31,5.12.87c.5.18.99.38,1.47.61,5.2,2.47,8.78,7.77,8.78,13.9Z"/>
          <path class="cls-8" d="M1126.88,49.14c0,6.14-3.59,11.43-8.78,13.89-.48.23-.98.44-1.49.62-1.6.57-3.31.87-5.1.87s-3.51-.3-5.11-.87c-3.4-1.19-6.25-3.55-8.07-6.6h-106.26c-1.82,3.05-4.67,5.41-8.07,6.6h-.14c-1.61.57-3.34.88-5.13.88s-3.51-.31-5.13-.88h.21c-.52-.18-1.01-.38-1.5-.62-5.19-2.46-8.78-7.76-8.78-13.89s3.59-11.42,8.78-13.89c.48-.23.97-.43,1.48-.61h-.19c1.61-.57,3.34-.88,5.13-.88s3.52.31,5.13.88h.17c3.38,1.2,6.23,3.55,8.05,6.6h106.24c1.83-3.05,4.67-5.4,8.06-6.6,1.6-.57,3.33-.88,5.13-.88s3.51.31,5.12.88c.5.18.99.37,1.47.61,5.19,2.47,8.78,7.77,8.78,13.89Z"/>
          <path class="cls-8" d="M1162.34,82.13c0,6.13-3.58,11.43-8.78,13.89-.48.22-.97.43-1.47.61-1.6.57-3.33.88-5.12.88s-3.51-.31-5.12-.88c-3.39-1.19-6.24-3.55-8.07-6.6h-106.23c-1.82,3.05-4.67,5.4-8.06,6.6-1.6.57-3.33.88-5.13.88s-3.52-.31-5.13-.88h.02c-.51-.18-1-.38-1.48-.61-5.19-2.46-8.78-7.77-8.78-13.89s3.59-11.44,8.78-13.9c.48-.22.97-.43,1.48-.61h-.02c1.6-.57,3.34-.88,5.13-.88s3.52.31,5.13.88c3.39,1.2,6.24,3.55,8.06,6.6h106.23c1.83-3.05,4.68-5.41,8.07-6.6,1.6-.57,3.32-.88,5.12-.88s3.51.31,5.12.88c.5.18.99.38,1.47.61,5.2,2.46,8.78,7.77,8.78,13.9Z"/>
        </g>
      </g>
      <g>
        <g>
          <g>
            <g>
              <path class="cls-8" d="M1173.61,373.45c.57,1.6.87,3.32.87,5.11s-.3,3.5-.87,5.1c-.18.51-.38,1.01-.62,1.49-2.47,5.2-7.76,8.78-13.9,8.78s-11.42-3.58-13.89-8.78c-.23-.48-.44-.98-.61-1.49-.57-1.6-.87-3.31-.87-5.1s.3-3.51.87-5.11c1.19-3.4,3.56-6.25,6.6-8.07v-106.25c-3.04-1.82-5.4-4.68-6.6-8.07-.57-1.6-.87-3.31-.87-5.1s.3-3.5.87-5.09c.18-.51.38-1.02.61-1.5,2.47-5.19,7.77-8.77,13.89-8.77s11.43,3.58,13.9,8.77c.24.48.44.99.62,1.5.57,1.59.87,3.31.87,5.09s-.3,3.5-.87,5.1c-1.19,3.4-3.55,6.25-6.6,8.07v106.25c3.05,1.82,5.4,4.68,6.6,8.07Z"/>
              <path class="cls-8" d="M1107.64,373.45c.57,1.6.87,3.32.87,5.11s-.3,3.5-.87,5.1c-.18.51-.38,1.01-.61,1.49-2.47,5.2-7.77,8.78-13.91,8.78s-11.42-3.58-13.89-8.78c-.23-.47-.44-.97-.61-1.47-.57-1.6-.88-3.32-.88-5.12s.31-3.52.88-5.13c1.2-3.38,3.56-6.23,6.6-8.05v-106.23c-3.04-1.82-5.4-4.67-6.6-8.06-.57-1.6-.88-3.32-.88-5.12s.31-3.52.88-5.11c.18-.5.38-1,.61-1.48,2.47-5.19,7.77-8.77,13.89-8.77s11.43,3.58,13.91,8.77c.23.48.44.99.61,1.5.57,1.59.87,3.31.87,5.09s-.3,3.5-.87,5.1c-1.19,3.4-3.55,6.25-6.6,8.07v106.25c3.05,1.82,5.4,4.68,6.6,8.07Z"/>
              <path class="cls-8" d="M1140.62,337.98c.57,1.6.88,3.33.88,5.13s-.31,3.52-.88,5.11c-.18.51-.38,1-.61,1.48-2.47,5.2-7.77,8.78-13.91,8.78s-11.43-3.58-13.9-8.78c-.22-.47-.43-.97-.61-1.48-.57-1.6-.88-3.32-.88-5.11s.31-3.52.88-5.13c1.2-3.39,3.56-6.23,6.6-8.05v-106.24c-3.04-1.82-5.4-4.66-6.6-8.05-.57-1.6-.88-3.33-.88-5.13s.31-3.51.88-5.11c.18-.5.38-1,.61-1.48,2.47-5.18,7.77-8.78,13.9-8.78s11.43,3.59,13.91,8.78c.23.49.43.98.61,1.48.57,1.6.88,3.32.88,5.11s-.31,3.52-.88,5.13c-1.2,3.39-3.56,6.23-6.6,8.05v106.24c3.04,1.82,5.4,4.66,6.6,8.05Z"/>
            </g>
            <g>
              <path class="cls-8" d="M1173.61,373.45c.57,1.6.87,3.32.87,5.11s-.3,3.5-.87,5.1c-.18.51-.38,1.01-.62,1.49-2.47,5.2-7.76,8.78-13.9,8.78s-11.42-3.58-13.89-8.78c-.23-.48-.44-.98-.61-1.49-.57-1.6-.87-3.31-.87-5.1s.3-3.51.87-5.11c1.19-3.4,3.56-6.25,6.6-8.07v-106.25c-3.04-1.82-5.4-4.68-6.6-8.07-.57-1.6-.87-3.31-.87-5.1s.3-3.5.87-5.09c.18-.51.38-1.02.61-1.5,2.47-5.19,7.77-8.77,13.89-8.77s11.43,3.58,13.9,8.77c.24.48.44.99.62,1.5.57,1.59.87,3.31.87,5.09s-.3,3.5-.87,5.1c-1.19,3.4-3.55,6.25-6.6,8.07v106.25c3.05,1.82,5.4,4.68,6.6,8.07Z"/>
              <path class="cls-8" d="M1107.64,373.45c.57,1.6.87,3.32.87,5.11s-.3,3.5-.87,5.1c-.18.51-.38,1.01-.61,1.49-2.47,5.2-7.77,8.78-13.91,8.78s-11.42-3.58-13.89-8.78c-.23-.47-.44-.97-.61-1.47-.57-1.6-.88-3.32-.88-5.12s.31-3.52.88-5.13c1.2-3.38,3.56-6.23,6.6-8.05v-106.23c-3.04-1.82-5.4-4.67-6.6-8.06-.57-1.6-.88-3.32-.88-5.12s.31-3.52.88-5.11c.18-.5.38-1,.61-1.48,2.47-5.19,7.77-8.77,13.89-8.77s11.43,3.58,13.91,8.77c.23.48.44.99.61,1.5.57,1.59.87,3.31.87,5.09s-.3,3.5-.87,5.1c-1.19,3.4-3.55,6.25-6.6,8.07v106.25c3.05,1.82,5.4,4.68,6.6,8.07Z"/>
              <path class="cls-8" d="M1140.62,337.98c.57,1.6.88,3.33.88,5.13s-.31,3.52-.88,5.11c-.18.51-.38,1-.61,1.48-2.47,5.2-7.77,8.78-13.91,8.78s-11.43-3.58-13.9-8.78c-.22-.47-.43-.97-.61-1.48-.57-1.6-.88-3.32-.88-5.11s.31-3.52.88-5.13c1.2-3.39,3.56-6.23,6.6-8.05v-106.24c-3.04-1.82-5.4-4.66-6.6-8.05-.57-1.6-.88-3.33-.88-5.13s.31-3.51.88-5.11c.18-.5.38-1,.61-1.48,2.47-5.18,7.77-8.78,13.9-8.78s11.43,3.59,13.91,8.78c.23.49.43.98.61,1.48.57,1.6.88,3.32.88,5.11s-.31,3.52-.88,5.13c-1.2,3.39-3.56,6.23-6.6,8.05v106.24c3.04,1.82,5.4,4.66,6.6,8.05Z"/>
            </g>
            <g>
              <path class="cls-8" d="M1173.61,373.45c.57,1.6.87,3.32.87,5.11s-.3,3.5-.87,5.1c-.18.51-.38,1.01-.62,1.49-2.47,5.2-7.76,8.78-13.9,8.78s-11.42-3.58-13.89-8.78c-.23-.48-.44-.98-.61-1.49-.57-1.6-.87-3.31-.87-5.1s.3-3.51.87-5.11c1.19-3.4,3.56-6.25,6.6-8.07v-106.25c-3.04-1.82-5.4-4.68-6.6-8.07-.57-1.6-.87-3.31-.87-5.1s.3-3.5.87-5.09c.18-.51.38-1.02.61-1.5,2.47-5.19,7.77-8.77,13.89-8.77s11.43,3.58,13.9,8.77c.24.48.44.99.62,1.5.57,1.59.87,3.31.87,5.09s-.3,3.5-.87,5.1c-1.19,3.4-3.55,6.25-6.6,8.07v106.25c3.05,1.82,5.4,4.68,6.6,8.07Z"/>
              <path class="cls-8" d="M1107.64,373.45c.57,1.6.87,3.32.87,5.11s-.3,3.5-.87,5.1c-.18.51-.38,1.01-.61,1.49-2.47,5.2-7.77,8.78-13.91,8.78s-11.42-3.58-13.89-8.78c-.23-.47-.44-.97-.61-1.47-.57-1.6-.88-3.32-.88-5.12s.31-3.52.88-5.13c1.2-3.38,3.56-6.23,6.6-8.05v-106.23c-3.04-1.82-5.4-4.67-6.6-8.06-.57-1.6-.88-3.32-.88-5.12s.31-3.52.88-5.11c.18-.5.38-1,.61-1.48,2.47-5.19,7.77-8.77,13.89-8.77s11.43,3.58,13.91,8.77c.23.48.44.99.61,1.5.57,1.59.87,3.31.87,5.09s-.3,3.5-.87,5.1c-1.19,3.4-3.55,6.25-6.6,8.07v106.25c3.05,1.82,5.4,4.68,6.6,8.07Z"/>
              <path class="cls-8" d="M1140.62,337.98c.57,1.6.88,3.33.88,5.13s-.31,3.52-.88,5.11c-.18.51-.38,1-.61,1.48-2.47,5.2-7.77,8.78-13.91,8.78s-11.43-3.58-13.9-8.78c-.22-.47-.43-.97-.61-1.48-.57-1.6-.88-3.32-.88-5.11s.31-3.52.88-5.13c1.2-3.39,3.56-6.23,6.6-8.05v-106.24c-3.04-1.82-5.4-4.66-6.6-8.05-.57-1.6-.88-3.33-.88-5.13s.31-3.51.88-5.11c.18-.5.38-1,.61-1.48,2.47-5.18,7.77-8.78,13.9-8.78s11.43,3.59,13.91,8.78c.23.49.43.98.61,1.48.57,1.6.88,3.32.88,5.11s-.31,3.52-.88,5.13c-1.2,3.39-3.56,6.23-6.6,8.05v106.24c3.04,1.82,5.4,4.66,6.6,8.05Z"/>
            </g>
          </g>
          <path class="cls-8" d="M1567.3,294.52c0,9.31-.44,18.53-1.28,27.63,0,.03,0,.07-.01.1-2.28,24.48-7.56,48.09-15.46,70.46-12.93,36.58-32.88,69.85-58.24,98.17-7.29,8.15-15.03,15.89-23.18,23.19-28.33,25.35-61.6,45.3-98.18,58.23-30.7,10.85-63.75,16.76-98.17,16.76h-98.18s-74.81,0-74.81,0c-12.6,0-22.81-10.21-22.81-22.81v-172.67c4.42,4.76,10.9,7.54,17.99,6.88,10.46-.96,18.81-9.48,19.69-19.94.62-7.32-2.36-13.98-7.34-18.39v-7.27c3.88,6.11,10.71,10.18,18.47,10.18s14.59-4.07,18.47-10.18v7.27c-4.99,4.4-7.97,11.06-7.35,18.38.88,10.48,9.23,19,19.7,19.95,7.1.65,13.57-2.14,17.99-6.89v69.9c0,14.64,11.65,26.61,26.28,27,21.39.58,51.36,1.26,72.28,1.26,35.92,0,69.59-9.66,98.55-26.53,29.36-17.1,53.87-41.62,70.98-70.98,16.87-28.95,26.53-62.63,26.53-98.56,0-21.49-3.46-42.16-9.84-61.51-4.29-13-9.91-25.4-16.69-37.04-17.1-29.37-41.62-53.88-70.98-70.98-22.04-12.84-46.83-21.51-73.25-24.91,0,0,149.76-56.64,225.43,39.3,19.62,24.87,34.25,59.99,40,109.02,2.25,14.66,3.42,29.68,3.42,44.97Z"/>
        </g>
        <g>
          <g>
            <g>
              <path class="cls-8" d="M1173.61,373.45c.57,1.6.87,3.32.87,5.11s-.3,3.5-.87,5.1c-.18.51-.38,1.01-.62,1.49-2.47,5.2-7.76,8.78-13.9,8.78s-11.42-3.58-13.89-8.78c-.23-.48-.44-.98-.61-1.49-.57-1.6-.87-3.31-.87-5.1s.3-3.51.87-5.11c1.19-3.4,3.56-6.25,6.6-8.07v-106.25c-3.04-1.82-5.4-4.68-6.6-8.07-.57-1.6-.87-3.31-.87-5.1s.3-3.5.87-5.09c.18-.51.38-1.02.61-1.5,2.47-5.19,7.77-8.77,13.89-8.77s11.43,3.58,13.9,8.77c.24.48.44.99.62,1.5.57,1.59.87,3.31.87,5.09s-.3,3.5-.87,5.1c-1.19,3.4-3.55,6.25-6.6,8.07v106.25c3.05,1.82,5.4,4.68,6.6,8.07Z"/>
              <path class="cls-8" d="M1107.64,373.45c.57,1.6.87,3.32.87,5.11s-.3,3.5-.87,5.1c-.18.51-.38,1.01-.61,1.49-2.47,5.2-7.77,8.78-13.91,8.78s-11.42-3.58-13.89-8.78c-.23-.47-.44-.97-.61-1.47-.57-1.6-.88-3.32-.88-5.12s.31-3.52.88-5.13c1.2-3.38,3.56-6.23,6.6-8.05v-106.23c-3.04-1.82-5.4-4.67-6.6-8.06-.57-1.6-.88-3.32-.88-5.12s.31-3.52.88-5.11c.18-.5.38-1,.61-1.48,2.47-5.19,7.77-8.77,13.89-8.77s11.43,3.58,13.91,8.77c.23.48.44.99.61,1.5.57,1.59.87,3.31.87,5.09s-.3,3.5-.87,5.1c-1.19,3.4-3.55,6.25-6.6,8.07v106.25c3.05,1.82,5.4,4.68,6.6,8.07Z"/>
              <path class="cls-8" d="M1140.62,337.98c.57,1.6.88,3.33.88,5.13s-.31,3.52-.88,5.11c-.18.51-.38,1-.61,1.48-2.47,5.2-7.77,8.78-13.91,8.78s-11.43-3.58-13.9-8.78c-.22-.47-.43-.97-.61-1.48-.57-1.6-.88-3.32-.88-5.11s.31-3.52.88-5.13c1.2-3.39,3.56-6.23,6.6-8.05v-106.24c-3.04-1.82-5.4-4.66-6.6-8.05-.57-1.6-.88-3.33-.88-5.13s.31-3.51.88-5.11c.18-.5.38-1,.61-1.48,2.47-5.18,7.77-8.78,13.9-8.78s11.43,3.59,13.91,8.78c.23.49.43.98.61,1.48.57,1.6.88,3.32.88,5.11s-.31,3.52-.88,5.13c-1.2,3.39-3.56,6.23-6.6,8.05v106.24c3.04,1.82,5.4,4.66,6.6,8.05Z"/>
            </g>
            <g>
              <path class="cls-8" d="M1173.61,373.45c.57,1.6.87,3.32.87,5.11s-.3,3.5-.87,5.1c-.18.51-.38,1.01-.62,1.49-2.47,5.2-7.76,8.78-13.9,8.78s-11.42-3.58-13.89-8.78c-.23-.48-.44-.98-.61-1.49-.57-1.6-.87-3.31-.87-5.1s.3-3.51.87-5.11c1.19-3.4,3.56-6.25,6.6-8.07v-106.25c-3.04-1.82-5.4-4.68-6.6-8.07-.57-1.6-.87-3.31-.87-5.1s.3-3.5.87-5.09c.18-.51.38-1.02.61-1.5,2.47-5.19,7.77-8.77,13.89-8.77s11.43,3.58,13.9,8.77c.24.48.44.99.62,1.5.57,1.59.87,3.31.87,5.09s-.3,3.5-.87,5.1c-1.19,3.4-3.55,6.25-6.6,8.07v106.25c3.05,1.82,5.4,4.68,6.6,8.07Z"/>
              <path class="cls-8" d="M1107.64,373.45c.57,1.6.87,3.32.87,5.11s-.3,3.5-.87,5.1c-.18.51-.38,1.01-.61,1.49-2.47,5.2-7.77,8.78-13.91,8.78s-11.42-3.58-13.89-8.78c-.23-.47-.44-.97-.61-1.47-.57-1.6-.88-3.32-.88-5.12s.31-3.52.88-5.13c1.2-3.38,3.56-6.23,6.6-8.05v-106.23c-3.04-1.82-5.4-4.67-6.6-8.06-.57-1.6-.88-3.32-.88-5.12s.31-3.52.88-5.11c.18-.5.38-1,.61-1.48,2.47-5.19,7.77-8.77,13.89-8.77s11.43,3.58,13.91,8.77c.23.48.44.99.61,1.5.57,1.59.87,3.31.87,5.09s-.3,3.5-.87,5.1c-1.19,3.4-3.55,6.25-6.6,8.07v106.25c3.05,1.82,5.4,4.68,6.6,8.07Z"/>
              <path class="cls-8" d="M1140.62,337.98c.57,1.6.88,3.33.88,5.13s-.31,3.52-.88,5.11c-.18.51-.38,1-.61,1.48-2.47,5.2-7.77,8.78-13.91,8.78s-11.43-3.58-13.9-8.78c-.22-.47-.43-.97-.61-1.48-.57-1.6-.88-3.32-.88-5.11s.31-3.52.88-5.13c1.2-3.39,3.56-6.23,6.6-8.05v-106.24c-3.04-1.82-5.4-4.66-6.6-8.05-.57-1.6-.88-3.33-.88-5.13s.31-3.51.88-5.11c.18-.5.38-1,.61-1.48,2.47-5.18,7.77-8.78,13.9-8.78s11.43,3.59,13.91,8.78c.23.49.43.98.61,1.48.57,1.6.88,3.32.88,5.11s-.31,3.52-.88,5.13c-1.2,3.39-3.56,6.23-6.6,8.05v106.24c3.04,1.82,5.4,4.66,6.6,8.05Z"/>
            </g>
            <g>
              <path class="cls-8" d="M1173.61,373.45c.57,1.6.87,3.32.87,5.11s-.3,3.5-.87,5.1c-.18.51-.38,1.01-.62,1.49-2.47,5.2-7.76,8.78-13.9,8.78s-11.42-3.58-13.89-8.78c-.23-.48-.44-.98-.61-1.49-.57-1.6-.87-3.31-.87-5.1s.3-3.51.87-5.11c1.19-3.4,3.56-6.25,6.6-8.07v-106.25c-3.04-1.82-5.4-4.68-6.6-8.07-.57-1.6-.87-3.31-.87-5.1s.3-3.5.87-5.09c.18-.51.38-1.02.61-1.5,2.47-5.19,7.77-8.77,13.89-8.77s11.43,3.58,13.9,8.77c.24.48.44.99.62,1.5.57,1.59.87,3.31.87,5.09s-.3,3.5-.87,5.1c-1.19,3.4-3.55,6.25-6.6,8.07v106.25c3.05,1.82,5.4,4.68,6.6,8.07Z"/>
              <path class="cls-8" d="M1107.64,373.45c.57,1.6.87,3.32.87,5.11s-.3,3.5-.87,5.1c-.18.51-.38,1.01-.61,1.49-2.47,5.2-7.77,8.78-13.91,8.78s-11.42-3.58-13.89-8.78c-.23-.47-.44-.97-.61-1.47-.57-1.6-.88-3.32-.88-5.12s.31-3.52.88-5.13c1.2-3.38,3.56-6.23,6.6-8.05v-106.23c-3.04-1.82-5.4-4.67-6.6-8.06-.57-1.6-.88-3.32-.88-5.12s.31-3.52.88-5.11c.18-.5.38-1,.61-1.48,2.47-5.19,7.77-8.77,13.89-8.77s11.43,3.58,13.91,8.77c.23.48.44.99.61,1.5.57,1.59.87,3.31.87,5.09s-.3,3.5-.87,5.1c-1.19,3.4-3.55,6.25-6.6,8.07v106.25c3.05,1.82,5.4,4.68,6.6,8.07Z"/>
              <path class="cls-8" d="M1140.62,337.98c.57,1.6.88,3.33.88,5.13s-.31,3.52-.88,5.11c-.18.51-.38,1-.61,1.48-2.47,5.2-7.77,8.78-13.91,8.78s-11.43-3.58-13.9-8.78c-.22-.47-.43-.97-.61-1.48-.57-1.6-.88-3.32-.88-5.11s.31-3.52.88-5.13c1.2-3.39,3.56-6.23,6.6-8.05v-106.24c-3.04-1.82-5.4-4.66-6.6-8.05-.57-1.6-.88-3.33-.88-5.13s.31-3.51.88-5.11c.18-.5.38-1,.61-1.48,2.47-5.18,7.77-8.78,13.9-8.78s11.43,3.59,13.91,8.78c.23.49.43.98.61,1.48.57,1.6.88,3.32.88,5.11s-.31,3.52-.88,5.13c-1.2,3.39-3.56,6.23-6.6,8.05v106.24c3.04,1.82,5.4,4.66,6.6,8.05Z"/>
            </g>
          </g>
          <path class="cls-8" d="M1567.3,294.52c0,9.31-.44,18.53-1.28,27.63,0,.03,0,.07-.01.1-2.28,24.48-7.56,48.09-15.46,70.46-12.93,36.58-32.88,69.85-58.24,98.17-7.29,8.15-15.03,15.89-23.18,23.19-28.33,25.35-61.6,45.3-98.18,58.23-30.7,10.85-63.75,16.76-98.17,16.76h-98.18s-74.81,0-74.81,0c-12.6,0-22.81-10.21-22.81-22.81v-172.67c4.42,4.76,10.9,7.54,17.99,6.88,10.46-.96,18.81-9.48,19.69-19.94.62-7.32-2.36-13.98-7.34-18.39v-7.27c3.88,6.11,10.71,10.18,18.47,10.18s14.59-4.07,18.47-10.18v7.27c-4.99,4.4-7.97,11.06-7.35,18.38.88,10.48,9.23,19,19.7,19.95,7.1.65,13.57-2.14,17.99-6.89v69.9c0,14.64,11.65,26.61,26.28,27,21.39.58,51.36,1.26,72.28,1.26,35.92,0,69.59-9.66,98.55-26.53,29.36-17.1,53.87-41.62,70.98-70.98,16.87-28.95,26.53-62.63,26.53-98.56,0-21.49-3.46-42.16-9.84-61.51-4.29-13-9.91-25.4-16.69-37.04-17.1-29.37-41.62-53.88-70.98-70.98-22.04-12.84-46.83-21.51-73.25-24.91,0,0,149.76-56.64,225.43,39.3,19.62,24.87,34.25,59.99,40,109.02,2.25,14.66,3.42,29.68,3.42,44.97Z"/>
        </g>
        <g>
          <g>
            <g>
              <path class="cls-8" d="M1173.61,373.45c.57,1.6.87,3.32.87,5.11s-.3,3.5-.87,5.1c-.18.51-.38,1.01-.62,1.49-2.47,5.2-7.76,8.78-13.9,8.78s-11.42-3.58-13.89-8.78c-.23-.48-.44-.98-.61-1.49-.57-1.6-.87-3.31-.87-5.1s.3-3.51.87-5.11c1.19-3.4,3.56-6.25,6.6-8.07v-106.25c-3.04-1.82-5.4-4.68-6.6-8.07-.57-1.6-.87-3.31-.87-5.1s.3-3.5.87-5.09c.18-.51.38-1.02.61-1.5,2.47-5.19,7.77-8.77,13.89-8.77s11.43,3.58,13.9,8.77c.24.48.44.99.62,1.5.57,1.59.87,3.31.87,5.09s-.3,3.5-.87,5.1c-1.19,3.4-3.55,6.25-6.6,8.07v106.25c3.05,1.82,5.4,4.68,6.6,8.07Z"/>
              <path class="cls-8" d="M1107.64,373.45c.57,1.6.87,3.32.87,5.11s-.3,3.5-.87,5.1c-.18.51-.38,1.01-.61,1.49-2.47,5.2-7.77,8.78-13.91,8.78s-11.42-3.58-13.89-8.78c-.23-.47-.44-.97-.61-1.47-.57-1.6-.88-3.32-.88-5.12s.31-3.52.88-5.13c1.2-3.38,3.56-6.23,6.6-8.05v-106.23c-3.04-1.82-5.4-4.67-6.6-8.06-.57-1.6-.88-3.32-.88-5.12s.31-3.52.88-5.11c.18-.5.38-1,.61-1.48,2.47-5.19,7.77-8.77,13.89-8.77s11.43,3.58,13.91,8.77c.23.48.44.99.61,1.5.57,1.59.87,3.31.87,5.09s-.3,3.5-.87,5.1c-1.19,3.4-3.55,6.25-6.6,8.07v106.25c3.05,1.82,5.4,4.68,6.6,8.07Z"/>
              <path class="cls-8" d="M1140.62,337.98c.57,1.6.88,3.33.88,5.13s-.31,3.52-.88,5.11c-.18.51-.38,1-.61,1.48-2.47,5.2-7.77,8.78-13.91,8.78s-11.43-3.58-13.9-8.78c-.22-.47-.43-.97-.61-1.48-.57-1.6-.88-3.32-.88-5.11s.31-3.52.88-5.13c1.2-3.39,3.56-6.23,6.6-8.05v-106.24c-3.04-1.82-5.4-4.66-6.6-8.05-.57-1.6-.88-3.33-.88-5.13s.31-3.51.88-5.11c.18-.5.38-1,.61-1.48,2.47-5.18,7.77-8.78,13.9-8.78s11.43,3.59,13.91,8.78c.23.49.43.98.61,1.48.57,1.6.88,3.32.88,5.11s-.31,3.52-.88,5.13c-1.2,3.39-3.56,6.23-6.6,8.05v106.24c3.04,1.82,5.4,4.66,6.6,8.05Z"/>
            </g>
            <g>
              <path class="cls-8" d="M1173.61,373.45c.57,1.6.87,3.32.87,5.11s-.3,3.5-.87,5.1c-.18.51-.38,1.01-.62,1.49-2.47,5.2-7.76,8.78-13.9,8.78s-11.42-3.58-13.89-8.78c-.23-.48-.44-.98-.61-1.49-.57-1.6-.87-3.31-.87-5.1s.3-3.51.87-5.11c1.19-3.4,3.56-6.25,6.6-8.07v-106.25c-3.04-1.82-5.4-4.68-6.6-8.07-.57-1.6-.87-3.31-.87-5.1s.3-3.5.87-5.09c.18-.51.38-1.02.61-1.5,2.47-5.19,7.77-8.77,13.89-8.77s11.43,3.58,13.9,8.77c.24.48.44.99.62,1.5.57,1.59.87,3.31.87,5.09s-.3,3.5-.87,5.1c-1.19,3.4-3.55,6.25-6.6,8.07v106.25c3.05,1.82,5.4,4.68,6.6,8.07Z"/>
              <path class="cls-8" d="M1107.64,373.45c.57,1.6.87,3.32.87,5.11s-.3,3.5-.87,5.1c-.18.51-.38,1.01-.61,1.49-2.47,5.2-7.77,8.78-13.91,8.78s-11.42-3.58-13.89-8.78c-.23-.47-.44-.97-.61-1.47-.57-1.6-.88-3.32-.88-5.12s.31-3.52.88-5.13c1.2-3.38,3.56-6.23,6.6-8.05v-106.23c-3.04-1.82-5.4-4.67-6.6-8.06-.57-1.6-.88-3.32-.88-5.12s.31-3.52.88-5.11c.18-.5.38-1,.61-1.48,2.47-5.19,7.77-8.77,13.89-8.77s11.43,3.58,13.91,8.77c.23.48.44.99.61,1.5.57,1.59.87,3.31.87,5.09s-.3,3.5-.87,5.1c-1.19,3.4-3.55,6.25-6.6,8.07v106.25c3.05,1.82,5.4,4.68,6.6,8.07Z"/>
              <path class="cls-8" d="M1140.62,337.98c.57,1.6.88,3.33.88,5.13s-.31,3.52-.88,5.11c-.18.51-.38,1-.61,1.48-2.47,5.2-7.77,8.78-13.91,8.78s-11.43-3.58-13.9-8.78c-.22-.47-.43-.97-.61-1.48-.57-1.6-.88-3.32-.88-5.11s.31-3.52.88-5.13c1.2-3.39,3.56-6.23,6.6-8.05v-106.24c-3.04-1.82-5.4-4.66-6.6-8.05-.57-1.6-.88-3.33-.88-5.13s.31-3.51.88-5.11c.18-.5.38-1,.61-1.48,2.47-5.18,7.77-8.78,13.9-8.78s11.43,3.59,13.91,8.78c.23.49.43.98.61,1.48.57,1.6.88,3.32.88,5.11s-.31,3.52-.88,5.13c-1.2,3.39-3.56,6.23-6.6,8.05v106.24c3.04,1.82,5.4,4.66,6.6,8.05Z"/>
            </g>
            <g>
              <path class="cls-8" d="M1173.61,373.45c.57,1.6.87,3.32.87,5.11s-.3,3.5-.87,5.1c-.18.51-.38,1.01-.62,1.49-2.47,5.2-7.76,8.78-13.9,8.78s-11.42-3.58-13.89-8.78c-.23-.48-.44-.98-.61-1.49-.57-1.6-.87-3.31-.87-5.1s.3-3.51.87-5.11c1.19-3.4,3.56-6.25,6.6-8.07v-106.25c-3.04-1.82-5.4-4.68-6.6-8.07-.57-1.6-.87-3.31-.87-5.1s.3-3.5.87-5.09c.18-.51.38-1.02.61-1.5,2.47-5.19,7.77-8.77,13.89-8.77s11.43,3.58,13.9,8.77c.24.48.44.99.62,1.5.57,1.59.87,3.31.87,5.09s-.3,3.5-.87,5.1c-1.19,3.4-3.55,6.25-6.6,8.07v106.25c3.05,1.82,5.4,4.68,6.6,8.07Z"/>
              <path class="cls-8" d="M1107.64,373.45c.57,1.6.87,3.32.87,5.11s-.3,3.5-.87,5.1c-.18.51-.38,1.01-.61,1.49-2.47,5.2-7.77,8.78-13.91,8.78s-11.42-3.58-13.89-8.78c-.23-.47-.44-.97-.61-1.47-.57-1.6-.88-3.32-.88-5.12s.31-3.52.88-5.13c1.2-3.38,3.56-6.23,6.6-8.05v-106.23c-3.04-1.82-5.4-4.67-6.6-8.06-.57-1.6-.88-3.32-.88-5.12s.31-3.52.88-5.11c.18-.5.38-1,.61-1.48,2.47-5.19,7.77-8.77,13.89-8.77s11.43,3.58,13.91,8.77c.23.48.44.99.61,1.5.57,1.59.87,3.31.87,5.09s-.3,3.5-.87,5.1c-1.19,3.4-3.55,6.25-6.6,8.07v106.25c3.05,1.82,5.4,4.68,6.6,8.07Z"/>
              <path class="cls-8" d="M1140.62,337.98c.57,1.6.88,3.33.88,5.13s-.31,3.52-.88,5.11c-.18.51-.38,1-.61,1.48-2.47,5.2-7.77,8.78-13.91,8.78s-11.43-3.58-13.9-8.78c-.22-.47-.43-.97-.61-1.48-.57-1.6-.88-3.32-.88-5.11s.31-3.52.88-5.13c1.2-3.39,3.56-6.23,6.6-8.05v-106.24c-3.04-1.82-5.4-4.66-6.6-8.05-.57-1.6-.88-3.33-.88-5.13s.31-3.51.88-5.11c.18-.5.38-1,.61-1.48,2.47-5.18,7.77-8.78,13.9-8.78s11.43,3.59,13.91,8.78c.23.49.43.98.61,1.48.57,1.6.88,3.32.88,5.11s-.31,3.52-.88,5.13c-1.2,3.39-3.56,6.23-6.6,8.05v106.24c3.04,1.82,5.4,4.66,6.6,8.05Z"/>
            </g>
          </g>
          <path class="cls-8" d="M1567.3,294.52c0,9.31-.44,18.53-1.28,27.63,0,.03,0,.07-.01.1-2.28,24.48-7.56,48.09-15.46,70.46-12.93,36.58-32.88,69.85-58.24,98.17-7.29,8.15-15.03,15.89-23.18,23.19-28.33,25.35-61.6,45.3-98.18,58.23-30.7,10.85-63.75,16.76-98.17,16.76h-98.18s-74.81,0-74.81,0c-12.6,0-22.81-10.21-22.81-22.81v-172.67c4.42,4.76,10.9,7.54,17.99,6.88,10.46-.96,18.81-9.48,19.69-19.94.62-7.32-2.36-13.98-7.34-18.39v-7.27c3.88,6.11,10.71,10.18,18.47,10.18s14.59-4.07,18.47-10.18v7.27c-4.99,4.4-7.97,11.06-7.35,18.38.88,10.48,9.23,19,19.7,19.95,7.1.65,13.57-2.14,17.99-6.89v69.9c0,14.64,11.65,26.61,26.28,27,21.39.58,51.36,1.26,72.28,1.26,35.92,0,69.59-9.66,98.55-26.53,29.36-17.1,53.87-41.62,70.98-70.98,16.87-28.95,26.53-62.63,26.53-98.56,0-21.49-3.46-42.16-9.84-61.51-4.29-13-9.91-25.4-16.69-37.04-17.1-29.37-41.62-53.88-70.98-70.98-22.04-12.84-46.83-21.51-73.25-24.91,0,0,149.76-56.64,225.43,39.3,19.62,24.87,34.25,59.99,40,109.02,2.25,14.66,3.42,29.68,3.42,44.97Z"/>
        </g>
      </g>
    </g>
  </g>
</svg>