<?xml version="1.0" encoding="UTF-8"?>
<svg id="Layer_1" data-name="Layer 1" xmlns="http://www.w3.org/2000/svg" xmlns:xlink="http://www.w3.org/1999/xlink" viewBox="0 0 1567.3 589.06">
  <defs>
    <style>
      .cls-1 {
        fill: url(#linear-gradient-15);
      }

      .cls-2 {
        fill: url(#linear-gradient-13);
      }

      .cls-3 {
        fill: url(#linear-gradient-2);
      }

      .cls-4 {
        fill: url(#linear-gradient-10);
      }

      .cls-5 {
        fill: url(#linear-gradient-12);
      }

      .cls-6 {
        fill: #231f20;
      }

      .cls-7 {
        fill: #00adb1;
      }

      .cls-8 {
        fill: url(#linear-gradient-4);
      }

      .cls-9 {
        fill: url(#linear-gradient-3);
      }

      .cls-10 {
        fill: url(#linear-gradient-5);
      }

      .cls-11 {
        fill: url(#linear-gradient-8);
      }

      .cls-12 {
        fill: url(#linear-gradient-14);
      }

      .cls-13 {
        fill: url(#linear-gradient-7);
      }

      .cls-14 {
        fill: url(#linear-gradient-9);
      }

      .cls-15 {
        fill: url(#linear-gradient-11);
      }

      .cls-16 {
        fill: url(#linear-gradient-6);
      }

      .cls-17 {
        fill: url(#linear-gradient);
      }
    </style>
    <linearGradient id="linear-gradient" x1="1123.23" y1="70.26" x2="1523.88" y2="70.26" gradientUnits="userSpaceOnUse">
      <stop offset="0" stop-color="#00adb1"/>
      <stop offset=".13" stop-color="#228faa"/>
      <stop offset=".28" stop-color="#4175a5"/>
      <stop offset=".43" stop-color="#5860a1"/>
      <stop offset=".6" stop-color="#69529e"/>
      <stop offset=".78" stop-color="#73499c"/>
      <stop offset="1" stop-color="#77479c"/>
    </linearGradient>
    <linearGradient id="linear-gradient-2" x1="999.01" y1="16.16" x2="1162.34" y2="16.16" gradientUnits="userSpaceOnUse">
      <stop offset="0" stop-color="#103d3e"/>
      <stop offset="1" stop-color="#1a6b6f"/>
    </linearGradient>
    <linearGradient id="linear-gradient-3" x1="963.55" y1="49.15" x2="1126.88" y2="49.15" gradientUnits="userSpaceOnUse">
      <stop offset="0" stop-color="#00adb1"/>
      <stop offset="1" stop-color="#77479c"/>
    </linearGradient>
    <linearGradient id="linear-gradient-4" x1="999.01" y1="82.13" x2="1162.34" y2="82.13" xlink:href="#linear-gradient-3"/>
    <linearGradient id="linear-gradient-5" x1="963.55" x2="1162.34" xlink:href="#linear-gradient-3"/>
    <linearGradient id="linear-gradient-6" x1="963.55" x2="1162.34" xlink:href="#linear-gradient-3"/>
    <linearGradient id="linear-gradient-7" x1="963.55" x2="1162.34" xlink:href="#linear-gradient-3"/>
    <linearGradient id="linear-gradient-8" x1="1143.71" y1="312.27" x2="1174.48" y2="312.27" xlink:href="#linear-gradient-3"/>
    <linearGradient id="linear-gradient-9" x1="1077.74" y1="312.27" x2="1108.51" y2="312.27" xlink:href="#linear-gradient-3"/>
    <linearGradient id="linear-gradient-10" x1="1110.72" y1="276.81" x2="1141.5" y2="276.81" xlink:href="#linear-gradient-3"/>
    <linearGradient id="linear-gradient-11" x1="1077.74" y1="294.53" x2="1174.48" y2="294.53" xlink:href="#linear-gradient-3"/>
    <linearGradient id="linear-gradient-12" x1="1077.74" y1="294.53" x2="1174.48" y2="294.53" xlink:href="#linear-gradient-3"/>
    <linearGradient id="linear-gradient-13" x1="1077.74" y1="294.53" x2="1174.48" y2="294.53" xlink:href="#linear-gradient-3"/>
    <linearGradient id="linear-gradient-14" x1="1267.99" y1="488.2" x2="1484.98" y2="48.5" gradientUnits="userSpaceOnUse">
      <stop offset="0" stop-color="#77479c"/>
      <stop offset="1" stop-color="#00adb1"/>
    </linearGradient>
    <linearGradient id="linear-gradient-15" x1="1322.14" y1="449.8" x2="1322.14" y2="41.54" gradientUnits="userSpaceOnUse">
      <stop offset="0" stop-color="#77479c"/>
      <stop offset=".33" stop-color="#4471a4"/>
      <stop offset=".62" stop-color="#1f92ab"/>
      <stop offset=".85" stop-color="#08a5af"/>
      <stop offset="1" stop-color="#00adb1"/>
    </linearGradient>
  </defs>
  <g>
    <g>
      <path class="cls-6" d="M49.97,297.58c-9.59,0-18.18-1.77-25.78-5.3-7.59-3.53-13.52-8.38-17.79-14.55-4.27-6.17-6.41-13.1-6.41-20.8,0-2.21.16-5.01.48-8.38.32-3.37.73-7.12,1.26-11.22.52-4.11,1.13-8.41,1.82-12.89.69-4.48,1.34-8.83,1.98-13.05l26.88,3.48c-1.16,6.96-2.11,13.26-2.84,18.9-.74,5.64-1.32,10.39-1.74,14.23-.42,3.85-.63,6.72-.63,8.62,0,3.69.84,6.85,2.53,9.49,1.68,2.63,4.24,4.69,7.67,6.17,3.42,1.47,7.62,2.21,12.57,2.21,5.38,0,9.54-.77,12.49-2.29,2.95-1.53,5.01-3.56,6.17-6.09,1.16-2.53,1.74-5.27,1.74-8.22v-110.22h27.2v110.22c0,7.9-2.03,14.84-6.09,20.79-4.06,5.96-9.67,10.6-16.84,13.92-7.17,3.32-15.39,4.98-24.67,4.98Z"/>
      <path class="cls-6" d="M389.01,147.67v87.61h-33.52v-15.02c0-8.54-2.08-15.9-6.24-22.07-4.17-6.17-9.81-10.94-16.92-14.3-7.11-3.38-15.21-5.07-24.27-5.07-4.32,0-8.67.34-13.05,1.03-4.38.69-8.83,1.56-13.36,2.61l2.37,21.34c4.42-.63,8.44-1.08,12.01-1.34,3.59-.26,6.43-.4,8.54-.4,8.44,0,14.5,1.56,18.19,4.66,3.69,3.11,5.53,7.62,5.53,13.52v15.02h-73.69v-87.61h-27.2v87.61h-33.52v-56.46h-37.8c-8.85,0-16.42,1.56-22.69,4.67-6.27,3.11-11.04,7.66-14.31,13.68-3.26,6.01-4.9,13.39-4.9,22.14s1.64,16.03,4.9,21.82c3.27,5.8,8.04,10.12,14.31,12.97,6.27,2.84,13.84,4.27,22.69,4.27h10.6v4.9c0,4.85-1.48,8.44-4.43,10.76-2.95,2.32-7.8,3.48-14.55,3.48-2.43,0-5.45-.13-9.09-.4-3.64-.26-8.05-.71-13.21-1.35l-3.95,21.67c4.75.94,9.27,1.71,13.6,2.29,4.32.58,8.54.87,12.65.87,9.27,0,17.37-1.5,24.27-4.51,6.91-3,12.28-7.33,16.13-12.96,3.85-5.64,5.78-12.25,5.78-19.85v-4.9h222.33v-110.69h-27.2ZM166.68,235.28h-10.6c-3.38,0-6.15-.32-8.3-.95-2.16-.63-3.77-2.08-4.82-4.35-1.06-2.26-1.59-5.82-1.59-10.67,0-5.16.61-8.99,1.82-11.47,1.21-2.48,2.93-4.08,5.14-4.82,2.22-.74,4.8-1.11,7.75-1.11h10.6v33.37Z"/>
      <path class="cls-6" d="M440.24,258.37v-110.69h27.04v110.69h-27.04Z"/>
      <path class="cls-6" d="M587.77,228.8v29.57h-66.26v-23.08h39.06v-6.48c0-7.17-.69-12.68-2.06-16.53-1.38-3.84-3.64-6.53-6.8-8.06-3.16-1.52-7.59-2.29-13.28-2.29h-12.81v-23.09h12.81c10.64,0,19.66,1.77,27.04,5.3,7.38,3.53,12.94,8.99,16.68,16.37,3.74,7.38,5.61,16.82,5.61,28.31Z"/>
      <path class="cls-6" d="M778.49,274.81v20.72h27.36v-20.72h-27.36Z"/>
      <path class="cls-6" d="M778.49,178.82v56.46h-42.35c1.82-1.86,3.52-3.79,5.1-5.78,4.16-5.22,7.36-10.43,9.57-15.65,2.22-5.22,3.32-9.98,3.32-14.31v-8.7c-4.54-2.63-9.51-4.85-14.95-6.64-5.43-1.79-10.85-3.14-16.28-4.03-5.43-.89-10.42-1.35-14.95-1.35s-9.36.46-14.78,1.35c-5.43.9-10.86,2.25-16.29,4.03-5.43,1.79-10.42,4-14.95,6.64v8.7c0,4.33,1.11,9.09,3.32,14.31,2.22,5.22,5.4,10.43,9.57,15.65,1.59,1.99,3.29,3.91,5.11,5.78h-44.25v-87.61h-27.04v110.69h75.12c8.22,0,15.91-1.32,23.08-3.95.4-.15.79-.29,1.19-.44.4.15.79.3,1.18.44,7.17,2.64,14.86,3.95,23.08,3.95h73.54v-79.54h-27.36ZM725.2,208.72c-1.16,3.26-2.77,6.45-4.83,9.56-2.05,3.11-4.42,5.96-7.11,8.54-1.65,1.59-3.4,2.99-5.22,4.18-1.82-1.19-3.56-2.58-5.22-4.18-2.69-2.58-5.05-5.43-7.11-8.54-2.06-3.11-3.67-6.29-4.83-9.56-.46-1.31-.83-2.58-1.11-3.82.89-.28,1.79-.53,2.69-.77,5.58-1.47,10.75-2.22,15.49-2.22s10.07.74,15.66,2.22c.91.24,1.8.49,2.69.77-.28,1.23-.64,2.51-1.11,3.82Z"/>
      <path class="cls-6" d="M830.04,147.67v110.69h27.04v-110.69h-27.04Z"/>
      <path class="cls-6" d="M865.14,121.9v13.43h-43.17v-13.43h4.2c-.26-1.23-.4-2.49-.4-3.8,0-4,1.05-7.58,3.16-10.75,2.11-3.16,4.9-5.67,8.38-7.51,3.47-1.85,7.32-2.77,11.54-2.77,2.22,0,4.51.32,6.88.94,2.37.64,4.35,1.48,5.93,2.54l-6.16,11.38c-1.06-.53-2.09-.87-3.09-1.03-1-.16-1.98-.24-2.92-.24-2.54,0-4.48.67-5.85,1.98-1.37,1.32-2.06,3.03-2.06,5.13,0,1.27.24,2.45.71,3.56.08.18.16.37.26.55h22.59Z"/>
      <path class="cls-6" d="M320.53,333v20.72h25.94v-20.72h-25.94ZM354.22,333v20.72h25.78v-20.72h-25.78Z"/>
      <path class="cls-6" d="M409.09,464.57v20.72h25.94v-20.72h-25.94ZM442.77,464.57v20.72h25.78v-20.72h-25.78ZM483.1,448.11v.02h.15c-.05,0-.1,0-.15-.02ZM483.1,425.04h.15-.15Z"/>
      <path class="cls-6" d="M483.1,448.11v.02h.15c-.05,0-.1,0-.15-.02ZM483.1,425.04h.15-.15Z"/>
      <path class="cls-6" d="M622.25,333v20.72h25.94v-20.72h-25.94ZM655.93,333v20.72h25.78v-20.72h-25.78Z"/>
      <path class="cls-6" d="M649.76,368.59c-8.85,0-16.41,1.56-22.69,4.66-6.27,3.11-11.05,7.64-14.32,13.6-3.26,5.96-4.9,13.15-4.9,21.59,0,6.36.8,11.9,2.42,16.6h-30.88v-16.13c0-10.12-1.64-18.14-4.9-24.03-3.27-5.91-8.14-10.17-14.63-12.81-6.48-2.63-14.69-3.95-24.6-3.95-6.85,0-13.07.48-18.66,1.42-5.58.95-9.69,1.9-12.33,2.84-.64,2.33-1.32,5.46-2.06,9.42-.74,3.95-1.35,8.38-1.82,13.28-.47,4.9-.71,9.99-.71,15.26s.21,9.86.63,14.39c0,.11.02.21.03.32h-17.11c-.05,0-.1,0-.15.01h0s-21.35-.01-21.35-.01v-56.45h-27.2v56.45h-47.12v-56.45h-37.8c-8.85,0-16.42,1.56-22.69,4.66-6.28,3.11-11.05,7.67-14.31,13.67-3.27,6.01-4.9,13.39-4.9,22.14s1.63,16.03,4.9,21.83c3.26,5.8,8.03,10.11,14.31,12.96,6.26,2.84,13.83,4.27,22.69,4.27h133.47v-.02s.1.02.15.02h204.31v-79.53h-37.8ZM360.23,425.04h-10.6c-3.38,0-6.14-.32-8.3-.95-2.16-.63-3.76-2.08-4.82-4.35-1.06-2.26-1.59-5.82-1.59-10.67,0-5.16.61-8.99,1.82-11.47,1.21-2.47,2.93-4.08,5.14-4.82,2.22-.74,4.8-1.11,7.75-1.11h10.6v33.37ZM552.2,425.04h-24.57c-.15-1.36-.29-2.78-.41-4.27-.31-3.79-.47-7.27-.47-10.43,0-3.69.18-7.54.55-11.54.23-2.52.5-4.97.82-7.33,2.35-.17,4.74-.26,7.16-.26,4.54,0,8.02.5,10.44,1.5,2.42,1,4.11,2.75,5.06,5.22.95,2.48,1.42,6.04,1.42,10.67v16.45ZM660.36,425.04h-10.6c-3.69,0-6.59-.37-8.7-1.11-2.1-.73-3.64-2.27-4.58-4.59-.95-2.32-1.42-5.95-1.42-10.91,0-4.33.47-7.69,1.42-10.12.94-2.43,2.48-4.14,4.58-5.14,2.11-1,5.01-1.5,8.7-1.5h10.6v33.37Z"/>
      <path class="cls-6" d="M806,337.44v110.69h-60.57v2.22c0,7.69-1.61,14.57-4.83,20.64-3.21,6.06-7.69,10.81-13.44,14.23-5.75,3.43-12.47,5.14-20.16,5.14-1.16,0-2.58-.05-4.27-.16-1.69-.1-3.48-.26-5.38-.47l.48-22.62c1.89,0,3.66.03,5.29.08,1.64.05,2.82.08,3.56.08,3.59,0,6.41-1.45,8.46-4.35,2.06-2.9,3.08-7.1,3.08-12.57v-81.75h27.2v56.45h33.36v-87.6h27.21Z"/>
      <path class="cls-6" d="M830.04,448.12v-110.69h27.04v110.69h-27.04Z"/>
    </g>
    <g>
      <path class="cls-7" d="M49.97,297.58c-9.59,0-18.18-1.77-25.78-5.3-7.59-3.53-13.52-8.38-17.79-14.55-4.27-6.17-6.41-13.1-6.41-20.8,0-2.21.16-5.01.48-8.38.32-3.37.73-7.12,1.26-11.22.52-4.11,1.13-8.41,1.82-12.89.69-4.48,1.34-8.83,1.98-13.05l26.88,3.48c-1.16,6.96-2.11,13.26-2.84,18.9-.74,5.64-1.32,10.39-1.74,14.23-.42,3.85-.63,6.72-.63,8.62,0,3.69.84,6.85,2.53,9.49,1.68,2.63,4.24,4.69,7.67,6.17,3.42,1.47,7.62,2.21,12.57,2.21,5.38,0,9.54-.77,12.49-2.29,2.95-1.53,5.01-3.56,6.17-6.09,1.16-2.53,1.74-5.27,1.74-8.22v-110.22h27.2v110.22c0,7.9-2.03,14.84-6.09,20.79-4.06,5.96-9.67,10.6-16.84,13.92-7.17,3.32-15.39,4.98-24.67,4.98Z"/>
      <path class="cls-7" d="M389.01,147.67v87.61h-33.52v-15.02c0-8.54-2.08-15.9-6.24-22.07-4.17-6.17-9.81-10.94-16.92-14.3-7.11-3.38-15.21-5.07-24.27-5.07-4.32,0-8.67.34-13.05,1.03-4.38.69-8.83,1.56-13.36,2.61l2.37,21.34c4.42-.63,8.44-1.08,12.01-1.34,3.59-.26,6.43-.4,8.54-.4,8.44,0,14.5,1.56,18.19,4.66,3.69,3.11,5.53,7.62,5.53,13.52v15.02h-73.69v-87.61h-27.2v87.61h-33.52v-56.46h-37.8c-8.85,0-16.42,1.56-22.69,4.67-6.27,3.11-11.04,7.66-14.31,13.68-3.26,6.01-4.9,13.39-4.9,22.14s1.64,16.03,4.9,21.82c3.27,5.8,8.04,10.12,14.31,12.97,6.27,2.84,13.84,4.27,22.69,4.27h10.6v4.9c0,4.85-1.48,8.44-4.43,10.76-2.95,2.32-7.8,3.48-14.55,3.48-2.43,0-5.45-.13-9.09-.4-3.64-.26-8.05-.71-13.21-1.35l-3.95,21.67c4.75.94,9.27,1.71,13.6,2.29,4.32.58,8.54.87,12.65.87,9.27,0,17.37-1.5,24.27-4.51,6.91-3,12.28-7.33,16.13-12.96,3.85-5.64,5.78-12.25,5.78-19.85v-4.9h222.33v-110.69h-27.2ZM166.68,235.28h-10.6c-3.38,0-6.15-.32-8.3-.95-2.16-.63-3.77-2.08-4.82-4.35-1.06-2.26-1.59-5.82-1.59-10.67,0-5.16.61-8.99,1.82-11.47,1.21-2.48,2.93-4.08,5.14-4.82,2.22-.74,4.8-1.11,7.75-1.11h10.6v33.37Z"/>
      <path class="cls-7" d="M440.24,258.37v-110.69h27.04v110.69h-27.04Z"/>
      <path class="cls-7" d="M587.77,228.8v29.57h-66.26v-23.08h39.06v-6.48c0-7.17-.69-12.68-2.06-16.53-1.38-3.84-3.64-6.53-6.8-8.06-3.16-1.52-7.59-2.29-13.28-2.29h-12.81v-23.09h12.81c10.64,0,19.66,1.77,27.04,5.3,7.38,3.53,12.94,8.99,16.68,16.37,3.74,7.38,5.61,16.82,5.61,28.31Z"/>
      <path class="cls-7" d="M778.49,274.81v20.72h27.36v-20.72h-27.36Z"/>
      <path class="cls-7" d="M778.49,178.82v56.46h-42.35c1.82-1.86,3.52-3.79,5.1-5.78,4.16-5.22,7.36-10.43,9.57-15.65,2.22-5.22,3.32-9.98,3.32-14.31v-8.7c-4.54-2.63-9.51-4.85-14.95-6.64-5.43-1.79-10.85-3.14-16.28-4.03-5.43-.89-10.42-1.35-14.95-1.35s-9.36.46-14.78,1.35c-5.43.9-10.86,2.25-16.29,4.03-5.43,1.79-10.42,4-14.95,6.64v8.7c0,4.33,1.11,9.09,3.32,14.31,2.22,5.22,5.4,10.43,9.57,15.65,1.59,1.99,3.29,3.91,5.11,5.78h-44.25v-87.61h-27.04v110.69h75.12c8.22,0,15.91-1.32,23.08-3.95.4-.15.79-.29,1.19-.44.4.15.79.3,1.18.44,7.17,2.64,14.86,3.95,23.08,3.95h73.54v-79.54h-27.36ZM725.2,208.72c-1.16,3.26-2.77,6.45-4.83,9.56-2.05,3.11-4.42,5.96-7.11,8.54-1.65,1.59-3.4,2.99-5.22,4.18-1.82-1.19-3.56-2.58-5.22-4.18-2.69-2.58-5.05-5.43-7.11-8.54-2.06-3.11-3.67-6.29-4.83-9.56-.46-1.31-.83-2.58-1.11-3.82.89-.28,1.79-.53,2.69-.77,5.58-1.47,10.75-2.22,15.49-2.22s10.07.74,15.66,2.22c.91.24,1.8.49,2.69.77-.28,1.23-.64,2.51-1.11,3.82Z"/>
      <path class="cls-7" d="M830.04,147.67v110.69h27.04v-110.69h-27.04Z"/>
      <path class="cls-7" d="M865.14,121.9v13.43h-43.17v-13.43h4.2c-.26-1.23-.4-2.49-.4-3.8,0-4,1.05-7.58,3.16-10.75,2.11-3.16,4.9-5.67,8.38-7.51,3.47-1.85,7.32-2.77,11.54-2.77,2.22,0,4.51.32,6.88.94,2.37.64,4.35,1.48,5.93,2.54l-6.16,11.38c-1.06-.53-2.09-.87-3.09-1.03-1-.16-1.98-.24-2.92-.24-2.54,0-4.48.67-5.85,1.98-1.37,1.32-2.06,3.03-2.06,5.13,0,1.27.24,2.45.71,3.56.08.18.16.37.26.55h22.59Z"/>
      <path class="cls-7" d="M320.53,333v20.72h25.94v-20.72h-25.94ZM354.22,333v20.72h25.78v-20.72h-25.78Z"/>
      <path class="cls-7" d="M409.09,464.57v20.72h25.94v-20.72h-25.94ZM442.77,464.57v20.72h25.78v-20.72h-25.78ZM483.1,448.11v.02h.15c-.05,0-.1,0-.15-.02ZM483.1,425.04h.15-.15Z"/>
      <path class="cls-7" d="M483.1,448.11v.02h.15c-.05,0-.1,0-.15-.02ZM483.1,425.04h.15-.15Z"/>
      <path class="cls-7" d="M622.25,333v20.72h25.94v-20.72h-25.94ZM655.93,333v20.72h25.78v-20.72h-25.78Z"/>
      <path class="cls-7" d="M649.76,368.59c-8.85,0-16.41,1.56-22.69,4.66-6.27,3.11-11.05,7.64-14.32,13.6-3.26,5.96-4.9,13.15-4.9,21.59,0,6.36.8,11.9,2.42,16.6h-30.88v-16.13c0-10.12-1.64-18.14-4.9-24.03-3.27-5.91-8.14-10.17-14.63-12.81-6.48-2.63-14.69-3.95-24.6-3.95-6.85,0-13.07.48-18.66,1.42-5.58.95-9.69,1.9-12.33,2.84-.64,2.33-1.32,5.46-2.06,9.42-.74,3.95-1.35,8.38-1.82,13.28-.47,4.9-.71,9.99-.71,15.26s.21,9.86.63,14.39c0,.11.02.21.03.32h-17.11c-.05,0-.1,0-.15.01h0s-21.35-.01-21.35-.01v-56.45h-27.2v56.45h-47.12v-56.45h-37.8c-8.85,0-16.42,1.56-22.69,4.66-6.28,3.11-11.05,7.67-14.31,13.67-3.27,6.01-4.9,13.39-4.9,22.14s1.63,16.03,4.9,21.83c3.26,5.8,8.03,10.11,14.31,12.96,6.26,2.84,13.83,4.27,22.69,4.27h133.47v-.02s.1.02.15.02h204.31v-79.53h-37.8ZM360.23,425.04h-10.6c-3.38,0-6.14-.32-8.3-.95-2.16-.63-3.76-2.08-4.82-4.35-1.06-2.26-1.59-5.82-1.59-10.67,0-5.16.61-8.99,1.82-11.47,1.21-2.47,2.93-4.08,5.14-4.82,2.22-.74,4.8-1.11,7.75-1.11h10.6v33.37ZM552.2,425.04h-24.57c-.15-1.36-.29-2.78-.41-4.27-.31-3.79-.47-7.27-.47-10.43,0-3.69.18-7.54.55-11.54.23-2.52.5-4.97.82-7.33,2.35-.17,4.74-.26,7.16-.26,4.54,0,8.02.5,10.44,1.5,2.42,1,4.11,2.75,5.06,5.22.95,2.48,1.42,6.04,1.42,10.67v16.45ZM660.36,425.04h-10.6c-3.69,0-6.59-.37-8.7-1.11-2.1-.73-3.64-2.27-4.58-4.59-.95-2.32-1.42-5.95-1.42-10.91,0-4.33.47-7.69,1.42-10.12.94-2.43,2.48-4.14,4.58-5.14,2.11-1,5.01-1.5,8.7-1.5h10.6v33.37Z"/>
      <path class="cls-7" d="M806,337.44v110.69h-60.57v2.22c0,7.69-1.61,14.57-4.83,20.64-3.21,6.06-7.69,10.81-13.44,14.23-5.75,3.43-12.47,5.14-20.16,5.14-1.16,0-2.58-.05-4.27-.16-1.69-.1-3.48-.26-5.38-.47l.48-22.62c1.89,0,3.66.03,5.29.08,1.64.05,2.82.08,3.56.08,3.59,0,6.41-1.45,8.46-4.35,2.06-2.9,3.08-7.1,3.08-12.57v-81.75h27.2v56.45h33.36v-87.6h27.21Z"/>
      <path class="cls-7" d="M830.04,448.12v-110.69h27.04v110.69h-27.04Z"/>
    </g>
  </g>
  <g>
    <path class="cls-17" d="M1523.88,140.53c-75.67-95.94-225.43-39.3-225.43-39.3-8.28-1.08-16.72-1.62-25.3-1.62l-110.94-1.04c5.2-4.87,8.05-12.23,6.62-20.16-1.62-8.99-8.82-16.11-17.83-17.64-8.1-1.37-15.58,1.7-20.38,7.18h-7.39c6.13-3.87,10.2-10.7,10.2-18.47s-4.06-14.59-10.19-18.47h6.94c5.27,6,13.71,9.16,22.68,6.82,7.51-1.96,13.49-7.86,15.52-15.36,2.37-8.8-.54-17.12-6.27-22.47h110.65c34.43,0,67.47,5.9,98.17,16.76,36.58,12.93,69.85,32.88,98.18,58.24,8.15,7.29,15.89,15.02,23.17,23.17,11.73,13.12,22.32,27.3,31.58,42.36Z"/>
    <g>
      <g>
        <path class="cls-3" d="M1162.34,16.16c0,6.14-3.58,11.43-8.78,13.9-.48.22-.97.43-1.47.61-1.6.57-3.33.88-5.12.88s-3.51-.31-5.12-.88c-3.39-1.19-6.24-3.55-8.07-6.6h-106.23c-1.82,3.05-4.67,5.4-8.06,6.6-1.6.57-3.33.88-5.13.88s-3.52-.31-5.13-.88h.02c-.51-.18-1-.38-1.48-.61-5.19-2.47-8.78-7.77-8.78-13.9s3.59-11.43,8.78-13.9c.48-.23.97-.43,1.48-.61,1.59-.56,3.33-.87,5.11-.87s3.52.31,5.13.87h-.06c3.38,1.2,6.23,3.56,8.06,6.6h106.35c1.82-3.04,4.67-5.4,8.06-6.6h-.06c1.6-.56,3.32-.87,5.12-.87s3.51.31,5.12.87c.5.18.99.38,1.47.61,5.2,2.47,8.78,7.77,8.78,13.9Z"/>
        <path class="cls-9" d="M1126.88,49.14c0,6.14-3.59,11.43-8.78,13.89-.48.23-.98.44-1.49.62-1.6.57-3.31.87-5.1.87s-3.51-.3-5.11-.87c-3.4-1.19-6.25-3.55-8.07-6.6h-106.26c-1.82,3.05-4.67,5.41-8.07,6.6h-.14c-1.61.57-3.34.88-5.13.88s-3.51-.31-5.13-.88h.21c-.52-.18-1.01-.38-1.5-.62-5.19-2.46-8.78-7.76-8.78-13.89s3.59-11.42,8.78-13.89c.48-.23.97-.43,1.48-.61h-.19c1.61-.57,3.34-.88,5.13-.88s3.52.31,5.13.88h.17c3.38,1.2,6.23,3.55,8.05,6.6h106.24c1.83-3.05,4.67-5.4,8.06-6.6,1.6-.57,3.33-.88,5.13-.88s3.51.31,5.12.88c.5.18.99.37,1.47.61,5.19,2.47,8.78,7.77,8.78,13.89Z"/>
        <path class="cls-8" d="M1162.34,82.13c0,6.13-3.58,11.43-8.78,13.89-.48.22-.97.43-1.47.61-1.6.57-3.33.88-5.12.88s-3.51-.31-5.12-.88c-3.39-1.19-6.24-3.55-8.07-6.6h-106.23c-1.82,3.05-4.67,5.4-8.06,6.6-1.6.57-3.33.88-5.13.88s-3.52-.31-5.13-.88h.02c-.51-.18-1-.38-1.48-.61-5.19-2.46-8.78-7.77-8.78-13.89s3.59-11.44,8.78-13.9c.48-.22.97-.43,1.48-.61h-.02c1.6-.57,3.34-.88,5.13-.88s3.52.31,5.13.88c3.39,1.2,6.24,3.55,8.06,6.6h106.23c1.83-3.05,4.68-5.41,8.07-6.6,1.6-.57,3.32-.88,5.12-.88s3.51.31,5.12.88c.5.18.99.38,1.47.61,5.2,2.46,8.78,7.77,8.78,13.9Z"/>
      </g>
      <g>
        <path class="cls-10" d="M1162.34,16.16c0,6.14-3.58,11.43-8.78,13.9-.48.22-.97.43-1.47.61-1.6.57-3.33.88-5.12.88s-3.51-.31-5.12-.88c-3.39-1.19-6.24-3.55-8.07-6.6h-106.23c-1.82,3.05-4.67,5.4-8.06,6.6-1.6.57-3.33.88-5.13.88s-3.52-.31-5.13-.88h.02c-.51-.18-1-.38-1.48-.61-5.19-2.47-8.78-7.77-8.78-13.9s3.59-11.43,8.78-13.9c.48-.23.97-.43,1.48-.61,1.59-.56,3.33-.87,5.11-.87s3.52.31,5.13.87h-.06c3.38,1.2,6.23,3.56,8.06,6.6h106.35c1.82-3.04,4.67-5.4,8.06-6.6h-.06c1.6-.56,3.32-.87,5.12-.87s3.51.31,5.12.87c.5.18.99.38,1.47.61,5.2,2.47,8.78,7.77,8.78,13.9Z"/>
        <path class="cls-16" d="M1126.88,49.14c0,6.14-3.59,11.43-8.78,13.89-.48.23-.98.44-1.49.62-1.6.57-3.31.87-5.1.87s-3.51-.3-5.11-.87c-3.4-1.19-6.25-3.55-8.07-6.6h-106.26c-1.82,3.05-4.67,5.41-8.07,6.6h-.14c-1.61.57-3.34.88-5.13.88s-3.51-.31-5.13-.88h.21c-.52-.18-1.01-.38-1.5-.62-5.19-2.46-8.78-7.76-8.78-13.89s3.59-11.42,8.78-13.89c.48-.23.97-.43,1.48-.61h-.19c1.61-.57,3.34-.88,5.13-.88s3.52.31,5.13.88h.17c3.38,1.2,6.23,3.55,8.05,6.6h106.24c1.83-3.05,4.67-5.4,8.06-6.6,1.6-.57,3.33-.88,5.13-.88s3.51.31,5.12.88c.5.18.99.37,1.47.61,5.19,2.47,8.78,7.77,8.78,13.89Z"/>
        <path class="cls-13" d="M1162.34,82.13c0,6.13-3.58,11.43-8.78,13.89-.48.22-.97.43-1.47.61-1.6.57-3.33.88-5.12.88s-3.51-.31-5.12-.88c-3.39-1.19-6.24-3.55-8.07-6.6h-106.23c-1.82,3.05-4.67,5.4-8.06,6.6-1.6.57-3.33.88-5.13.88s-3.52-.31-5.13-.88h.02c-.51-.18-1-.38-1.48-.61-5.19-2.46-8.78-7.77-8.78-13.89s3.59-11.44,8.78-13.9c.48-.22.97-.43,1.48-.61h-.02c1.6-.57,3.34-.88,5.13-.88s3.52.31,5.13.88c3.39,1.2,6.24,3.55,8.06,6.6h106.23c1.83-3.05,4.68-5.41,8.07-6.6,1.6-.57,3.32-.88,5.12-.88s3.51.31,5.12.88c.5.18.99.38,1.47.61,5.2,2.46,8.78,7.77,8.78,13.9Z"/>
      </g>
    </g>
    <g>
      <g>
        <g>
          <g>
            <path class="cls-11" d="M1173.61,373.45c.57,1.6.87,3.32.87,5.11s-.3,3.5-.87,5.1c-.18.51-.38,1.01-.62,1.49-2.47,5.2-7.76,8.78-13.9,8.78s-11.42-3.58-13.89-8.78c-.23-.48-.44-.98-.61-1.49-.57-1.6-.87-3.31-.87-5.1s.3-3.51.87-5.11c1.19-3.4,3.56-6.25,6.6-8.07v-106.25c-3.04-1.82-5.4-4.68-6.6-8.07-.57-1.6-.87-3.31-.87-5.1s.3-3.5.87-5.09c.18-.51.38-1.02.61-1.5,2.47-5.19,7.77-8.77,13.89-8.77s11.43,3.58,13.9,8.77c.24.48.44.99.62,1.5.57,1.59.87,3.31.87,5.09s-.3,3.5-.87,5.1c-1.19,3.4-3.55,6.25-6.6,8.07v106.25c3.05,1.82,5.4,4.68,6.6,8.07Z"/>
            <path class="cls-14" d="M1107.64,373.45c.57,1.6.87,3.32.87,5.11s-.3,3.5-.87,5.1c-.18.51-.38,1.01-.61,1.49-2.47,5.2-7.77,8.78-13.91,8.78s-11.42-3.58-13.89-8.78c-.23-.47-.44-.97-.61-1.47-.57-1.6-.88-3.32-.88-5.12s.31-3.52.88-5.13c1.2-3.38,3.56-6.23,6.6-8.05v-106.23c-3.04-1.82-5.4-4.67-6.6-8.06-.57-1.6-.88-3.32-.88-5.12s.31-3.52.88-5.11c.18-.5.38-1,.61-1.48,2.47-5.19,7.77-8.77,13.89-8.77s11.43,3.58,13.91,8.77c.23.48.44.99.61,1.5.57,1.59.87,3.31.87,5.09s-.3,3.5-.87,5.1c-1.19,3.4-3.55,6.25-6.6,8.07v106.25c3.05,1.82,5.4,4.68,6.6,8.07Z"/>
            <path class="cls-4" d="M1140.62,337.98c.57,1.6.88,3.33.88,5.13s-.31,3.52-.88,5.11c-.18.51-.38,1-.61,1.48-2.47,5.2-7.77,8.78-13.91,8.78s-11.43-3.58-13.9-8.78c-.22-.47-.43-.97-.61-1.48-.57-1.6-.88-3.32-.88-5.11s.31-3.52.88-5.13c1.2-3.39,3.56-6.23,6.6-8.05v-106.24c-3.04-1.82-5.4-4.66-6.6-8.05-.57-1.6-.88-3.33-.88-5.13s.31-3.51.88-5.11c.18-.5.38-1,.61-1.48,2.47-5.18,7.77-8.78,13.9-8.78s11.43,3.59,13.91,8.78c.23.49.43.98.61,1.48.57,1.6.88,3.32.88,5.11s-.31,3.52-.88,5.13c-1.2,3.39-3.56,6.23-6.6,8.05v106.24c3.04,1.82,5.4,4.66,6.6,8.05Z"/>
          </g>
          <g>
            <path class="cls-15" d="M1173.61,373.45c.57,1.6.87,3.32.87,5.11s-.3,3.5-.87,5.1c-.18.51-.38,1.01-.62,1.49-2.47,5.2-7.76,8.78-13.9,8.78s-11.42-3.58-13.89-8.78c-.23-.48-.44-.98-.61-1.49-.57-1.6-.87-3.31-.87-5.1s.3-3.51.87-5.11c1.19-3.4,3.56-6.25,6.6-8.07v-106.25c-3.04-1.82-5.4-4.68-6.6-8.07-.57-1.6-.87-3.31-.87-5.1s.3-3.5.87-5.09c.18-.51.38-1.02.61-1.5,2.47-5.19,7.77-8.77,13.89-8.77s11.43,3.58,13.9,8.77c.24.48.44.99.62,1.5.57,1.59.87,3.31.87,5.09s-.3,3.5-.87,5.1c-1.19,3.4-3.55,6.25-6.6,8.07v106.25c3.05,1.82,5.4,4.68,6.6,8.07Z"/>
            <path class="cls-5" d="M1107.64,373.45c.57,1.6.87,3.32.87,5.11s-.3,3.5-.87,5.1c-.18.51-.38,1.01-.61,1.49-2.47,5.2-7.77,8.78-13.91,8.78s-11.42-3.58-13.89-8.78c-.23-.47-.44-.97-.61-1.47-.57-1.6-.88-3.32-.88-5.12s.31-3.52.88-5.13c1.2-3.38,3.56-6.23,6.6-8.05v-106.23c-3.04-1.82-5.4-4.67-6.6-8.06-.57-1.6-.88-3.32-.88-5.12s.31-3.52.88-5.11c.18-.5.38-1,.61-1.48,2.47-5.19,7.77-8.77,13.89-8.77s11.43,3.58,13.91,8.77c.23.48.44.99.61,1.5.57,1.59.87,3.31.87,5.09s-.3,3.5-.87,5.1c-1.19,3.4-3.55,6.25-6.6,8.07v106.25c3.05,1.82,5.4,4.68,6.6,8.07Z"/>
            <path class="cls-2" d="M1140.62,337.98c.57,1.6.88,3.33.88,5.13s-.31,3.52-.88,5.11c-.18.51-.38,1-.61,1.48-2.47,5.2-7.77,8.78-13.91,8.78s-11.43-3.58-13.9-8.78c-.22-.47-.43-.97-.61-1.48-.57-1.6-.88-3.32-.88-5.11s.31-3.52.88-5.13c1.2-3.39,3.56-6.23,6.6-8.05v-106.24c-3.04-1.82-5.4-4.66-6.6-8.05-.57-1.6-.88-3.33-.88-5.13s.31-3.51.88-5.11c.18-.5.38-1,.61-1.48,2.47-5.18,7.77-8.78,13.9-8.78s11.43,3.59,13.91,8.78c.23.49.43.98.61,1.48.57,1.6.88,3.32.88,5.11s-.31,3.52-.88,5.13c-1.2,3.39-3.56,6.23-6.6,8.05v106.24c3.04,1.82,5.4,4.66,6.6,8.05Z"/>
          </g>
        </g>
        <path class="cls-12" d="M1567.3,294.52c0,9.31-.44,18.53-1.28,27.63,0,.03,0,.07-.01.1-2.28,24.48-7.56,48.09-15.46,70.46-12.93,36.58-32.88,69.85-58.24,98.17-7.29,8.15-15.03,15.89-23.18,23.19-28.33,25.35-61.6,45.3-98.18,58.23-30.7,10.85-63.75,16.76-98.17,16.76h-98.18s-74.81,0-74.81,0c-12.6,0-22.81-10.21-22.81-22.81v-172.67c4.42,4.76,10.9,7.54,17.99,6.88,10.46-.96,18.81-9.48,19.69-19.94.62-7.32-2.36-13.98-7.34-18.39v-7.27c3.88,6.11,10.71,10.18,18.47,10.18s14.59-4.07,18.47-10.18v7.27c-4.99,4.4-7.97,11.06-7.35,18.38.88,10.48,9.23,19,19.7,19.95,7.1.65,13.57-2.14,17.99-6.89v69.9c0,14.64,11.65,26.61,26.28,27,21.39.58,51.36,1.26,72.28,1.26,35.92,0,69.59-9.66,98.55-26.53,29.36-17.1,53.87-41.62,70.98-70.98,16.87-28.95,26.53-62.63,26.53-98.56,0-21.49-3.46-42.16-9.84-61.51-4.29-13-9.91-25.4-16.69-37.04-17.1-29.37-41.62-53.88-70.98-70.98-22.04-12.84-46.83-21.51-73.25-24.91,0,0,149.76-56.64,225.43,39.3,19.62,24.87,34.25,59.99,40,109.02,2.25,14.66,3.42,29.68,3.42,44.97Z"/>
      </g>
      <g>
        <g>
          <g>
            <path class="cls-1" d="M1173.61,373.45c.57,1.6.87,3.32.87,5.11s-.3,3.5-.87,5.1c-.18.51-.38,1.01-.62,1.49-2.47,5.2-7.76,8.78-13.9,8.78s-11.42-3.58-13.89-8.78c-.23-.48-.44-.98-.61-1.49-.57-1.6-.87-3.31-.87-5.1s.3-3.51.87-5.11c1.19-3.4,3.56-6.25,6.6-8.07v-106.25c-3.04-1.82-5.4-4.68-6.6-8.07-.57-1.6-.87-3.31-.87-5.1s.3-3.5.87-5.09c.18-.51.38-1.02.61-1.5,2.47-5.19,7.77-8.77,13.89-8.77s11.43,3.58,13.9,8.77c.24.48.44.99.62,1.5.57,1.59.87,3.31.87,5.09s-.3,3.5-.87,5.1c-1.19,3.4-3.55,6.25-6.6,8.07v106.25c3.05,1.82,5.4,4.68,6.6,8.07Z"/>
            <path class="cls-1" d="M1107.64,373.45c.57,1.6.87,3.32.87,5.11s-.3,3.5-.87,5.1c-.18.51-.38,1.01-.61,1.49-2.47,5.2-7.77,8.78-13.91,8.78s-11.42-3.58-13.89-8.78c-.23-.47-.44-.97-.61-1.47-.57-1.6-.88-3.32-.88-5.12s.31-3.52.88-5.13c1.2-3.38,3.56-6.23,6.6-8.05v-106.23c-3.04-1.82-5.4-4.67-6.6-8.06-.57-1.6-.88-3.32-.88-5.12s.31-3.52.88-5.11c.18-.5.38-1,.61-1.48,2.47-5.19,7.77-8.77,13.89-8.77s11.43,3.58,13.91,8.77c.23.48.44.99.61,1.5.57,1.59.87,3.31.87,5.09s-.3,3.5-.87,5.1c-1.19,3.4-3.55,6.25-6.6,8.07v106.25c3.05,1.82,5.4,4.68,6.6,8.07Z"/>
            <path class="cls-1" d="M1140.62,337.98c.57,1.6.88,3.33.88,5.13s-.31,3.52-.88,5.11c-.18.51-.38,1-.61,1.48-2.47,5.2-7.77,8.78-13.91,8.78s-11.43-3.58-13.9-8.78c-.22-.47-.43-.97-.61-1.48-.57-1.6-.88-3.32-.88-5.11s.31-3.52.88-5.13c1.2-3.39,3.56-6.23,6.6-8.05v-106.24c-3.04-1.82-5.4-4.66-6.6-8.05-.57-1.6-.88-3.33-.88-5.13s.31-3.51.88-5.11c.18-.5.38-1,.61-1.48,2.47-5.18,7.77-8.78,13.9-8.78s11.43,3.59,13.91,8.78c.23.49.43.98.61,1.48.57,1.6.88,3.32.88,5.11s-.31,3.52-.88,5.13c-1.2,3.39-3.56,6.23-6.6,8.05v106.24c3.04,1.82,5.4,4.66,6.6,8.05Z"/>
          </g>
          <g>
            <path class="cls-1" d="M1173.61,373.45c.57,1.6.87,3.32.87,5.11s-.3,3.5-.87,5.1c-.18.51-.38,1.01-.62,1.49-2.47,5.2-7.76,8.78-13.9,8.78s-11.42-3.58-13.89-8.78c-.23-.48-.44-.98-.61-1.49-.57-1.6-.87-3.31-.87-5.1s.3-3.51.87-5.11c1.19-3.4,3.56-6.25,6.6-8.07v-106.25c-3.04-1.82-5.4-4.68-6.6-8.07-.57-1.6-.87-3.31-.87-5.1s.3-3.5.87-5.09c.18-.51.38-1.02.61-1.5,2.47-5.19,7.77-8.77,13.89-8.77s11.43,3.58,13.9,8.77c.24.48.44.99.62,1.5.57,1.59.87,3.31.87,5.09s-.3,3.5-.87,5.1c-1.19,3.4-3.55,6.25-6.6,8.07v106.25c3.05,1.82,5.4,4.68,6.6,8.07Z"/>
            <path class="cls-1" d="M1107.64,373.45c.57,1.6.87,3.32.87,5.11s-.3,3.5-.87,5.1c-.18.51-.38,1.01-.61,1.49-2.47,5.2-7.77,8.78-13.91,8.78s-11.42-3.58-13.89-8.78c-.23-.47-.44-.97-.61-1.47-.57-1.6-.88-3.32-.88-5.12s.31-3.52.88-5.13c1.2-3.38,3.56-6.23,6.6-8.05v-106.23c-3.04-1.82-5.4-4.67-6.6-8.06-.57-1.6-.88-3.32-.88-5.12s.31-3.52.88-5.11c.18-.5.38-1,.61-1.48,2.47-5.19,7.77-8.77,13.89-8.77s11.43,3.58,13.91,8.77c.23.48.44.99.61,1.5.57,1.59.87,3.31.87,5.09s-.3,3.5-.87,5.1c-1.19,3.4-3.55,6.25-6.6,8.07v106.25c3.05,1.82,5.4,4.68,6.6,8.07Z"/>
            <path class="cls-1" d="M1140.62,337.98c.57,1.6.88,3.33.88,5.13s-.31,3.52-.88,5.11c-.18.51-.38,1-.61,1.48-2.47,5.2-7.77,8.78-13.91,8.78s-11.43-3.58-13.9-8.78c-.22-.47-.43-.97-.61-1.48-.57-1.6-.88-3.32-.88-5.11s.31-3.52.88-5.13c1.2-3.39,3.56-6.23,6.6-8.05v-106.24c-3.04-1.82-5.4-4.66-6.6-8.05-.57-1.6-.88-3.33-.88-5.13s.31-3.51.88-5.11c.18-.5.38-1,.61-1.48,2.47-5.18,7.77-8.78,13.9-8.78s11.43,3.59,13.91,8.78c.23.49.43.98.61,1.48.57,1.6.88,3.32.88,5.11s-.31,3.52-.88,5.13c-1.2,3.39-3.56,6.23-6.6,8.05v106.24c3.04,1.82,5.4,4.66,6.6,8.05Z"/>
          </g>
          <g>
            <path class="cls-1" d="M1173.61,373.45c.57,1.6.87,3.32.87,5.11s-.3,3.5-.87,5.1c-.18.51-.38,1.01-.62,1.49-2.47,5.2-7.76,8.78-13.9,8.78s-11.42-3.58-13.89-8.78c-.23-.48-.44-.98-.61-1.49-.57-1.6-.87-3.31-.87-5.1s.3-3.51.87-5.11c1.19-3.4,3.56-6.25,6.6-8.07v-106.25c-3.04-1.82-5.4-4.68-6.6-8.07-.57-1.6-.87-3.31-.87-5.1s.3-3.5.87-5.09c.18-.51.38-1.02.61-1.5,2.47-5.19,7.77-8.77,13.89-8.77s11.43,3.58,13.9,8.77c.24.48.44.99.62,1.5.57,1.59.87,3.31.87,5.09s-.3,3.5-.87,5.1c-1.19,3.4-3.55,6.25-6.6,8.07v106.25c3.05,1.82,5.4,4.68,6.6,8.07Z"/>
            <path class="cls-1" d="M1107.64,373.45c.57,1.6.87,3.32.87,5.11s-.3,3.5-.87,5.1c-.18.51-.38,1.01-.61,1.49-2.47,5.2-7.77,8.78-13.91,8.78s-11.42-3.58-13.89-8.78c-.23-.47-.44-.97-.61-1.47-.57-1.6-.88-3.32-.88-5.12s.31-3.52.88-5.13c1.2-3.38,3.56-6.23,6.6-8.05v-106.23c-3.04-1.82-5.4-4.67-6.6-8.06-.57-1.6-.88-3.32-.88-5.12s.31-3.52.88-5.11c.18-.5.38-1,.61-1.48,2.47-5.19,7.77-8.77,13.89-8.77s11.43,3.58,13.91,8.77c.23.48.44.99.61,1.5.57,1.59.87,3.31.87,5.09s-.3,3.5-.87,5.1c-1.19,3.4-3.55,6.25-6.6,8.07v106.25c3.05,1.82,5.4,4.68,6.6,8.07Z"/>
            <path class="cls-1" d="M1140.62,337.98c.57,1.6.88,3.33.88,5.13s-.31,3.52-.88,5.11c-.18.51-.38,1-.61,1.48-2.47,5.2-7.77,8.78-13.91,8.78s-11.43-3.58-13.9-8.78c-.22-.47-.43-.97-.61-1.48-.57-1.6-.88-3.32-.88-5.11s.31-3.52.88-5.13c1.2-3.39,3.56-6.23,6.6-8.05v-106.24c-3.04-1.82-5.4-4.66-6.6-8.05-.57-1.6-.88-3.33-.88-5.13s.31-3.51.88-5.11c.18-.5.38-1,.61-1.48,2.47-5.18,7.77-8.78,13.9-8.78s11.43,3.59,13.91,8.78c.23.49.43.98.61,1.48.57,1.6.88,3.32.88,5.11s-.31,3.52-.88,5.13c-1.2,3.39-3.56,6.23-6.6,8.05v106.24c3.04,1.82,5.4,4.66,6.6,8.05Z"/>
          </g>
        </g>
        <path class="cls-1" d="M1567.3,294.52c0,9.31-.44,18.53-1.28,27.63,0,.03,0,.07-.01.1-2.28,24.48-7.56,48.09-15.46,70.46-12.93,36.58-32.88,69.85-58.24,98.17-7.29,8.15-15.03,15.89-23.18,23.19-28.33,25.35-61.6,45.3-98.18,58.23-30.7,10.85-63.75,16.76-98.17,16.76h-98.18s-74.81,0-74.81,0c-12.6,0-22.81-10.21-22.81-22.81v-172.67c4.42,4.76,10.9,7.54,17.99,6.88,10.46-.96,18.81-9.48,19.69-19.94.62-7.32-2.36-13.98-7.34-18.39v-7.27c3.88,6.11,10.71,10.18,18.47,10.18s14.59-4.07,18.47-10.18v7.27c-4.99,4.4-7.97,11.06-7.35,18.38.88,10.48,9.23,19,19.7,19.95,7.1.65,13.57-2.14,17.99-6.89v69.9c0,14.64,11.65,26.61,26.28,27,21.39.58,51.36,1.26,72.28,1.26,35.92,0,69.59-9.66,98.55-26.53,29.36-17.1,53.87-41.62,70.98-70.98,16.87-28.95,26.53-62.63,26.53-98.56,0-21.49-3.46-42.16-9.84-61.51-4.29-13-9.91-25.4-16.69-37.04-17.1-29.37-41.62-53.88-70.98-70.98-22.04-12.84-46.83-21.51-73.25-24.91,0,0,149.76-56.64,225.43,39.3,19.62,24.87,34.25,59.99,40,109.02,2.25,14.66,3.42,29.68,3.42,44.97Z"/>
      </g>
    </g>
  </g>
</svg>